<?xml version="1.0" encoding="UTF-8"?>
<svg width="1920px" height="1080px" viewBox="0 0 1920 1080" version="1.1" xmlns="http://www.w3.org/2000/svg" xmlns:xlink="http://www.w3.org/1999/xlink">
    <!-- Generator: Sketch 41.2 (35397) - http://www.bohemiancoding.com/sketch -->
    <title>Group 3</title>
    <desc>Created with Sketch.</desc>
    <defs></defs>
    <g id="Page-1" stroke="none" stroke-width="1" fill="none" fill-rule="evenodd">
        <g id="Artboard">
            <g id="Group-3">
                <rect id="Rectangle" fill="#263238" x="0" y="0" width="1920" height="1080"></rect>
                <g id="Group-2" transform="translate(1438.000000, 104.000000)">
                    <g id="Layer_4" transform="translate(85.287736, 58.384615)">
                        <polygon id="Shape" fill="#444444" points="29.5875505 680.215907 21.5695502 624.775821 77.9214117 670.598749"></polygon>
                        <polygon id="Shape" fill="#3A3A3A" points="29.5875505 680.215907 77.9214117 670.598749 83.1161725 700.468509 48.108002 694.698215"></polygon>
                        <polygon id="Shape" fill="#444444" points="83.1161725 700.468509 109.767554 699.110793 77.9214117 670.598749"></polygon>
                        <polygon id="Shape" fill="#383838" points="109.767554 699.110793 150.873922 691.869639 158.214345 651.477577"></polygon>
                        <polygon id="Shape" fill="#3D3D3D" points="150.873922 691.869639 167.813359 684.967914 172.669331 679.084477 178.767529 627.71754 158.214345 651.477577"></polygon>
                        <polygon id="Shape" fill="#353535" points="178.767529 627.71754 182.381275 589.475195 145.001584 615.950665 151.551499 633.374692"></polygon>
                        <polygon id="Shape" fill="#3A3A3A" points="178.767529 627.71754 158.214345 651.477577 151.551499 633.374692"></polygon>
                        <polygon id="Shape" fill="#3D3D3D" points="158.214345 651.477577 109.767554 699.110793 77.9214117 670.598749 107.621892 656.682156"></polygon>
                        <polygon id="Shape" fill="#3A3A3A" points="158.214345 651.477577 151.551499 633.374692 145.001584 615.950665 92.4893278 616.629523 107.621892 656.682156"></polygon>
                        <polygon id="Shape" fill="#3D3D3D" points="107.621892 656.682156 77.9214117 670.598749 21.5695502 624.775821"></polygon>
                        <polygon id="Shape" fill="#3F3F3F" points="107.621892 656.682156 92.4893278 616.629523 52.173467 577.70832 21.5695502 624.775821"></polygon>
                        <polygon id="Shape" fill="#333333" points="21.5695502 624.775821 8.92143699 540.144834 52.173467 577.70832"></polygon>
                        <polygon id="Shape" fill="#3A3A3A" points="145.001584 615.950665 92.4893278 616.629523 136.080147 539.805404"></polygon>
                        <polygon id="Shape" fill="#3F3F3F" points="145.001584 615.950665 136.080147 539.805404 182.381275 589.475195"></polygon>
                        <polygon id="Shape" fill="#333333" points="182.381275 589.475195 185.769163 553.156282 179.670965 516.724226 140.823189 514.461365 136.080147 539.805404"></polygon>
                        <polygon id="Shape" fill="#353535" points="185.769163 553.156282 194.238881 485.383606 179.670965 516.724226"></polygon>
                        <polygon id="Shape" fill="#3F3F3F" points="194.238881 485.383606 179.670965 516.724226 140.823189 514.461365 146.243809 483.912747 186.785529 478.255595"></polygon>
                        <polygon id="Shape" fill="#282828" points="194.238881 485.383606 186.785529 478.255595 187.124318 469.996154 195.481107 474.521875"></polygon>
                        <polygon id="Shape" fill="#282828" points="186.785529 478.255595 187.124318 469.996154 120.157075 460.605282 155.729894 470.901298"></polygon>
                        <polygon id="Shape" fill="#3A3A3A" points="146.243809 483.912747 94.1832716 484.365319 136.080147 539.805404 140.823189 514.461365"></polygon>
                        <polygon id="Shape" fill="#2D2D2D" points="8.92143699 540.144834 0.564647911 492.851046 61.094904 546.254557"></polygon>
                        <polygon id="Shape" fill="#383838" points="8.92143699 540.144834 52.173467 577.70832 92.4893278 616.629523 61.094904 546.254557"></polygon>
                        <polygon id="Shape" fill="#303030" points="92.4893278 616.629523 136.080147 539.805404 61.094904 546.254557"></polygon>
                        <polygon id="Shape" fill="#353535" points="61.094904 546.254557 94.1832716 484.365319 136.080147 539.805404"></polygon>
                        <polygon id="Shape" fill="#353535" points="0.564647911 492.851046 0 476.55845 13.6644794 471.014441 11.1800286 478.934453"></polygon>
                        <polygon id="Shape" fill="#303030" points="0.564647911 492.851046 11.1800286 478.934453 44.9459737 484.365319 61.094904 546.254557"></polygon>
                        <polygon id="Shape" fill="#333333" points="44.9459737 484.365319 61.094904 546.254557 94.1832716 484.365319"></polygon>
                        <polygon id="Shape" fill="#2B2B2B" points="13.6644794 471.014441 59.2880307 460.265853 59.2880307 468.977867 24.9574377 470.901298"></polygon>
                        <polygon id="Shape" fill="#2B2B2B" points="155.729894 470.901298 120.157075 460.605282 106.379666 456.532133 112.364934 468.864724"></polygon>
                        <polygon id="Shape" fill="#2D2D2D" points="83.6808204 458.229279 59.2880307 460.265853 59.2880307 468.977867 83.6808204 466.375577"></polygon>
                        <polygon id="Shape" fill="#262626" points="11.1800286 478.934453 13.6644794 471.014441 24.9574377 470.901298"></polygon>
                        <polygon id="Shape" fill="#191919" points="11.1800286 478.934453 24.9574377 470.901298 59.2880307 468.977867 44.9459737 484.365319"></polygon>
                        <polygon id="Shape" fill="#1C1C1C" points="44.9459737 484.365319 59.2880307 468.977867 83.6808204 466.375577 92.0376095 476.55845 94.1832716 484.365319"></polygon>
                        <polygon id="Shape" fill="#1E1E1E" points="94.1832716 484.365319 92.0376095 476.55845 112.364934 468.864724 146.243809 483.912747"></polygon>
                        <polygon id="Shape" fill="#1E1E1E" points="146.243809 483.912747 112.364934 468.864724 155.729894 470.901298 186.785529 478.255595"></polygon>
                        <polygon id="Shape" fill="#4CB543" points="83.6808204 466.375577 83.6808204 458.229279 86.7299191 412.066922 106.379666 456.532133 112.364934 468.864724 92.0376095 476.55845"></polygon>
                        <polygon id="Shape" fill="#62C15D" points="106.379666 456.532133 120.157075 460.605282 106.379666 377.784583 86.7299191 412.066922"></polygon>
                        <polygon id="Shape" fill="#559B4B" points="86.7299191 412.066922 88.4238629 319.742208 106.379666 377.784583"></polygon>
                        <polygon id="Shape" fill="#55894C" points="106.379666 377.784583 101.523694 269.732988 89.2143699 266.678126 88.4238629 319.742208"></polygon>
                        <polygon id="Shape" fill="#6CAF5F" points="89.2143699 266.678126 101.523694 269.732988 103.556427 201.50774"></polygon>
                        <polygon id="Shape" fill="#4BAA33" points="89.2143699 266.678126 103.556427 201.50774 90.9083137 189.062006"></polygon>
                        <polygon id="Shape" fill="#59A544" points="103.556427 201.50774 90.9083137 189.062006 93.9574124 134.187636"></polygon>
                        <polygon id="Shape" fill="#58A545" points="103.556427 201.50774 112.703723 116.197894 93.9574124 134.187636"></polygon>
                        <polyline id="Shape" fill="#65965A" points="93.9574124 134.187636 76.5849057 109.797933 97.9068396 95.8553387 112.703723 116.197894"></polyline>
                        <polygon id="Shape" fill="#5F9959" points="119.140709 462.415571 112.364934 468.864724 106.379666 456.532133 120.157075 460.605282"></polygon>
                        <polygon id="Shape" fill="#C1C1C1" points="97.9068396 95.8553387 108.350236 39.2135476 142.742992 43.7863533"></polygon>
                        <polygon id="Shape" fill="#9E9E9E" points="97.9068396 95.8553387 112.703723 116.197894 171.540035 116.989895"></polygon>
                        <polygon id="Shape" fill="#D3D3D3" points="97.9068396 95.8553387 142.742992 43.7863533 171.540035 116.989895"></polygon>
                        <polygon id="Shape" fill="#C6C6C6" points="108.350236 39.2135476 188.027754 0.452572127 142.742992 43.7863533"></polygon>
                        <polygon id="Shape" fill="#DDDDDD" points="142.742992 43.7863533 188.027754 0.452572127 226.197953 34.0560526"></polygon>
                        <polygon id="Shape" fill="#C4C4C4" points="142.742992 43.7863533 171.540035 116.989895 201.014656 76.8241186"></polygon>
                        <polygon id="Shape" fill="#CECECE" points="142.742992 43.7863533 201.014656 76.8241186 255.672574 70.2618227 226.197953 34.0560526"></polygon>
                        <polygon id="Shape" fill="#C4C4C4" points="226.197953 34.0560526 255.672574 70.2618227 243.814968 22.6286063"></polygon>
                        <polygon id="Shape" fill="#B2B2B2" points="243.814968 22.6286063 188.027754 0.452572127 226.197953 34.0560526"></polygon>
                        <polygon id="Shape" fill="#B7B7B7" points="171.540035 116.989895 227.553108 92.2115709 255.672574 70.2618227 201.014656 76.8241186"></polygon>
                        <polygon id="Shape" fill="#DDDDDD" points="243.814968 22.6286063 283.566181 59.7395208 255.672574 70.2618227"></polygon>
                        <polygon id="Shape" fill="#B7B7B7" points="283.566181 59.7395208 255.672574 70.2618227 227.553108 92.2115709 270.014631 97.3030073"></polygon>
                        <polygon id="Shape" fill="#A0A0A0" points="270.014631 97.3030073 227.553108 92.2115709 171.540035 116.989895"></polygon>
                    </g>
                    <g id="Group" transform="translate(108.748054, 87.696518) scale(-1, 1) rotate(-20.000000) translate(-108.748054, -87.696518) translate(15.248054, 29.196518)">
                        <polygon id="Shape" fill="#C1C1C1" points="0.813323629 95.5350586 10.3472722 38.7326994 46.1415768 43.7863533"></polygon>
                        <polygon id="Shape" fill="#9E9E9E" points="0.813323629 95.5350586 16.0869185 115.938805 74.9386203 116.989895"></polygon>
                        <polygon id="Shape" fill="#D3D3D3" points="0.813323629 95.5350586 46.1415768 43.7863533 74.9386203 116.989895"></polygon>
                        <polygon id="Shape" fill="#C6C6C6" points="10.3472722 38.7326994 91.4263393 0.452572127 46.1415768 43.7863533"></polygon>
                        <polygon id="Shape" fill="#DDDDDD" points="46.1415768 43.7863533 91.4263393 0.452572127 129.596538 34.0560526"></polygon>
                        <polygon id="Shape" fill="#C4C4C4" points="46.1415768 43.7863533 74.9386203 116.989895 104.413241 76.8241186"></polygon>
                        <polygon id="Shape" fill="#CECECE" points="46.1415768 43.7863533 104.413241 76.8241186 159.071159 70.2618227 129.596538 34.0560526"></polygon>
                        <polygon id="Shape" fill="#C4C4C4" points="129.596538 34.0560526 159.071159 70.2618227 147.213553 22.6286063"></polygon>
                        <polygon id="Shape" fill="#B2B2B2" points="147.213553 22.6286063 91.4263393 0.452572127 129.596538 34.0560526"></polygon>
                        <polygon id="Shape" fill="#B7B7B7" points="74.9386203 116.989895 130.951693 92.2115709 159.071159 70.2618227 104.413241 76.8241186"></polygon>
                        <polygon id="Shape" fill="#DDDDDD" points="147.213553 22.6286063 186.964766 59.7395208 159.071159 70.2618227"></polygon>
                        <polygon id="Shape" fill="#B7B7B7" points="186.964766 59.7395208 159.071159 70.2618227 130.951693 92.2115709 173.413216 97.3030073"></polygon>
                        <polygon id="Shape" fill="#A0A0A0" points="173.413216 97.3030073 130.951693 92.2115709 74.9386203 116.989895"></polygon>
                    </g>
                </g>
                <text id="[plant-#6]" font-family="Courier" font-size="48" font-weight="normal" fill="#C4C4C4">
                    <tspan x="1479.47656" y="965">[plant #6]</tspan>
                </text>
            </g>
        </g>
    </g>
</svg>