<?xml version="1.0" encoding="UTF-8"?>
<svg width="437px" height="145px" viewBox="0 0 437 145" version="1.1" xmlns="http://www.w3.org/2000/svg" xmlns:xlink="http://www.w3.org/1999/xlink">
    <!-- Generator: Sketch 41.2 (35397) - http://www.bohemiancoding.com/sketch -->
    <title>ars-icon-logo-ars-us</title>
    <desc>Created with Sketch.</desc>
    <defs></defs>
    <g id="Page-1" stroke="none" stroke-width="1" fill="none" fill-rule="evenodd">
        <g id="ars-icon-logo-ars-us">
            <circle id="Oval" fill="#FF4E00" cx="72.2" cy="72.2" r="72.2"></circle>
            <g id="Group" transform="translate(17.000000, 49.000000)" fill="#FFFFFF">
                <path d="M29.6,45.2 L28.7,39.3 C24.7075762,43.6874908 19.0317563,46.1615661 13.1,46.1 C5.1,46.1 0.1,41.3 0.1,33.8 C0.1,22.8 9.5,18.4 28,16.5 L28,14.6 C28,9 24.7,7.1 19.6,7.1 C14.5,7.1 9.1,8.8 4.3,10.9 L3.2,3.8 C8.5,1.7 13.5,0.1 20.3,0.1 C31,0.1 36.2,4.4 36.2,14.3 L36.2,45.2 L29.5,45.2 L29.6,45.2 Z M28,22.8 C11.7,24.4 8.3,28.8 8.3,33.4 C8.3,38 10.7,39.3 14.9,39.3 C19.1,39.3 24.3,36.9 28,33.1 L28,22.8 Z" id="Shape"></path>
                <path d="M55.4,19.1 L55.4,45.2 L47.2,45.2 L47.2,1.1 L53.8,1.1 L55.2,10.1 C58.3,5.1 63.4,0.6 70.7,0.2 L72,8.1 C64.6,8.4 58.4,13.3 55.4,19.1 Z" id="Shape"></path>
                <path d="M92.7,46.1 C87.0800213,45.9690763 81.5677601,44.5310951 76.6,41.9 L77.8,34.1 C82.3625446,37.3425442 87.8031529,39.1212046 93.4,39.2 C99,39.2 102.4,37.1 102.4,33.4 C102.4,29.7 99.9,27.8 91.9,25.9 C81.5,23.3 77.4,20.2 77.4,12.3 C77.4,4.4 83.3,0.1 93,0.1 C97.9898789,0.0756477187 102.929444,1.09762664 107.5,3.1 L106.2,10.9 C102.121329,8.53283102 97.5141373,7.22631395 92.8,7.1 C87.8,7.1 85.2,9 85.2,12.2 C85.2,15.4 87.4,16.8 94.4,18.6 C105.3,21.4 110.2,24.5 110.2,32.9 C110.2,41.3 104.1,46.1 92.7,46.1 Z" id="Shape"></path>
            </g>
            <g id="Group" transform="translate(151.000000, 50.000000)" fill="#FFFFFF">
                <path d="M68.3,33.9 C63.9,37.6 59.9,38.9 55.5,38.9 C47.8,38.9 42.8,33.6 42,24.9 L66.9,24.9 L67.8,19.4 L42,19.4 C42.8,10.7 47.7,5.3 54.9,5.3 C59.8,5.3 63.7,7 67.8,10.4 L68.8,4.5 C64.8092315,1.64137571 60.0085321,0.13458686 55.1,0.2 C44.4,0.2 35.9,8 35.9,22.1 C35.9,36.2 44.2,44 54.8,44 C59.9820851,44.1265707 65.0437713,42.4275432 69.1,39.2 L68.3,33.9 Z" id="Shape"></path>
                <polygon id="Shape" points="19.5 6.3 19.5 43.3 13.7 43.3 13.7 6.3 0.3 6.3 0.3 1 32.5 1 33.4 6.3"></polygon>
                <path d="M94.2,44 C82.3,44 74.7,35.2 74.7,22.2 C74.7,9.2 82.5,0.2 94.3,0.2 C98.5685675,0.075443101 102.767706,1.30019172 106.3,3.7 L105.4,9.6 C102.237093,7.00723138 98.2893248,5.56206624 94.2,5.5 C85.6,5.5 80.6,12 80.6,22.1 C80.6,32.2 85.7,38.7 94.2,38.7 C98.5146893,38.6137909 102.687067,37.1411868 106.1,34.5 L107,39.9 C103.256529,42.5505405 98.786788,43.9822544 94.2,44 Z" id="Shape"></path>
                <polygon id="Shape" points="141.7 43.2 141.7 23.7 120.3 23.7 120.3 43.2 114.5 43.2 114.5 1 120.3 1 120.3 18.5 141.7 18.5 141.7 1 147.5 1 147.5 43.2"></polygon>
                <polygon id="Shape" points="184.7 43.2 161.5 10.3 161.5 43.2 156.2 43.2 156.2 1 161.3 1 183.7 32.6 183.7 1 189 1 189 43.2"></polygon>
                <polygon id="Shape" points="198.1 43.2 198.1 1 203.9 1 203.9 43.2"></polygon>
                <path d="M230.8,44 C218.9,44 211.3,35.2 211.3,22.2 C211.3,9.2 219.1,0.2 230.9,0.2 C235.168568,0.075443101 239.367706,1.30019172 242.9,3.7 L242,9.6 C238.837093,7.00723138 234.889325,5.56206624 230.8,5.5 C222.2,5.5 217.2,12 217.2,22.1 C217.2,32.2 222.3,38.7 230.8,38.7 C235.114689,38.6137909 239.287067,37.1411868 242.7,34.5 L243.6,39.9 C239.856529,42.5505405 235.386788,43.9822544 230.8,44 Z" id="Shape"></path>
                <path d="M263.8,0.8 L269.6,0.8 L285.9,42.4 L280.3,43.6 L275.3,30.5 L257.9,30.5 L253.1,43.2 L247.3,43.2 L263.8,0.8 Z M259.8,25.5 L273.3,25.5 L266.5,7.6 L259.8,25.5 Z" id="Shape"></path>
            </g>
        </g>
    </g>
</svg>