<?xml version="1.0" encoding="UTF-8"?>
<svg width="248px" height="102px" viewBox="0 0 248 102" version="1.1" xmlns="http://www.w3.org/2000/svg" xmlns:xlink="http://www.w3.org/1999/xlink">
    <!-- Generator: Sketch 41.2 (35397) - http://www.bohemiancoding.com/sketch -->
    <title>Group</title>
    <desc>Created with Sketch.</desc>
    <defs></defs>
    <g id="Page-1" stroke="none" stroke-width="1" fill="none" fill-rule="evenodd">
        <g id="Group">
            <path d="M247.625,77.21875 L247.625,92.6875 C237.312448,98.3125281 225.406318,101.125 211.90625,101.125 C200.937445,101.125 191.632851,98.921897 183.992188,94.515625 C176.351524,90.109353 170.30471,84.0391012 165.851562,76.3046875 C161.398415,68.5702738 159.171875,60.20317 159.171875,51.203125 C159.171875,36.9061785 164.26948,24.8828612 174.464844,15.1328125 C184.660207,5.38276375 197.2343,0.5078125 212.1875,0.5078125 C222.500052,0.5078125 233.960874,3.20309805 246.570312,8.59375 L246.570312,23.7109375 C235.08588,17.1484047 223.85943,13.8671875 212.890625,13.8671875 C201.640569,13.8671875 192.300818,17.4179332 184.871094,24.5195312 C177.441369,31.6211293 173.726562,40.5155716 173.726562,51.203125 C173.726562,61.9844289 177.382776,70.8437153 184.695312,77.78125 C192.007849,84.7187847 201.359318,88.1875 212.75,88.1875 C224.65631,88.1875 236.281193,84.5312866 247.625,77.21875 Z" id="Path" fill="#FFFFFF"></path>
            <path d="M115.15625,100 L81.8984375,100 L81.8984375,1.7734375 L107.632812,1.7734375 C115.742228,1.7734375 122.07029,2.86327035 126.617188,5.04296875 C131.164085,7.22266715 134.632801,10.2226371 137.023438,14.0429688 C139.414074,17.8633004 140.609375,22.2812249 140.609375,27.296875 C140.609375,36.9531733 135.617237,43.8671666 125.632812,48.0390625 C132.804723,49.3984443 138.511698,52.3515398 142.753906,56.8984375 C146.996115,61.4453352 149.117188,66.8827809 149.117188,73.2109375 C149.117188,78.2265876 147.828138,82.7031053 145.25,86.640625 C142.671862,90.5781447 138.886744,93.7890501 133.894531,96.2734375 C128.902319,98.7578249 122.656287,100 115.15625,100 Z M109.109375,56.3359375 L95.9609375,56.3359375 L95.9609375,87.484375 L109.8125,87.484375 C117.500038,87.484375 122.71483,86.8867247 125.457031,85.6914062 C128.199232,84.4960878 130.402335,82.6328252 132.066406,80.1015625 C133.730477,77.5702998 134.5625,74.851577 134.5625,71.9453125 C134.5625,68.9452975 133.683603,66.2031374 131.925781,63.71875 C130.16796,61.2343626 127.671891,59.3828186 124.4375,58.1640625 C121.203109,56.9453064 116.093785,56.3359375 109.109375,56.3359375 Z M108.054688,14.2890625 L95.9609375,14.2890625 L95.9609375,43.8203125 L105.3125,43.8203125 C112.812538,43.8203125 118.144515,42.3906393 121.308594,39.53125 C124.472672,36.6718607 126.054688,32.9687727 126.054688,28.421875 C126.054688,18.9999529 120.054747,14.2890625 108.054688,14.2890625 Z" id="Combined-Shape" fill="#FFFFFF"></path>
            <path d="M34.0859375,100 L0.828125,100 L0.828125,1.7734375 L26.5625,1.7734375 C34.6719155,1.7734375 40.9999773,2.86327035 45.546875,5.04296875 C50.0937727,7.22266715 53.562488,10.2226371 55.953125,14.0429688 C58.343762,17.8633004 59.5390625,22.2812249 59.5390625,27.296875 C59.5390625,36.9531733 54.5469249,43.8671666 44.5625,48.0390625 C51.7344109,49.3984443 57.441385,52.3515398 61.6835938,56.8984375 C65.9258025,61.4453352 68.046875,66.8827809 68.046875,73.2109375 C68.046875,78.2265876 66.7578254,82.7031053 64.1796875,86.640625 C61.6015496,90.5781447 57.8164312,93.7890501 52.8242188,96.2734375 C47.8320063,98.7578249 41.585975,100 34.0859375,100 Z M28.0390625,56.3359375 L14.890625,56.3359375 L14.890625,87.484375 L28.7421875,87.484375 C36.4297259,87.484375 41.6445175,86.8867247 44.3867188,85.6914062 C47.12892,84.4960878 49.3320229,82.6328252 50.9960938,80.1015625 C52.6601646,77.5702998 53.4921875,74.851577 53.4921875,71.9453125 C53.4921875,68.9452975 52.61329,66.2031374 50.8554688,63.71875 C49.0976475,61.2343626 46.6015787,59.3828186 43.3671875,58.1640625 C40.1327963,56.9453064 35.0234724,56.3359375 28.0390625,56.3359375 Z M26.984375,14.2890625 L14.890625,14.2890625 L14.890625,43.8203125 L24.2421875,43.8203125 C31.742225,43.8203125 37.0742029,42.3906393 40.2382812,39.53125 C43.4023596,36.6718607 44.984375,32.9687727 44.984375,28.421875 C44.984375,18.9999529 38.984435,14.2890625 26.984375,14.2890625 Z" id="Combined-Shape" fill="#B43100"></path>
        </g>
    </g>
</svg>