<?xml version="1.0" encoding="UTF-8"?>
<svg width="913px" height="287px" viewBox="0 0 913 287" version="1.1" xmlns="http://www.w3.org/2000/svg" xmlns:xlink="http://www.w3.org/1999/xlink">
    <!-- Generator: Sketch 41.2 (35397) - http://www.bohemiancoding.com/sketch -->
    <title>economist</title>
    <desc>Created with Sketch.</desc>
    <defs></defs>
    <g id="Page-1" stroke="none" stroke-width="1" fill="none" fill-rule="evenodd">
        <g id="economist">
            <path d="M530.65,191.07 L565.33,187.07 L566.25,203.84 C568.08,202.26 569.36,201.19 570.59,200.07 C578.43,192.99 587.07,187.68 598.09,187.59 C608.24,187.51 615.97,191.95 621.67,200.16 C622.78,201.76 623.78,203.45 624.91,205.22 C629.44,201.41 633.49,197.48 638.05,194.27 C645.63,188.93 654.05,186.36 663.5,187.97 C675.12,189.97 682.35,196.57 684.71,208.13 C685.52893,212.196709 685.960858,216.331839 686,220.48 C686.15,235.48 685.93,250.48 686.11,265.48 C686.23,275.42 688.97,280.09 698.65,280.48 C699.82,280.48 700.93,282.18 702.07,283.09 L701.33,284.25 L651.71,284.25 C653.63,282.25 654.51,280.54 655.71,280.25 C661.43,279 663.88,275.25 663.9,269.87 C663.98,252.06 663.9,234.25 663.75,216.45 C663.677103,214.9422 663.425339,213.448399 663,212 C660.67,202.69 656.13,198.5 648.28,198.34 C639.54,198.16 631.28,203.6 629.12,211.52 C627.928978,215.829741 627.274034,220.269924 627.17,224.74 C626.936667,239.553333 626.936667,254.366667 627.17,269.18 C627.29,276.65 628.59,277.77 635.58,280.18 C636.92,280.64 637.96,281.97 639.14,282.91 L638.45,284.12 L591.94,284.12 C593.73,282.27 594.62,280.51 595.83,280.24 C601.59,278.99 604.47,275.73 604.42,269.79 C604.28,252.49 604.69,235.16 603.92,217.88 C603.32,204.32 597.68,198.29 587.92,198.33 C576.499767,198.513557 567.303145,207.758956 567.18,219.18 C566.78,235.66 567.18,252.18 567.25,268.65 C567.25,274.85 569.55,279.23 576.32,280.35 C577.44,280.54 578.32,282.18 580.32,284.12 L530.58,284.12 L529.74,283.12 C530.9,282.22 531.95,280.75 533.22,280.51 C542.69,278.78 544.64,277.28 544.8,267.66 C545.126667,247.66 545.126667,227.66 544.8,207.66 C544.65,198.45 542.18,196.47 533.28,195.22 C531.96,195.03 530.82,193.56 529.6,192.68 L530.65,191.07 Z" id="Shape" fill="#FFFFFF"></path>
            <path d="M44,218.09 C44,235.28 43.93,251.4 44,267.51 C44,271.66 45.88,274.34 50.66,274.41 C58.58,274.54 66.57,275.86 74.39,275.12 C84.84,274.12 89.07,269.3 91.15,258.98 C91.51,257.2 91.79,255.4 92.15,253.38 L99.15,253.38 L95.08,284.2 L1,284.2 L0,283.06 C1.2,282.06 2.36,280.24 3.6,280.19 C13.84,279.74 19,276.33 19,262.07 L19,170.61 L19,169.61 C18.86,158 15.85,154.53 4.49,152.65 C0.94,152.06 0.94,152.06 0.73,148.52 L90,148.52 L90,175.92 C85.64,177.26 83.51,176.03 82.83,171.03 C81.57,161.84 79.58,160.33 70.33,159.4 L44.33,156.77 L44.33,209.33 C53.61,209.33 62.85,209.54 72.07,209.24 C76.54,209.09 79.26,206.1 80.2,201.71 C80.79,198.96 81.2,196.17 81.76,193.14 L86.92,193.14 L86.92,234.33 C83.29,235.62 81.59,234.89 80.99,230.95 C79.51,221.18 76.71,218.58 66.99,218.15 C59.42,217.82 51.77,218.09 44,218.09 Z" id="Shape" fill="#B43100"></path>
            <path d="M302,282.42 C303.43,281.74 304.8,280.66 306.3,280.42 C314.3,279.21 316.51,277.82 316.68,269.75 C317.12,248.416667 317.12,227.103333 316.68,205.81 C316.52,197.81 314.12,196.34 305.62,195.22 C304.31,195.05 303.16,193.62 301.94,192.78 L302.59,191.13 L337.19,187 L338.58,203.66 C342.58,200.36 345.84,197.36 349.41,194.77 C361.57,185.96 377.85,185 388.35,192.2 C395.35,197.03 398.72,204.2 399.04,212.2 C399.706667,229.66 399.943333,247.133333 399.75,264.62 C399.65,274.4 401.61,280.18 412.09,280.44 C413.27,280.44 414.41,281.94 415.58,282.73 L414.87,284.13 L365.43,284.13 C366.94,282.35 367.66,280.66 368.81,280.29 C375.81,278.01 377.11,277.24 377.21,269.87 C377.45,252.4 377.58,234.87 376.91,217.45 C376.4,204.11 370.91,198.45 360.54,198.37 C349.7,198.37 339.46,207.16 339.25,218.16 C338.92,235.47 339.56,252.79 339.81,270.16 C339.89,275.74 342.53,279.16 348.17,280.29 C349.45,280.55 350.5,281.92 351.66,282.77 L350.93,284.14 L302.83,284.14 L302,282.42 Z" id="Shape" fill="#FFFFFF"></path>
            <path d="M464.12,117.39 C465.532132,116.814185 466.874109,116.079453 468.12,115.2 C469.84,113.69 472.57,111.89 472.62,110.14 C473.13,93.71 473.88,77.23 473.07,60.84 C472.51,49.46 467.64,45.84 458.13,46.38 C449.195215,46.9062222 442.198755,54.2699968 442.13,63.22 C441.83,77.22 442.05,91.22 442.18,105.22 C442.18,110.29 443.18,114.99 449.56,115.84 C450.16226,116.062524 450.682141,116.463774 451.05,116.99 C451.147786,117.478488 451.147786,117.981512 451.05,118.47 L411.76,118.47 L411.54,117 C412.91239,116.584514 414.308163,116.250597 415.72,116 C420.16,115.45 422.63,112.89 423.21,108.59 C423.675675,105.293125 423.926205,101.969429 423.96,98.64 C424.02,73.8133333 424.02,48.9866667 423.96,24.16 C423.908296,21.1493405 423.681245,18.1442497 423.28,15.16 C422.74,10.62 420.92,7.29 415.67,6.82 C414.43,6.71 413.32,5.21 412.15,4.35 L412.54,3.02 L442,0 L442,50.24 C444.56,48.02 446.21,46.63 447.83,45.18 C454.41,39.25 462,36.06 471,37 C482.46,38.2 489.82,44.31 490.92,55.73 C492.07,67.62 491.73,79.66 492.03,91.63 C492.16,96.63 491.91,101.63 492.45,106.63 C493.23,113.71 494.72,114.93 501.73,116.19 C502.804192,116.453431 503.85982,116.787491 504.89,117.19 L504.62,118.52 L464.59,118.52 L464.12,117.39 Z" id="Shape" fill="#FFFFFF"></path>
            <path d="M382.39,118.71 L332.21,118.71 L331.61,117.53 C332.67,116.8 333.71,115.44 334.78,115.42 C345.72,115.24 346.46,109.26 346.78,101.29 C347.12,92.81 346.88,84.29 346.88,75.81 L346.88,16.81 L346.88,10.63 C337.43,10.86 328.16,9.72 319.63,13.34 C316.93,14.49 315.33,18.71 313.72,21.78 C312.85,23.44 313.02,25.64 312.66,28 L308.16,27.75 L308.16,3.75 L405.23,3.75 C405.23,11.09 405.39,18.36 405.06,25.62 C405.06,26.73 402.75,27.73 401.49,28.81 C401.008879,28.3316016 400.595084,27.7899675 400.26,27.2 C398.4,13.88 396.44,12 382.85,11.13 C378.08,10.84 373.28,11.13 368,11.13 C367.92,12.88 367.77,14.64 367.77,16.41 L367.77,99.87 C367.766156,101.700601 367.862969,103.530029 368.06,105.35 C368.85,112.48 371,114.51 378.06,115.35 C379.757192,115.721632 381.412325,116.264408 383,116.97 L382.39,118.71 Z" id="Shape" fill="#FFFFFF"></path>
            <path d="M777.31,262.45 L785.79,262.45 C787.46,266.22 788.87,270.15 790.88,273.73 C793.93,279.15 802.34,281.09 810.76,278.73 C816.42,277.13 819.26,273.66 819.29,267.92 C819.32,262.18 815.78,257.79 811.62,254.5 C805.11,249.37 798.15,244.82 791.24,240.23 C777.45,231.06 773.24,212.67 782.24,199.48 C788.34,190.48 797.45,187.04 807.75,187.7 C816.34,188.25 824.83,190.27 833.75,191.7 L833.75,209.77 L825.16,210.58 C824.48,208.44 823.89,206.58 823.32,204.74 C819.59,192.74 806.48,189.16 797.1,197.59 C793.158119,201.037433 792.348569,206.85767 795.2,211.25 C798.148562,215.411621 801.716511,219.097603 805.78,222.18 C812.4,227.44 819.62,231.94 826.34,237.09 C839.7,247.32 839.79,267.38 826.76,278.29 C816.55,286.83 804.9,287.97 792.41,285.29 C777.12,282.01 776.76,281.6 777.01,265.94 C777.05,265 777.18,264 777.31,262.45 Z" id="Shape" fill="#FFFFFF"></path>
            <path d="M862.94,201 L850.74,201 L850.74,193.32 C850.979225,193.073726 851.269305,192.882615 851.59,192.76 C865.29,192.02 872.04,183.55 874.7,171.24 C875.89,165.72 878.46,164.11 884.18,165.78 L884.18,191.15 L908.67,191.15 C907.96,193.77 907.76,196 906.75,197.78 C905.98,199.14 904.25,200.78 902.87,200.83 C896.87,201.16 890.92,200.97 885.24,200.97 C884.884942,201.314033 884.59674,201.720908 884.39,202.17 C884.64,222.47 884.54,242.78 885.39,263.06 C885.8,273.32 891.04,277.29 901.49,277.26 C904.63,277.26 907.77,276.87 912.28,276.58 C911.1,278.58 910.58,280.86 909.28,281.48 C901,285.38 892.19,287.18 883.08,285.82 C872.86,284.3 866.28,277.87 864.48,267.66 C863.54178,262.256095 863.046799,256.784547 863,251.3 C862.83,234.83 862.94,218.36 862.94,201 Z" id="Shape" fill="#FFFFFF"></path>
            <path d="M179,265.5 L181.8,270.86 C170.13,283.25 156.2,289.47 139.23,285.49 C121.61,281.36 112.09,268.84 108.23,251.89 C105.682901,240.956605 106.051875,229.546 109.3,218.8 C115.51,198.15 132.03,186.25 153.59,187.46 C160.85,187.87 168.08,189.46 175.23,190.93 C177.058987,191.617792 178.426813,193.169244 178.88,195.07 C179.3,201.07 179.05,207.07 179.05,213.53 L170.96,214.24 C170.21,211.3 169.51,208.58 168.84,205.86 C167.29,199.66 164.37,194.62 157.42,193.55 C149.42,192.32 142.07,193.34 136.84,200.41 C131.77,207.27 130.61,215.34 130.14,223.53 C129.47,235.38 129.64,247.2 133.5,258.59 C139.5,276.24 156.5,281.75 171.86,271.11 C174.14,269.53 176.27,267.64 179,265.5 Z" id="Shape" fill="#FFFFFF"></path>
            <path d="M710.33,191.11 L747,187 L747,192.74 L747,262.17 C746.977044,264.846497 747.157564,267.520867 747.54,270.17 C748.85,278.61 749.69,279.26 758.19,280.46 C759.64,280.66 760.94,281.91 762.31,282.68 L761.7,284.17 L710.66,284.17 L709.78,283.24 C710.78,282.33 711.71,280.85 712.87,280.62 C722.7,278.62 723.87,278.35 724.05,268.15 C724.5,247.21 724.28,226.25 723.88,205.31 C723.74,198 721.33,196.31 713.98,195.37 C712.41,195.16 710.98,193.97 709.46,193.23 L710.33,191.11 Z" id="Shape" fill="#FFFFFF"></path>
            <path d="M747.31,154.74 C747.31,162.14 742.13,167.17 734.63,167.05 C727.82,166.94 722.04,161.26 722.11,154.74 C722.18,147.58 727.63,142.51 735.11,142.6 C742.59,142.69 747.31,147.36 747.31,154.74 Z" id="Shape" fill="#FFFFFF"></path>
            <path d="M270.68,196.69 C252.26,182.82 221.36,184.69 206.38,200.82 C196.51,211.45 193.63,224.51 193.71,238.62 C193.9,270.87 219.31,291.89 251.04,285.86 C275.04,281.3 289.49,262.75 289.4,236.63 C289.37,220.41 284,206.71 270.68,196.69 Z M263.11,264.55 C260.62,273.13 255.26,279.83 245.53,280.73 C235.8,281.63 228.84,276.73 224.53,268.37 C222.229382,263.954628 220.546952,259.243824 219.53,254.37 C216.71,240.09 215.33,225.66 218.85,211.29 C221.9,198.82 229.38,193.12 240.85,194 C247.13,194.48 251.66,197.92 255.33,202.74 C263.48,213.45 265.66,225.95 266.18,238.94 L266.18,242.44 L266.97,242.57 C265.76,249.89 265.17,257.43 263.11,264.55 Z" id="Shape" fill="#FFFFFF"></path>
            <path d="M498.29,196.41 C478.92,182.5 448.72,184.83 433.68,201.41 C424.32,211.73 421.82,224.55 421.82,238.04 C421.63,255.81 427.5,269.39 439.71,277.72 C456.1,288.9 473.77,289.6 491.45,281.72 C508.54,274.06 515.88,259.26 516.95,241.3 C518.02,223.34 513.65,207.44 498.29,196.41 Z M490.79,264.56 C487,278.41 475.57,284 464,279.51 C458.07,277.21 454.3,272.68 451.61,267.13 C445.87,255.29 445.23,242.47 444.23,226.13 C444.92,222.33 445.75,215.05 447.63,208.04 C449.63,200.68 454.41,195.43 462.35,194.1 C470.84,192.67 477.75,195.59 482.89,202.49 C490.055091,211.821313 493.923641,223.265188 493.89,235.03 C493.83,244.93 493.37,255.14 490.79,264.56 Z" id="Shape" fill="#FFFFFF"></path>
            <path d="M577,107 C567.67,114 554.67,114.81 547.36,108.17 C537.31,99 536,86.73 535.79,73.37 L587.11,73.37 C586.74,70.06 586.53,67.43 586.11,64.84 C581.61,33.38 549.51,31.57 534.11,43.19 C521.11,53.01 516.34,66.89 516.98,82.76 C517.53,96.47 522.32,108.36 534.52,115.66 C550.58,125.28 571.37,121.66 585.47,104.83 C586.11,104.06 585.47,102.18 585.31,99.77 C581.81,102.88 579.53,105.07 577,107 Z M549.7,42.11 C560.64,40.84 568.17,49.24 569.7,65.78 L536.27,68 C534.75,56.48 541,43.12 549.7,42.11 Z" id="Shape" fill="#FFFFFF"></path>
        </g>
    </g>
</svg>