<?xml version="1.0" encoding="UTF-8"?>
<svg width="1535px" height="334px" viewBox="0 0 1535 334" version="1.1" xmlns="http://www.w3.org/2000/svg" xmlns:xlink="http://www.w3.org/1999/xlink">
    <!-- Generator: Sketch 41.2 (35397) - http://www.bohemiancoding.com/sketch -->
    <title>Group</title>
    <desc>Created with Sketch.</desc>
    <defs></defs>
    <g id="Page-1" stroke="none" stroke-width="1" fill="none" fill-rule="evenodd">
        <g id="Group">
            <path d="M1211.35464,242.31633 C1211.35464,258.466863 1228.51597,271.592463 1244.66664,271.592463 L1362.7733,271.592463 L1362.7733,241.305397 L1241.63997,241.305397 L1241.63997,211.024197 L1364.79997,211.024197 C1380.94663,211.024197 1393.0533,197.898864 1393.0533,181.748198 L1393.0533,182.758865 L1393.0533,123.1962 C1393.0533,107.045533 1380.94663,90.8935342 1364.79997,90.8935342 L1244.66664,90.8935342 C1228.51597,90.8935342 1211.35464,107.045533 1211.35464,123.1962 L1211.35464,242.31633 Z M1362.7733,181.606601 L1241.63997,181.606601 L1241.63997,121.038603 L1362.7733,121.038603 L1362.7733,181.606601 Z" id="Combined-Shape" fill="#FFFFFF"></path>
            <path d="M959.415996,90.853331 L842.317333,90.853331 C826.166666,90.853331 808,107.005331 808,123.155997 L808,243.281461 L808,242.270528 C808,258.421061 826.166666,272.557593 842.317333,272.557593 L989.702662,272.557593 L989.702662,0 L959.415996,0 L959.415996,90.853331 Z M959.415996,242.848798 L838.281333,242.848798 L838.281333,121.712934 L959.415996,121.712934 L959.415996,242.848798 Z" id="Combined-Shape" fill="#FFFFFF"></path>
            <path d="M1020,243.42813 C1020,259.578663 1029.08266,272.704262 1045.24,272.704262 L1161.32799,272.704262 L1161.32799,302.985462 L1050.28666,302.985462 L1050.28666,333.271932 L1165.36399,333.271932 C1181.51599,333.271932 1191.60933,319.135995 1191.60933,301.974529 L1191.60933,302.985462 L1191.60933,123.302666 C1191.60933,107.152 1181.51599,91 1165.36399,91 L1045.24,91 C1029.08266,91 1020,107.152 1020,123.302666 L1020,243.42813 Z M1161.32799,242.281129 L1050.28666,242.281129 L1050.28666,121.145265 L1161.32799,121.145265 L1161.32799,242.281129 Z" id="Combined-Shape" fill="#FFFFFF"></path>
            <polygon id="path14-path" fill="#FFFFFF" transform="translate(1473.566665, 136.278797) scale(1, -1) translate(-1473.566665, -136.278797) " points="1443.28 272.557593 1413 272.557593 1413 0 1443.28 0 1443.28 151.42293 1534.13333 151.42293 1534.13333 181.704262 1443.28 181.704262"></polygon>
            <path d="M757.098648,121.1806 L635.963984,121.1806 L635.963984,211.024465 C635.963984,227.175131 652.11465,243.325797 669.275983,243.325797 L757.098648,243.325797 L757.098648,91.9044675 L787.37998,91.9044675 L787.37998,240.295131 C787.37998,256.445797 775.265314,272.597797 759.114648,272.597797 L669.275983,272.597797 C635.963984,272.597797 605.677318,243.325797 605.677318,210.013798 L605.677318,120.169667 C605.677318,104.019134 622.838651,90.8935342 638.989317,90.8935342 L691.483983,90.8935342 C718.739982,90.8935342 747.005315,101.997801 757.098648,121.1806 L757.098648,90.8935342 L757.098648,121.1806 Z" id="path14-path" fill="#FFFFFF" transform="translate(696.528649, 181.745665) scale(1, -1) translate(-696.528649, -181.745665) "></path>
            <path d="M323.026659,272.597797 L233.187994,272.597797 C217.035995,272.597797 201.890662,256.445797 201.890662,240.295131 L201.890662,90.8935342 L232.177328,90.8935342 L232.177328,242.316464 L323.026659,242.316464 C339.177325,242.316464 353.311991,227.175131 353.311991,210.013798 L353.311991,90.8935342 L383.593324,90.8935342 L383.593324,210.013798 C383.593324,243.325797 356.338658,272.597797 323.026659,272.597797 Z" id="path14-path" fill="#FFFFFF" transform="translate(292.741993, 181.745665) scale(1, -1) translate(-292.741993, -181.745665) "></path>
            <path d="M556.426662,91 L436.301332,91 C420.150666,91 404,107.152 404,123.302666 L404,243.42813 L404,242.417197 C404,258.567729 420.150666,272.704262 436.301332,272.704262 L555.415996,272.704262 L555.415996,302.985462 L434.281332,302.985462 L434.281332,333.271932 L556.426662,333.271932 C572.577329,333.271932 585.702662,319.135995 585.702662,302.985462 L585.702662,123.302666 C585.702662,107.152 572.577329,91 556.426662,91 Z M555.348007,242.67466 L434.213343,242.67466 L434.213343,121.538797 L555.348007,121.538797 L555.348007,242.67466 Z" id="Combined-Shape" fill="#FFFFFF"></path>
            <path d="M0,242.31633 C0,258.466863 13.1255197,271.592463 30.2863992,271.592463 L151.42133,271.592463 L151.42133,241.305397 L30.2863992,241.305397 L30.2863992,211.024197 L149.40133,211.024197 C165.551996,211.024197 181.702662,197.898864 181.702662,181.748198 L181.702662,182.758865 L181.702662,123.1962 C181.702662,107.045533 166.562663,90.8935342 149.40133,90.8935342 L30.2863992,90.8935342 C14.1306663,90.8935342 0,107.045533 0,123.1962 L0,242.31633 Z M151.42133,181.606601 L30.2863992,181.606601 L30.2863992,121.038603 L151.42133,121.038603 L151.42133,181.606601 Z" id="Combined-Shape" fill="#5F72D3"></path>
        </g>
    </g>
</svg>