<?xml version="1.0" encoding="UTF-8"?>
<svg width="576px" height="115px" viewBox="0 0 576 115" version="1.1" xmlns="http://www.w3.org/2000/svg" xmlns:xlink="http://www.w3.org/1999/xlink">
    <!-- Generator: Sketch 41.2 (35397) - http://www.bohemiancoding.com/sketch -->
    <title>Group</title>
    <desc>Created with Sketch.</desc>
    <defs></defs>
    <g id="Page-1" stroke="none" stroke-width="1" fill="none" fill-rule="evenodd">
        <g id="Group">
            <polygon id="Path" fill="#FFFFFF" points="528.08 1.968 504.464 6.144 504.464 114 528.08 114 528.08 78.288 528.224 78.288 549.68 114 575.168 114 551.696 74.4 575.168 37.248 549.68 37.248 528.224 71.088 528.08 71.088"></polygon>
            <path d="M495.392,54.528 C490.784,42.432 480.704,36.096 464.144,36.096 L461.84,36.096 C456.8,36.096 452.48,36.96 448.016,38.256 C435.056,42.432 428.576,52.08 428.576,67.056 L428.576,83.904 C428.576,90.24 429.728,95.424 431.888,99.6 C436.64,109.824 447.008,115.008 462.704,115.008 C470.048,115.008 476.24,113.856 481.424,111.696 C491.936,107.088 497.264,97.44 497.264,82.608 L497.264,68.496 C497.264,63.024 496.688,58.416 495.392,54.528 Z M473.648,67.632 L473.648,83.328 C473.648,85.488 473.504,86.928 473.504,88.224 C472.208,92.976 468.752,95.424 463.28,95.424 L462.704,95.424 C455.792,95.424 452.336,92.112 452.336,85.488 L452.336,66.192 C452.336,64.032 452.624,62.592 453.056,61.296 C454.784,57.84 457.808,56.112 461.984,56.112 L463.856,56.112 C465.584,56.112 467.168,56.256 468.464,56.976 C471.92,57.984 473.648,61.584 473.648,67.632 Z" id="Combined-Shape" fill="#FFFFFF"></path>
            <path d="M422.672,54.528 C418.064,42.432 407.984,36.096 391.424,36.096 L389.12,36.096 C384.08,36.096 379.76,36.96 375.296,38.256 C362.336,42.432 355.856,52.08 355.856,67.056 L355.856,83.904 C355.856,90.24 357.008,95.424 359.168,99.6 C363.92,109.824 374.288,115.008 389.984,115.008 C397.328,115.008 403.52,113.856 408.704,111.696 C419.216,107.088 424.544,97.44 424.544,82.608 L424.544,68.496 C424.544,63.024 423.968,58.416 422.672,54.528 Z M400.928,67.632 L400.928,83.328 C400.928,85.488 400.784,86.928 400.784,88.224 C399.488,92.976 396.032,95.424 390.56,95.424 L389.984,95.424 C383.072,95.424 379.616,92.112 379.616,85.488 L379.616,66.192 C379.616,64.032 379.904,62.592 380.336,61.296 C382.064,57.84 385.088,56.112 389.264,56.112 L391.136,56.112 C392.864,56.112 394.448,56.256 395.744,56.976 C399.2,57.984 400.928,61.584 400.928,67.632 Z" id="Combined-Shape" fill="#FFFFFF"></path>
            <path d="M346.64,46.752 C343.328,39.696 334.976,36.096 321.296,36.096 C317.408,36.096 310.784,36.816 304.304,38.976 L304.304,1.968 L280.688,6.144 L280.688,111.84 C292.064,114 302.432,115.008 312.08,115.008 C326.048,115.008 335.84,112.272 341.6,106.944 C344.336,104.208 346.064,101.76 346.64,99.888 C348.512,96.864 349.376,89.088 349.376,76.704 L349.376,69.072 C349.376,57.264 348.512,49.776 346.64,46.752 Z M325.616,64.752 L325.616,84.336 C325.616,86.208 325.472,87.648 325.04,88.944 C323.888,93.408 319.856,95.568 313.088,95.568 L311.216,95.568 L304.304,95.136 L304.304,59.28 C307.904,57.12 311.648,56.112 315.392,56.112 L318.992,56.112 C323.456,57.12 325.616,60 325.616,64.752 Z" id="Combined-Shape" fill="#FFFFFF"></path>
            <path d="M268.16,51.504 C263.408,41.136 253.04,35.952 237.2,35.952 C231.584,35.952 226.4,36.672 221.072,38.4 C209.696,42.864 204.08,51.792 204.08,65.328 L204.08,83.76 C204.08,88.512 204.944,93.264 206.816,97.872 C211.712,109.248 222.656,115.008 239.504,115.008 C245.984,115.008 251.888,114.72 256.928,114.144 C264.992,112.848 269.024,112.128 269.024,111.84 L269.024,92.544 L268.88,92.544 C259.808,94.416 251.168,95.28 242.96,95.28 L241.088,95.28 C237.2,95.28 234.752,94.848 232.592,94.272 C229.424,93.12 227.84,89.952 227.84,84.768 L227.84,82.464 L270.896,82.464 L270.896,68.784 C270.896,61.44 270.032,55.68 268.16,51.504 Z M247.136,65.184 L247.136,66.48 L227.84,66.48 L227.84,62.88 C227.84,56.976 230.576,53.952 237.344,53.952 C239.792,53.952 241.952,54.528 243.68,55.68 C245.984,56.688 247.136,59.856 247.136,65.184 Z" id="Combined-Shape" fill="#FFFFFF"></path>
            <path d="M169.376,36.24 C154.832,36.24 144.752,40.992 139.136,50.496 C136.256,54.528 134.816,62.016 134.816,72.96 L134.816,78.144 C134.816,87.216 135.68,93.552 137.408,97.296 C142.448,109.104 153.104,115.008 169.376,115.008 C173.84,115.008 177.728,114.72 181.04,114.288 C189.536,112.992 193.712,112.128 193.712,111.696 L193.712,92.688 L193.568,92.688 C184.208,94.416 177.584,95.424 173.408,95.424 L171.68,95.424 C166.064,95.424 162.32,94.272 160.592,92.112 C159.152,90.96 158.432,87.216 158.432,80.736 L158.432,70.944 C158.432,63.888 159.296,59.856 160.88,58.848 C162.752,56.976 166.496,55.968 172.112,55.968 C176.864,55.968 185.216,56.976 193.712,58.56 L193.712,39.408 C185.216,37.248 177.152,36.24 169.376,36.24 Z" id="Path" fill="#FFFFFF"></path>
            <path d="M122.144,48.624 C118.544,41.136 109.184,37.392 94.064,37.392 L70.304,37.392 L68.144,56.976 L90.32,56.976 C94.496,56.976 97.52,57.552 99.248,58.848 C100.832,59.712 101.552,62.736 101.552,68.064 L101.552,70.656 L90.464,70.656 C79.664,70.656 72.896,71.52 70.16,73.392 C63.68,76.416 60.368,82.464 60.368,91.824 L60.368,92.4 C60.368,97.728 61.808,102.48 64.544,106.656 C68.72,112.128 74.336,114.864 81.392,114.864 L83.408,114.864 C90.752,114.864 97.664,112.848 104.576,109.248 C104.72,110.4 104.864,111.552 105.296,112.56 C105.44,112.992 105.584,113.568 105.728,114 L125.312,114 L125.312,66.768 C125.312,59.136 124.304,53.088 122.144,48.624 Z M101.552,86.352 L101.552,94.992 C97.376,96.864 93.632,98.16 90.608,98.16 C86.288,98.16 84.128,96 84.128,91.824 C84.128,89.808 84.56,88.512 85.28,87.792 C86.288,86.784 89.024,86.352 93.632,86.352 L101.552,86.352 Z" id="Combined-Shape" fill="#FFFFFF"></path>
            <path d="M35.456,0.384 C31.856,0.384 28.4,0.816 24.368,2.4 C16.16,5.712 11.984,13.488 11.984,25.584 L11.984,37.392 L0.464,37.392 L0.464,57.12 L11.984,57.12 L11.984,114 L35.456,114 L35.456,57.12 L51.44,57.12 L53.6,37.392 L35.456,37.392 L35.456,28.464 C35.456,25.728 35.744,23.712 36.464,22.56 C37.472,20.832 39.488,19.968 42.656,19.968 L53.312,19.968 L53.312,0.384 L35.456,0.384 Z" id="Path" fill="#5F72D3"></path>
        </g>
    </g>
</svg>