<?xml version="1.0" encoding="UTF-8"?>
<svg width="314px" height="97px" viewBox="0 0 314 97" version="1.1" xmlns="http://www.w3.org/2000/svg" xmlns:xlink="http://www.w3.org/1999/xlink">
    <!-- Generator: Sketch 41.2 (35397) - http://www.bohemiancoding.com/sketch -->
    <title>Group</title>
    <desc>Created with Sketch.</desc>
    <defs></defs>
    <g id="Page-1" stroke="none" stroke-width="1" fill="none" fill-rule="evenodd">
        <g id="Group">
            <path d="M82.1,14.7 C79.1,17.6 76.3,20.2 73.2,23 C66.9,16.5 59.1,12.7 49.8,12.3 C41.1,12 33.2,14.6 26.3,20 C14,29.3 9.5,48.3 16,63.6 C22.2,78.2 37.9,86.6 54.8,84.2 C68.9,82.2 79.4,71.2 80.8,56.5 L48.3,56.5 L48.3,44.6 L92.4,44.6 C95.8,52.2 93.9,60.1 91.3,67.4 C85,85.6 71.7,94.6 52.6,96.4 C32.6,98.2 13.8,87.8 5.5,71 C-9.2,41.7 6.7,5.6 41.4,0.6 C56.7,-1.6 70.7,2.5 82.1,14.7 Z" id="Shape" fill="#FFFFFF"></path>
            <path d="M155.3,40.4 C162.6,30.5 172.3,27.6 183.4,29.8 C193.1,31.8 199.2,39.3 199.7,50.9 C200.4,65.2 199.9,79.5 199.9,94 L187.1,94 L187.1,88.7 C187.1,77 187.1,65.4 187,53.7 C186.9,48.4 185.1,43.9 179.9,41.7 C174.5,39.4 167.3,41.2 163.6,45.5 C159.7,50 158.1,55.3 158,61 C157.9,71.8 158,82.6 158,93.8 L146,93.8 C146,84.6 146.1,75.4 146,66.1 C145.9,61 145.7,55.8 145,50.8 C143.3,39.4 130.1,38.7 124.2,43.5 C119.5,47.4 116.9,52.4 116.9,58.7 L116.9,93.9 L104.4,93.9 L104.4,31.6 L115.8,31.6 C115.9,33.5 116,35.5 116.2,38.1 C122.2,32.9 128.2,28.9 136.4,29.1 C144.8,29.5 151,32.7 155.3,40.4 Z" id="Shape" fill="#B43100"></path>
            <path d="M264.9,94 L253.1,94 C253,91.8 252.9,89.9 252.8,87 C247.6,93.1 241.6,96.3 234.4,96.7 C225.4,97.2 213.3,94 209.9,82.3 C206.6,71 209.7,62.7 219.7,56.9 C228.2,52 238.8,51.8 252.4,55.8 C253.3,49.4 250,44.2 243.5,41.8 C235.4,38.8 227.5,41.5 222.3,49.6 C218.7,48.1 215,46.6 211,45 C213,38.8 217.1,34.8 222.4,32.3 C233.1,27.3 244,27.5 254.2,33.8 C261.3,38.2 264.8,45 264.9,53.4 C265,66.9 264.9,80.4 264.9,94 Z M234.6,85.3 C228.5,85.4 222.7,81.6 222,77 C221.2,72 224.9,66.9 230.9,64.9 C237.4,62.7 243.8,63.6 250.1,65.9 C252.9,66.9 253.4,68.7 252.7,71.4 C250.8,78.5 242.1,85.2 234.6,85.3 Z" id="Combined-Shape" fill="#FFFFFF"></path>
            <path d="M313.6,94.2 L301.5,94.2 L301.5,2.7 L313.6,2.7 L313.6,94.2 Z" id="Shape" fill="#FFFFFF"></path>
            <path d="M289.5,94 C288.6,94.1 287.8,94.2 287,94.3 L277.3,94.3 L277.3,31.6 L289.5,31.6 L289.5,94 Z" id="Shape" fill="#FFFFFF"></path>
            <path d="M283.2,18.3 C278.2,18.3 274.2,14.6 274.2,9.9 C274.2,5.3 278.4,1.3 283.2,1.3 C288.4,1.3 292,4.8 292,9.9 C291.9,15.2 288.7,18.3 283.2,18.3 Z" id="Shape" fill="#FFFFFF"></path>
        </g>
    </g>
</svg>