<?xml version="1.0" encoding="UTF-8"?>
<svg width="345px" height="135px" viewBox="0 0 345 135" version="1.1" xmlns="http://www.w3.org/2000/svg" xmlns:xlink="http://www.w3.org/1999/xlink">
    <!-- Generator: Sketch 41.2 (35397) - http://www.bohemiancoding.com/sketch -->
    <title>Group</title>
    <desc>Created with Sketch.</desc>
    <defs></defs>
    <g id="Page-1" stroke="none" stroke-width="1" fill="none" fill-rule="evenodd">
        <g id="Group">
            <polygon id="Path" fill="#FFFFFF" points="194.4 104 209.2 104 209.2 4.7 194.4 4.7"></polygon>
            <polygon id="Path" fill="#FFFFFF" points="328 40.5 311 83.6 310.5 83.6 292.9 40.5 276.9 40.5 303.4 100.7 288.3 134.2 303.8 134.2 344.6 40.5"></polygon>
            <path d="M245.7,38.3 C235,38.3 223.8,43 219.2,53.5 L232.4,59 C235.2,53.5 240.5,51.7 245.9,51.7 C253.6,51.7 261.4,56.3 261.5,64.5 L261.5,65.5 C258.8,64 253.1,61.7 246,61.7 C231.8,61.7 217.4,69.5 217.4,84.1 C217.4,97.4 229,106 242.1,106 C252.1,106 257.6,101.5 261,96.3 L261.5,96.3 L261.5,104 L275.8,104 L275.8,65.9 C275.8,48.1 262.7,38.3 245.7,38.3 Z M243.9,92.7 C239,92.7 232.3,90.3 232.3,84.3 C232.3,76.6 240.7,73.7 248,73.7 C254.5,73.7 257.6,75.1 261.5,77 C260.4,86.2 252.4,92.7 243.9,92.7 Z" id="Combined-Shape" fill="#FFFFFF"></path>
            <path d="M153.7,4.7 L118.2,4.7 L118.2,104 L133,104 L133,66.4 L153.7,66.4 C170.1,66.4 186.3,54.5 186.3,35.6 C186.2,16.6 170.1,4.7 153.7,4.7 Z M154,52.5 L133,52.5 L133,18.5 L154,18.5 C165.1,18.5 171.4,27.7 171.4,35.5 C171.4,43.2 165.1,52.5 154,52.5 Z" id="Combined-Shape" fill="#CA7A19"></path>
            <path d="M53.8,48.5 L53.8,62.8 L88.1,62.8 C87.1,70.9 84.4,76.8 80.3,80.8 C75.3,85.8 67.5,91.3 53.8,91.3 C32.7,91.3 16.2,74.3 16.2,53.2 C16.2,32.1 32.7,15.1 53.8,15.1 C65.2,15.1 73.5,19.6 79.7,25.3 L89.8,15.2 C81.2,7 69.8,0.7 53.8,0.7 C24.9,0.7 0.5,24.3 0.5,53.2 C0.5,82.1 24.8,105.7 53.8,105.7 C69.4,105.7 81.2,100.6 90.4,91 C99.9,81.5 102.8,68.2 102.8,57.5 C102.8,54.2 102.5,51.1 102,48.5 L53.8,48.5 Z" id="Path" fill="#FFFFFF"></path>
        </g>
    </g>
</svg>