<?xml version="1.0" encoding="UTF-8"?>
<svg width="3086px" height="1000px" viewBox="0 0 3086 1000" version="1.1" xmlns="http://www.w3.org/2000/svg" xmlns:xlink="http://www.w3.org/1999/xlink">
    <!-- Generator: Sketch 41.2 (35397) - http://www.bohemiancoding.com/sketch -->
    <title>Untitled</title>
    <desc>Created with Sketch.</desc>
    <defs></defs>
    <g id="Page-1" stroke="none" stroke-width="1" fill="none" fill-rule="evenodd">
        <g id="plex">
            <path d="M1509.13,499.89 C1509.13,335.396667 1509.08667,170.903333 1509,6.41 C1509,1.21 1510.41,0.28 1515.29,0.28 C1703.29,0.413333333 1891.29,0.413333333 2079.29,0.28 C2084.54,0.28 2085.42,1.76 2085.41,6.6 C2085.23,60.2666667 2085.23,113.933333 2085.41,167.6 C2085.41,172.32 2084.04,173.18 2079.66,173.18 C1962.13333,172.986667 1844.62333,172.89 1727.13,172.89 C1721.9,172.89 1721.01,174.36 1721.02,179.2 C1721.18,248.866667 1721.18,318.533333 1721.02,388.2 C1721.02,392.73 1722.1,393.92 1726.7,393.91 C1835.86,393.77 1945.02333,393.686667 2054.19,393.66 C2059.41,393.66 2060.28,395.1 2060.27,399.93 C2060.09,453.596667 2060.09,507.263333 2060.27,560.93 C2060.27,565.66 2059.13,567.04 2054.27,567.03 C1945.11,566.89 1835.94667,566.823333 1726.78,566.83 C1722.44,566.83 1721.01,567.62 1721.02,572.37 C1721.18667,654.696667 1721.18667,737.03 1721.02,819.37 C1721.02,823.84 1722.02,825.06 1726.63,825.05 C1844.29,824.91 1961.95667,824.84 2079.63,824.84 C2084,824.84 2085.4,825.68 2085.38,830.4 C2085.18667,885.066667 2085.18667,939.733333 2085.38,994.4 C2085.38,998.54 2084.38,999.59 2080.18,999.59 C1891.51333,999.476667 1702.84667,999.476667 1514.18,999.59 C1509.18,999.59 1509.06,997.66 1509.07,993.84 C1509.11,829.166667 1509.13,664.516667 1509.13,499.89 Z" id="Shape" fill="#FFFFFF"></path>
            <path d="M2644.13,738.25 C2637.86,745.33 2633.47,753.69 2628.4,761.57 C2597.06667,810.276667 2565.81667,859.043333 2534.65,907.87 C2516.03667,936.963333 2497.47,966.09 2478.95,995.25 C2476.82,998.61 2474.53,999.77 2470.58,999.77 C2377.58667,999.656667 2284.58667,999.626667 2191.58,999.68 L2186.27,999.68 C2191.06,992.09 2195.51,984.98 2200.02,977.92 C2261.42667,881.9 2322.88,785.856667 2384.38,689.79 C2423.54667,628.603333 2462.79667,567.47 2502.13,506.39 C2505.55,501.09 2504.74,497.58 2501.65,492.8 C2471.97,446.86 2442.37333,400.823333 2412.86,354.69 C2381.98667,306.503333 2351.16333,258.28 2320.39,210.02 C2288.64333,160.373333 2256.89,110.73 2225.13,61.09 C2212.97,42.0766667 2200.81333,23.0766667 2188.66,4.09 C2187.97,3.01 2186.9,2.09 2187.01,0.15 L2191.25,0.15 C2284.41,0.15 2377.57333,0.113333333 2470.74,0.04 C2474.83,0.04 2476.92,1.5 2479,4.74 C2527.36667,80.42 2575.79,156.066667 2624.27,231.68 C2629.73,240.2 2635.05,248.8 2640.51,257.33 C2641.51,258.96 2642.2,260.95 2644.09,261.95 C2646.19,262.31 2646.91,264.1 2647.88,265.62 C2673.84,306.106667 2699.77667,346.603333 2725.69,387.11 C2748.41667,422.543333 2771.08333,458.016667 2793.69,493.53 C2794.77,495.22 2795.93,496.85 2795.89,498.97 L2795.73,501.59 C2794.99,506.04 2791.87,509.24 2789.59,512.81 C2752.43,570.81 2715.29667,628.843333 2678.19,686.91 C2667.94,702.91 2658.02,719.05 2647.5,734.84 C2646.6,736.18 2645.87,737.73 2644.13,738.25 Z" id="Shape" fill="#CA7A19"></path>
            <path d="M791.59,499.89 C791.59,335.396667 791.553333,170.906667 791.48,6.42 C791.48,1.59 792.34,0.14 797.56,0.16 C864.226667,0.373333333 930.893333,0.373333333 997.56,0.16 C1002.12,0.16 1003.25,1.29 1003.25,5.85 C1003.13,276.836667 1003.05333,547.836667 1003.02,818.85 C1003.02,823.91 1004.23,825 1009.2,824.99 C1140.36,824.836667 1271.52,824.763333 1402.68,824.77 C1407.12,824.77 1408.42,825.72 1408.4,830.37 C1408.21333,884.863333 1408.21333,939.36 1408.4,993.86 C1408.4,998.51 1407.13,999.52 1402.65,999.52 C1200.83,999.406667 999.01,999.406667 797.19,999.52 C792.66,999.52 791.52,998.44 791.53,993.88 C791.623333,829.22 791.643333,664.556667 791.59,499.89 Z" id="Shape" fill="#FFFFFF"></path>
            <path d="M2795.91,498.89 L2722.21,384.01 C2696.15667,343.343333 2670.13,302.636667 2644.13,261.89 C2650.7,250.79 2657.33,239.72 2663.83,228.58 C2684.06333,193.873333 2704.26333,159.153333 2724.43,124.42 C2742.93,92.52 2761.38667,60.5933333 2779.8,28.64 C2784.8,20.05 2789.92,11.56 2794.66,2.84 C2796.29,-0.16 2798.59,0.34 2801,0.34 L3085.13,0.34 L2795.91,498.89 Z" id="Shape" fill="#FFFFFF"></path>
            <path d="M2644.13,738.25 C2663.23,708.25 2682.33,678.25 2701.43,648.25 C2727.55,607.356667 2753.7,566.486667 2779.88,525.64 C2785.07,517.54 2790.48,509.57 2795.78,501.53 C2801.28,510.75 2806.87,519.93 2812.27,529.21 C2831.14333,561.636667 2849.98,594.086667 2868.78,626.56 C2885.2,654.906667 2901.6,683.263333 2917.98,711.63 C2945.27333,758.676667 2972.60667,805.706667 2999.98,852.72 C3028.08,901.246667 3056.13,949.786667 3084.13,998.34 C3084.11675,998.540336 3084.05865,998.735135 3083.96,998.91 C3082.36,999.97 3080.49,999.4 3078.75,999.4 C2986.08333,999.433333 2893.41667,999.47 2800.75,999.51 C2797.32,999.51 2795.49,998.51 2793.75,995.51 C2771.68,957.26 2749.41,919.13 2727.26,880.92 C2704.95,842.43 2682.8,803.85 2660.38,765.43 C2655.13,756.3 2650.53,746.71 2644.13,738.25 Z" id="Shape" fill="#FFFFFF"></path>
            <path d="M689.65,284.81 C687.82,250.13 681.77,216.25 669.65,183.53 C654.1,141.45 629.16,106.03 594.58,77.58 C567.32,55.14 536.37,39.1 503.13,27.42 C448.55,8.27 391.99,0.89 334.58,0.52 C225.13,-0.11 115.6,0.39 6.13,0.2 C0.83,0.2 0.05,1.74 0.05,6.53 C0.163333333,171.016667 0.19,335.503333 0.13,499.99 C0.07,664.476667 0.0266666667,828.963333 0,993.45 C0,998.69 1.46,999.57 6.31,999.55 C72.8033333,999.383333 139.296667,999.383333 205.79,999.55 C210.46,999.55 211.79,998.68 211.79,993.71 C211.623333,878.883333 211.546667,764.06 211.56,649.24 C211.56,644.94 212.46,643.79 216.93,643.78 C254.24,643.73 291.55,644.53 328.85,643.42 C353.269611,642.718921 377.624273,640.538255 401.78,636.89 C450.24,629.53 496.78,616.17 539.95,592.4 C571.49,575.04 599.24,552.99 622.4,525.4 C648.95,493.78 666.67,457.53 677.4,417.78 C689.23,374.2 692.02,329.71 689.65,284.81 Z M468.54,374.46 C455.99,412.27 429.62,437.05 393.54,452.22 C370.01,462.11 345.25,466.79 319.98,469.03 C285.24,472.1 250.41,470.29 215.63,470.89 C211.1,470.97 211.98,468.35 211.98,465.81 L211.98,321.81 C211.98,273.99 211.95,226.173333 211.89,178.36 C211.89,174.36 212.67,173.02 216.97,173.05 C246.97,173.25 276.97,172.9 306.97,173.23 C336.8,173.56 366.41,175.81 394.97,185.71 C437.076667,200.37 462.796667,229.476667 472.13,273.03 C479.42,307.06 479.63,341.07 468.54,374.46 Z" id="Shape" fill="#FFFFFF"></path>
        </g>
    </g>
</svg>