<?xml version="1.0" encoding="UTF-8"?>
<svg width="364px" height="115px" viewBox="0 0 364 115" version="1.1" xmlns="http://www.w3.org/2000/svg" xmlns:xlink="http://www.w3.org/1999/xlink">
    <!-- Generator: Sketch 41.2 (35397) - http://www.bohemiancoding.com/sketch -->
    <title>reddit</title>
    <desc>Created with Sketch.</desc>
    <defs></defs>
    <g id="Page-1" stroke="none" stroke-width="1" fill="none" fill-rule="evenodd">
        <path d="M18.344,45.176 C21.0320134,41.2399803 23.479989,38.4800079 25.688,36.896 C27.896011,35.3119921 30.3919861,34.52 33.176,34.52 C35.9600139,34.52 38.2639909,35.3839914 40.088,37.112 C41.9120091,38.8400086 42.824,41.0959861 42.824,43.88 C42.824,47.3360173 40.9520187,49.8799918 37.208,51.512 L33.176,53.096 C28.6639774,54.9200091 25.112013,57.4639837 22.52,60.728 C19.927987,63.9920163 18.632,67.5439808 18.632,71.384 L18.488,105.224 C18.488,107.720012 17.6240086,109.879991 15.896,111.704 C14.1679914,113.528009 12.0560125,114.44 9.56,114.44 C6.96798704,114.44 4.76000912,113.528009 2.936,111.704 C1.11199088,109.879991 0.2,107.720012 0.2,105.224 L0.2,42.44 C0.2,40.3279894 1.11199088,38.5040077 2.936,36.968 C4.76000912,35.4319923 6.96798704,34.664 9.56,34.664 C12.0560125,34.664 14.1679914,35.3839928 15.896,36.824 C17.6240086,38.2640072 18.488,40.1359885 18.488,42.44 L18.344,45.176 Z M62.696,80.456 C63.2720029,82.5680106 63.8719969,84.3919923 64.496,85.928 C65.1200031,87.4640077 65.8159962,88.9039933 66.584,90.248 C68.0240072,92.7440125 70.2319851,94.7119928 73.208,96.152 C76.1840149,97.5920072 79.3999827,98.312 82.856,98.312 C88.1360264,98.312 93.271975,96.7280158 98.264,93.56 C100.376011,92.1199928 102.031994,91.1360026 103.232,90.608 C104.432006,90.0799974 105.559995,89.816 106.616,89.816 C109.016012,89.816 110.935993,90.5359928 112.376,91.976 C113.816007,93.4160072 114.536,95.239989 114.536,97.448 C114.536,99.7520115 113.480011,101.959989 111.368,104.072 C103.879963,111.080035 94.040061,114.584 81.848,114.584 C70.4239429,114.584 61.0640365,110.888037 53.768,103.496 C46.4719635,96.103963 42.824,86.5520586 42.824,74.84 C42.824,63.4159429 46.3759645,53.8160389 53.48,46.04 C60.5840355,38.2639611 69.3679477,34.376 79.832,34.376 C90.8720552,34.376 99.7519664,38.5519582 106.472,46.904 C109.160013,50.1680163 111.415991,54.2239758 113.24,59.072 C115.064009,63.9200242 115.976,68.3599798 115.976,72.392 C115.976,75.3680149 115.304007,77.4799938 113.96,78.728 C112.615993,79.9760062 110.264017,80.6 106.904,80.6 L62.696,80.456 Z M79.976,49.352 C70.2799515,49.352 64.4240101,55.6399371 62.408,68.216 L97.256,68.216 C95.1439894,55.6399371 89.384047,49.352 79.976,49.352 Z M176.456,43.448 L176.456,9.752 C176.456,7.25598752 177.367991,5.09600912 179.192,3.272 C181.016009,1.44799088 183.271987,0.536 185.96,0.536 C188.552013,0.536 190.711991,1.44799088 192.44,3.272 C194.168009,5.09600912 195.032,7.30398704 195.032,9.896 L195.032,105.656 C195.032,108.056012 194.120009,110.119991 192.296,111.848 C190.471991,113.576009 188.312012,114.44 185.816,114.44 C183.415988,114.44 181.328009,113.600008 179.552,111.92 C177.775991,110.239992 176.888,108.152012 176.888,105.656 L176.888,103.928 C173.239982,108.152021 170.072013,110.935993 167.384,112.28 C164.695987,113.624007 161.048023,114.296 156.44,114.296 C146.935952,114.296 138.872033,110.456038 132.248,102.776 C125.623967,95.0959616 122.312,85.6400562 122.312,74.408 C122.312,62.9839429 125.647967,53.4560382 132.32,45.824 C138.992033,38.1919618 147.271951,34.376 157.16,34.376 C161.384021,34.376 164.743988,34.9519942 167.24,36.104 C169.736012,37.2560058 172.807982,39.7039813 176.456,43.448 Z M159.032,51.368 C153.847974,51.368 149.552017,53.5519782 146.144,57.92 C142.735983,62.2880218 141.032,67.7839669 141.032,74.408 C141.032,81.2240341 142.663984,86.7679786 145.928,91.04 C149.192016,95.3120214 153.415974,97.448 158.6,97.448 C164.168028,97.448 168.583984,95.4320202 171.848,91.4 C175.112016,87.3679798 176.744,81.9440341 176.744,75.128 C176.744,67.927964 175.160016,62.1680216 171.992,57.848 C168.823984,53.5279784 164.504027,51.368 159.032,51.368 Z M260.264,43.448 L260.264,9.752 C260.264,7.25598752 261.175991,5.09600912 263,3.272 C264.824009,1.44799088 267.079987,0.536 269.768,0.536 C272.360013,0.536 274.519991,1.44799088 276.248,3.272 C277.976009,5.09600912 278.84,7.30398704 278.84,9.896 L278.84,105.656 C278.84,108.056012 277.928009,110.119991 276.104,111.848 C274.279991,113.576009 272.120012,114.44 269.624,114.44 C267.223988,114.44 265.136009,113.600008 263.36,111.92 C261.583991,110.239992 260.696,108.152012 260.696,105.656 L260.696,103.928 C257.047982,108.152021 253.880013,110.935993 251.192,112.28 C248.503987,113.624007 244.856023,114.296 240.248,114.296 C230.743952,114.296 222.680033,110.456038 216.056,102.776 C209.431967,95.0959616 206.12,85.6400562 206.12,74.408 C206.12,62.9839429 209.455967,53.4560382 216.128,45.824 C222.800033,38.1919618 231.079951,34.376 240.968,34.376 C245.192021,34.376 248.551988,34.9519942 251.048,36.104 C253.544012,37.2560058 256.615982,39.7039813 260.264,43.448 Z M242.84,51.368 C237.655974,51.368 233.360017,53.5519782 229.952,57.92 C226.543983,62.2880218 224.84,67.7839669 224.84,74.408 C224.84,81.2240341 226.471984,86.7679786 229.736,91.04 C233.000016,95.3120214 237.223974,97.448 242.408,97.448 C247.976028,97.448 252.391984,95.4320202 255.656,91.4 C258.920016,87.3679798 260.552,81.9440341 260.552,75.128 C260.552,67.927964 258.968016,62.1680216 255.8,57.848 C252.631984,53.5279784 248.312027,51.368 242.84,51.368 Z M311.672,105.08 C311.672,107.672013 310.808009,109.879991 309.08,111.704 C307.351991,113.528009 305.192013,114.44 302.6,114.44 C300.007987,114.44 297.800009,113.528009 295.976,111.704 C294.151991,109.879991 293.24,107.720012 293.24,105.224 L293.24,43.736 C293.24,41.2399875 294.151991,39.0800091 295.976,37.256 C297.800009,35.4319909 300.007987,34.52 302.6,34.52 C305.000012,34.52 307.111991,35.4319909 308.936,37.256 C310.760009,39.0800091 311.672,41.287987 311.672,43.88 L311.672,105.08 Z M291.512,15.8 C291.512,12.7279846 292.591989,10.1600103 294.752,8.096 C296.912011,6.03198968 299.527985,5 302.6,5 C305.480014,5 307.975989,6.05598944 310.088,8.168 C312.200011,10.2800106 313.256,12.8719846 313.256,15.944 C313.256,19.0160154 312.22401,21.5839897 310.16,23.648 C308.09599,25.7120103 305.576015,26.744 302.6,26.744 C299.527985,26.744 296.912011,25.7120103 294.752,23.648 C292.591989,21.5839897 291.512,18.9680158 291.512,15.8 Z M296.804,15.8350464 C296.804,14.2583497 297.358299,12.9403497 298.466914,11.8810066 C299.575529,10.8216636 300.918164,10.292 302.494861,10.292 C303.973014,10.292 305.254061,10.8339813 306.33804,11.9179603 C307.422019,13.0019392 307.964,14.332257 307.964,15.9089536 C307.964,17.4856503 307.434336,18.8036503 306.374993,19.8629934 C305.31565,20.9223364 304.022286,21.452 302.494861,21.452 C300.918164,21.452 299.575529,20.9223364 298.466914,19.8629934 C297.358299,18.8036503 296.804,17.4610148 296.804,15.8350464 Z M330.68,51.944 L326.072,51.944 C323.767988,51.944 321.752009,51.1280082 320.024,49.496 C318.295991,47.8639918 317.432,45.944011 317.432,43.736 C317.432,41.4319885 318.247992,39.5120077 319.88,37.976 C321.512008,36.4399923 323.575988,35.672 326.072,35.672 L330.536,35.672 L330.536,20.984 C330.536,18.391987 331.399991,16.1840091 333.128,14.36 C334.856009,12.5359909 337.063987,11.624 339.752,11.624 C342.248012,11.624 344.407991,12.5359909 346.232,14.36 C348.056009,16.1840091 348.968,18.391987 348.968,20.984 L348.68,35.672 L355.448,35.672 C357.752012,35.672 359.719992,36.4879918 361.352,38.12 C362.984008,39.7520082 363.8,41.671989 363.8,43.88 C363.8,46.1840115 362.984008,48.1039923 361.352,49.64 C359.719992,51.1760077 357.704012,51.944 355.304,51.944 L348.68,51.944 L348.968,104.936 C348.968,107.432012 348.080009,109.615991 346.304,111.488 C344.527991,113.360009 342.344013,114.296 339.752,114.296 C337.255988,114.296 335.120009,113.408009 333.344,111.632 C331.567991,109.855991 330.68,107.672013 330.68,105.08 L330.68,51.944 Z" id="reddit" fill="#FFFFFF"></path>
    </g>
</svg>