<?xml version="1.0" encoding="UTF-8"?>
<svg width="445px" height="71px" viewBox="0 0 445 71" version="1.1" xmlns="http://www.w3.org/2000/svg" xmlns:xlink="http://www.w3.org/1999/xlink">
    <!-- Generator: Sketch 41.2 (35397) - http://www.bohemiancoding.com/sketch -->
    <title>Untitled 5</title>
    <desc>Created with Sketch.</desc>
    <defs></defs>
    <g id="Page-1" stroke="none" stroke-width="1" fill="none" fill-rule="evenodd">
        <path d="M326.78,35.88 L326.78,5.39 C326.78,2.99 327.26,2.17 329.6,1.92 C340.75,0.76 351.93,-0.44 363.07,1.69 C369.51,2.92 375.07,5.79 378.51,11.77 C382.08,17.97 382.51,31.77 375.01,37.84 C373.380447,39.2512523 371.537606,40.3954339 369.55,41.23 C368.11,41.78 368.23,42.35 368.9,43.48 C373.49,51.22 378.03,58.99 382.58,66.75 C383.8,68.84 383.41,69.56 381.05,69.56 L371.27,69.56 C370.20579,69.6298541 369.208286,69.0377101 368.76,68.07 C364.31,60.5 359.81,52.97 355.35,45.41 C355.081288,44.7425246 354.429455,44.3092937 353.71,44.32 C349.71,44.27 345.65,44.17 341.62,43.99 C340.38,43.93 340.02,44.24 340.03,45.51 C340.09,52.58 340.03,59.65 340.03,66.72 C340.03,69 339.49,69.53 337.19,69.53 L329.4,69.53 C327.4,69.53 326.75,68.88 326.75,66.84 C326.763333,56.5266667 326.773333,46.2066667 326.78,35.88 Z M340.06,22.62 L340.06,13.67 C340.06,12.74 340.23,12.25 341.31,12.26 C346.44,12.26 351.56,11.58 356.7,12.26 C358.179202,12.4183702 359.637388,12.7334725 361.05,13.2 C365.97,14.92 368.05,18.47 367.79,23.67 C367.5,30.06 363.92,32.56 358.09,33.2 C352.46,33.82 346.84,33.38 341.21,33.2 C340.21,33.2 340.05,32.74 340.06,31.89 C340.08,28.81 340.06,25.72 340.06,22.62 Z" id="Combined-Shape" fill="#FFFFFF"></path>
        <path d="M0.85,35.97 L0.85,5.81 C0.85,2.76 1.52,2.04 4.7,1.69 C9.81,1.12 14.93,0.81 20.06,0.69 C25.79,0.57 31.55,0.31 37.21,1.69 C42.59,2.96 47.49,5.04 51.04,9.52 C53.1588691,12.16777 54.4617974,15.3747111 54.79,18.75 C55.48,25.59 54.97,32.15 49.63,37.34 C47.8419408,39.0719879 45.7277113,40.4316211 43.41,41.34 C42.2,41.82 42.26,42.27 42.84,43.24 C47.34,50.84 51.79,58.47 56.25,66.09 C56.5458223,66.5550108 56.816219,67.035716 57.06,67.53 C57.61,68.76 57.21,69.53 55.88,69.53 C52.18,69.59 48.48,69.53 44.78,69.53 C43.9336963,69.4934551 43.186871,68.9655942 42.87,68.18 C38.46,60.72 34.02,53.28 29.66,45.79 C29.1896511,44.7941214 28.146697,44.1987185 27.05,44.3 C23.24,44.3 19.43,44.16 15.63,43.98 C14.47,43.93 14.12,44.25 14.13,45.43 L14.13,66.43 C14.13,69 13.63,69.48 11.01,69.49 C8.39,69.5 5.93,69.49 3.39,69.49 C1.39,69.49 0.83,68.86 0.83,66.89 C0.836666667,56.61 0.843333333,46.3033333 0.85,35.97 Z M14.16,22.62 L14.16,13.68 C14.16,12.75 14.32,12.26 15.41,12.27 C20.53,12.27 25.66,11.57 30.78,12.27 C31.78,12.41 32.85,12.59 33.86,12.82 C42.23,14.74 43.14,22.08 40.76,28.3 C39.41,31.82 36,32.69 32.64,33.13 C26.81,33.89 20.96,33.38 15.12,33.22 C14.12,33.22 14.12,32.57 14.12,31.9 C14.1533333,28.8 14.1666667,25.7066667 14.16,22.62 Z" id="Combined-Shape" fill="#CA7A19"></path>
        <path d="M131.16,25.03 L131.16,4.03 C131.16,1.91 131.68,1.39 133.79,1.38 L141.79,1.38 C143.98,1.38 144.49,1.91 144.49,4.14 L144.49,43.09 C144.421884,45.9098883 144.879693,48.7177893 145.84,51.37 C147.058399,54.7695099 149.838589,57.374775 153.31,58.37 C156.963507,59.5126497 160.85263,59.6781443 164.59,58.85 C170.74,57.52 174.14,53.79 175.01,47.55 C175.236093,45.8528995 175.343021,44.1420452 175.33,42.43 L175.33,4.31 C175.33,1.84 175.78,1.39 178.2,1.38 L186.32,1.38 C188.02,1.38 188.63,2 188.63,3.68 C188.63,17.77 188.93,31.87 188.49,45.94 C188.05,60.01 179.6,68.41 165.37,70 C159.277032,70.826036 153.076536,70.2828521 147.22,68.41 C137.88,65.23 132.89,58.49 131.59,48.91 C130.71,42.43 131.36,35.91 131.21,29.38 C131.14,27.9 131.16,26.47 131.16,25.03 Z" id="Shape" fill="#FFFFFF"></path>
        <path d="M263.52,34.13 C263.69,28.72 263.24,22.13 263.78,15.46 C263.904817,13.7702326 264.189422,12.0960881 264.63,10.46 C266.22,4.74 269.72,1.64 275.91,1.13 C286.80998,0.170977487 297.78361,0.452782727 308.62,1.97 C310.04,2.18 310.62,2.8 310.62,4.24 C310.55,6.01 310.62,7.78 310.62,9.54 C310.62,11.3 310.02,12 308.12,12 L283.71,12 C282.439051,11.9823436 281.168629,12.0625808 279.91,12.24 C278.349478,12.345521 277.117763,13.6073833 277.05,15.17 C276.52,19.46 276.87,23.78 276.76,28.08 C276.76,29.35 277.63,29.08 278.36,29.08 L295.43,29.08 L306.87,29.08 C308.87,29.08 309.45,29.7 309.48,31.64 C309.51,33.58 309.48,35.29 309.48,37.11 C309.48,39.11 308.82,39.77 306.78,39.77 L278.6,39.77 C277.02,39.77 276.67,40.25 276.73,41.72 C276.91,46.24 276.52,50.78 277,55.3 C277.26,57.76 278.07,58.61 280.58,58.75 C289.19,59.23 297.81,58.86 306.43,58.96 C310.57,58.96 310.57,58.96 310.57,63.09 L310.57,66.74 C310.64,68.19 309.95,68.8 308.57,69.01 C303.510474,69.7635476 298.405068,70.167837 293.29,70.22 C287.29,70.29 281.35,70.67 275.43,69.69 C268.57,68.55 265.36,65.24 264.19,58.33 C263.42,53.78 263.58,49.2 263.57,44.61 C263.51,41.52 263.52,38.43 263.52,34.13 Z" id="Shape" fill="#FFFFFF"></path>
        <path d="M69.86,35.43 L69.86,16.21 C69.9018734,14.3317221 70.1841706,12.4665441 70.7,10.66 C72.26,4.76 75.7,1.66 82.11,1.08 C92.9530164,0.129621113 103.868614,0.404691494 114.65,1.9 C116.18,2.11 116.76,2.79 116.65,4.29 C116.58,6 116.65,7.71 116.65,9.43 C116.65,11.43 116.11,11.97 114.08,11.97 L89.76,11.97 C88.5451345,11.9351094 87.3296971,12.0154689 86.13,12.21 C84.19,12.58 83.25,13.4 83.13,15.39 C82.96,19.58 82.96,23.78 82.85,27.98 C82.85,29.35 83.75,29.1 84.55,29.1 L112.06,29.1 C115.34,29.1 115.57,29.32 115.57,32.56 L115.57,37.03 C115.57,39.21 114.99,39.78 112.83,39.78 L84.66,39.78 C83.19,39.78 82.78,40.15 82.83,41.61 C82.99,46.02 82.97,50.44 83.09,54.86 C83.16,57.6 84.09,58.56 86.76,58.75 C93.21,59.21 99.68,58.86 106.14,58.95 L114.43,58.95 C115.043319,58.8336815 115.674775,59.0244166 116.121141,59.4608191 C116.567507,59.8972216 116.772446,60.5242123 116.67,61.14 C116.67,63.02 116.62,64.9 116.67,66.77 C116.72,68.25 115.99,68.77 114.67,69 C105.18,70.43 95.67,70.41 86.08,70.22 C84.5896959,70.1697699 83.1053923,70.0059617 81.64,69.73 C74.54,68.49 71.21,64.96 70.2,57.8 C69.53,53.01 69.87,48.21 69.79,43.41 L69.79,35.41 L69.88,35.41 L69.86,35.43 Z" id="Shape" fill="#FFFFFF"></path>
        <path d="M418.9,0.62 C425.965828,0.645467522 433.007684,1.44354451 439.9,3 C440.568514,3.04565227 441.187502,3.36870143 441.607249,3.89101092 C442.026996,4.41332042 442.209276,5.08732434 442.11,5.75 C442.02,7.68 442.11,9.62 442.11,11.55 C442.11,13.3 441.49,13.81 439.75,13.66 C433.93,13.16 428.14,12.3 422.28,12.07 C418.97616,11.8167885 415.653118,12.1004629 412.44,12.91 C411.322166,13.2203466 410.259447,13.7027873 409.29,14.34 C406.16,16.44 405.71,19.74 408.22,22.55 C410.123637,24.490117 412.456241,25.9561293 415.03,26.83 C420.36,28.95 425.71,31.03 431.03,33.18 C434.344122,34.4301702 437.359069,36.3617807 439.88,38.85 C446.6,45.72 445.58,61.33 434.27,67.08 C430.303241,69.0474374 425.956213,70.1290763 421.53,70.25 C413.522996,70.4768507 405.518723,69.7110201 397.7,67.97 C396.05,67.63 395.16,66.9 395.29,65.07 C395.42,63.24 395.29,61.54 395.29,59.77 C395.29,57.6 395.84,57.07 397.95,57.31 C404.75,58.09 411.55,58.82 418.4,58.94 C420.388648,58.9929631 422.375639,58.7845139 424.31,58.32 C427.144162,57.7004597 429.345008,55.4656174 429.921036,52.6222929 C430.497064,49.7789685 429.339563,46.8637602 426.97,45.19 C423.541426,42.8598435 419.801229,41.0250932 415.86,39.74 C411.93,38.29 407.92,37.02 404.06,35.4 C399.389144,33.4993378 395.761562,29.6813172 394.102166,24.919404 C392.442769,20.1574909 392.91192,14.9118712 395.39,10.52 C398.15,5.76 402.68,3.44 407.76,2.03 C411.390476,1.0481863 415.139392,0.57368252 418.9,0.62 Z" id="Shape" fill="#FFFFFF"></path>
        <path d="M219.29,40.5 L219.29,14.15 C219.29,12.83 218.92,12.47 217.61,12.49 C212.14,12.56 206.67,12.49 201.21,12.49 C198.57,12.49 198.12,12.03 198.12,9.43 L198.12,3.8 C198.12,1.93 198.72,1.32 200.6,1.32 L217,1.32 L250.64,1.32 C253.18,1.32 253.56,1.69 253.56,4.16 L253.56,9.96 C253.56,11.89 253.01,12.49 250.98,12.5 C245.46,12.5 239.98,12.57 234.41,12.5 C232.83,12.5 232.53,12.99 232.53,14.45 C232.576667,31.7366667 232.576667,49.0233333 232.53,66.31 C232.53,69.09 232.04,69.59 229.28,69.59 L222.29,69.59 C219.88,69.59 219.36,69.08 219.36,66.7 C219.313333,57.96 219.29,49.2266667 219.29,40.5 Z" id="Shape" fill="#FFFFFF"></path>
    </g>
</svg>