<?xml version="1.0" encoding="utf-8"?>
<!-- Generator: Adobe Illustrator 16.0.0, SVG Export Plug-In . SVG Version: 6.00 Build 0)  -->
<!DOCTYPE svg PUBLIC "-//W3C//DTD SVG 1.1 Tiny//EN" "http://www.w3.org/Graphics/SVG/1.1/DTD/svg11-tiny.dtd">
<svg version="1.1" baseProfile="tiny" id="Layer_1" xmlns="http://www.w3.org/2000/svg" xmlns:xlink="http://www.w3.org/1999/xlink"
	 x="0px" y="0px" width="959.5px" height="541.605px" viewBox="0 0 959.5 541.605" xml:space="preserve">
<g>
	<path fill="#091515" d="M960,298.988c0,81,0,162,0,243c-0.863,0.469-1.8,0.238-2.698,0.238
		c-318.194,0.012-636.388,0.012-954.581,0.001c-0.907,0-1.849,0.224-2.721-0.239c0-56.833,0-113.667,0-170.5
		c0.972-1.222,2.426-1.371,3.795-1.676c5.693-1.271,11.514-1.819,17.221-3.016c0.326-0.068-0.062,0.072,0.245-0.042
		c10.786-4.001,22.535-4.39,33.193-8.94c6.21-2.652,12.909-3.23,19.565-3.467c7.671-0.273,15.25-1.293,22.848-2.211
		c1.321-0.16,2.658-0.445,3.825-1.107c4.098-2.328,8.65-3.451,13.034-5.024c2.803-1.006,5.765-0.966,8.636-1.113
		c9.964-0.511,19.88-1.786,29.893-1.627c7.088,0.113,14.045-1.592,21.091-2.206c1.411-0.123,2.823-0.373,4.229-0.262
		c7.9,0.629,15.374-1.332,22.789-3.671c3.812-1.202,7.765-2.155,11.369-3.776c5.076-2.283,10.392-3.978,15.374-6.405
		c3.22-1.569,6.148-3.591,9.968-3.347c1.159,0.074,2.231-0.639,3.208-1.288c2.947-1.958,6.141-2.767,9.7-2.57
		c3.572,0.197,7.162-0.024,10.743,0.11c0.417,0.016,0.886,0.141,1.24-0.031c3.693-1.799,7.867-1.067,11.675-2.248
		c1.679-0.52,3.395-0.818,5.164-0.8c4.115,0.042,7.678-2.074,11.541-3.04c11.392-2.847,22.779-5.778,34.438-7.204
		c6.592-0.806,13.251-1.149,19.86-1.967c7.289-0.902,14.385-2.773,21.596-4.056c3.381-0.602,6.726-0.893,10.171-0.35
		c5.772,0.908,11.425-0.732,17.14-1.114c3.991-0.267,7.926-0.981,11.872-1.612c2.424-0.389,4.826-0.072,7.149,0.702
		c1.973,0.657,3.904,0.629,5.882-0.006c6.187-1.985,12.39-4.091,18.975-3.996c6.22,0.091,12.12-1.987,18.271-2.287
		c3.112-0.151,6.147,0.241,9.192,0.696c2.686,0.4,5.314,0.366,7.83-0.82c5.841-2.756,11.95-3.299,18.269-2.264
		c2.462,0.403,4.926,0.761,7.437,0.846c3.961,0.135,7.792-0.169,11.435-1.952c2.63-1.288,5.521-1.264,8.345-0.995
		c6.714,0.638,13.412,1.405,19.867,3.553c2.855,0.949,5.791,1.573,8.838,1.37c3.465-0.231,6.812,0.273,10.018,1.621
		c2.996,1.261,5.98,1.08,9.041,0.185c4.004-1.173,7.945-2.503,11.693-4.334c2.022-0.988,3.996-1.154,5.984-0.107
		c3.22,1.697,6.434,1.859,9.864,0.543c1.971-0.756,4.144-0.594,6.14,0.152c4.645,1.736,9.527,1.635,14.316,1.604
		c2.416-0.015,5.098-0.388,7.302-1.893c2.708-0.839,5.328-1.852,7.782-3.317c1.197-0.715,2.562-1.473,3.981-1.316
		c4.638,0.507,8.899-1.097,13.18-2.318c8.784-2.509,17.746-3.315,26.814-3.958c7.874-0.559,15.776-0.606,23.644-1.011
		c8.135-0.419,16.434-0.174,24.65,0.438c4.807,0.358,9.624,0.443,14.374,1.421c2.22,0.457,4.343,1.177,6.411,2.024
		c5.551,2.275,11.379,3.745,16.951,5.941c2.37,0.935,4.947,0.628,7.337,1.38c7.513,2.663,15.04,1.903,22.57,0.096
		c0.161-0.038,0.325-0.085,0.476-0.155c4.904-2.271,9.731-2.688,14.879-0.375c3.183,1.43,6.861,1.248,10.347,1.347
		c13.287,0.378,26.423-1.146,39.483-3.431c1.979-0.347,3.951-0.619,5.958-0.529c5.088,0.23,10.146-0.334,15.216-0.557
		c2.285-0.101,4.348-1.1,6.496-1.744c6.186-1.855,12.226-2.121,18.07,1.301c5.676,3.322,11.904,4.625,18.437,4.484
		c4.904-0.106,9.465,1.908,14.29,2.203c4.418,0.271,8.475,1.604,12.277,3.822c3.65,2.13,7.822,1.246,11.721,1.956
		C957.838,297.971,959.133,297.848,960,298.988z"/>
	<path fill-rule="evenodd" fill="#225E4D" d="M0,82.988C0,55.328,0,27.667,0,0c320,0,640,0,960,0c0,35.337,0,70.663,0,105.988
		c-0.947,1.22-2.327,1.074-3.648,1.21c-7.776,0.801-15.591,0.903-23.39,1.281c-1.919,0.093-3.809-0.348-5.733-0.281
		c-10.729,0.379-21.457,0.856-32.184,1.217c-5.953,0.2-11.939,0.464-17.905,0.559c-9.143,0.144-18.312-0.151-27.458,0.53
		c-5.719,0.427-11.475-0.02-17.215,0.184c-11.218,0.397-22.445,0.471-33.668,0.517c-23.894,0.098-47.789,0.146-71.679-0.128
		c-6.565-0.075-13.134,0.596-19.687-0.029c-7.396-0.706-14.818-0.379-22.223-0.526c-7.137-0.142-14.279-0.443-21.423-0.366
		c-5.084,0.055-10.125-0.783-15.211-0.661c-7.063,0.17-14.124-0.301-21.179-0.223c-10.835,0.12-21.648-0.505-32.472-0.687
		c-6.298-0.105-12.618-0.757-18.927-1.188c-5.812-0.396-11.652-0.317-17.481-0.312c-5.245,0.005-10.474-0.236-15.7-0.674
		c-4.229-0.354-8.477-0.381-12.715-0.658c-10.716-0.701-21.461-0.75-32.189-1.156c-8.805-0.333-17.59-1.266-26.395-1.788
		c-5.484-0.325-10.981-0.222-16.475-0.471c-5.665-0.257-11.285-0.917-16.926-1.33c-4.417-0.324-8.824-0.165-13.23-0.395
		c-7.398-0.387-14.79-0.819-22.146-1.728c-2.16-0.267-4.329-0.2-6.492-0.165c-2.6,0.041-5.162-0.082-7.632-0.967
		c-0.698-0.125-1.142-0.602-1.599-1.105c-11.052-12.192-24.662-19.951-41.022-21.728c-24.469-2.658-44.393,5.892-59.081,25.938
		c-0.936,1.276-1.752,2.634-2.681,3.917c-0.55,0.76-1.072,1.507-2.15,1.486c-3.772,0.394-7.459-0.515-11.19-0.727
		c-6.727-0.381-13.465-0.647-20.169-1.344c-11.921-1.239-23.912-1.512-35.841-2.709c-6.033-0.605-12.115-0.847-18.176-1.234
		c-7.808-0.499-15.577-1.459-23.391-1.847c-9.225-0.457-18.353-2.041-27.606-2.259c-5.988-0.142-11.909-1.288-17.901-1.604
		c-7.393-0.389-14.77-0.972-22.142-1.732c-8.681-0.895-17.423-1.062-26.112-2.102c-5.677-0.679-11.486-0.238-17.168-1.045
		c-9.004-1.279-18.141-0.964-27.104-2.191c-8.121-1.112-16.262-1.129-24.382-1.782c-2.828-0.228-5.593-0.885-8.414-1.152
		C1.418,84.433,0.694,83.723,0,82.988z"/>
	<path fill-rule="evenodd" fill="#272020" d="M621.502,290.99c-3.128,1.227-6.12,3.048-9.729,2.119
		c-0.554-0.142-1.169-0.164-1.739-0.1c-3.648,0.412-7.134-0.371-10.558-1.469c-2.15-0.689-4.275-0.805-6.358,0.033
		c-3.138,1.26-6.145,1.235-9.119-0.475c-2.103-1.21-4.119-1.166-6.376-0.008c-4.531,2.326-9.396,3.806-14.37,4.922
		c-1.518,0.34-2.964,0.285-4.421-0.188c-0.396-0.128-0.809-0.215-1.19-0.377c-3.907-1.664-7.978-2.261-12.204-1.966
		c-2.893,0.202-5.607-0.7-8.303-1.548c-5.189-1.634-10.507-2.52-15.914-2.963c-0.579-0.047-1.154-0.148-1.729-0.234
		c-3.348-0.498-6.718-0.596-9.782,1c-4.727,2.461-9.728,1.842-14.682,1.567c-2.729-0.151-5.426-0.803-8.145-1.181
		c-2.266-0.314-4.453,0.431-6.688,0.592c-2.523,0.183-4.868,0.994-7.102,2.201c-2.627,1.42-5.473,1.237-8.305,0.879
		c-2.555-0.324-5.092-1.048-7.678-0.77c-3.962,0.426-7.972,0.544-11.845,1.641c-1.924,0.544-3.814,0.875-5.892,0.55
		c-1.676-0.263-3.469,0.145-5.201,0.335c-3.479,0.381-6.912,0.996-10.217,2.199c-0.861,0.312-1.75,0.548-2.608,0.866
		c-3.528,1.309-7.038,1.826-10.69,0.331c-1.801-0.737-3.759-0.572-5.673-0.211c-4.744,0.896-9.527,1.475-14.346,1.794
		c-1.655,0.11-3.311,0.363-4.941,0.681c-3.559,0.691-7.112,0.537-10.659,0.02c-1.917-0.279-3.791-0.231-5.71,0.023
		c-6.942,0.924-13.647,3.068-20.597,3.93c-5.195,0.644-10.354,1.523-15.593,1.885c-4.797,0.33-9.583,0.847-14.354,1.649
		c-9.7,1.632-19.206,4.033-28.721,6.449c-2.105,0.534-4.169,1.132-6.182,1.937c-1.562,0.623-3.177,0.991-4.877,0.883
		c-1.518-0.098-2.996,0.165-4.432,0.615c-2.231,0.697-4.435,1.393-6.841,0.934c-1.005-0.191-1.954,0.304-2.854,0.761
		c-1.516,0.77-3.05,0.93-4.8,0.841c-4.569-0.233-9.158-0.155-13.737-0.086c-1.895,0.028-3.494,1.131-5.009,2.116
		c-1.964,1.277-3.977,2.041-6.333,1.827c-1.563-0.142-2.908,0.398-4.204,1.276c-3.053,2.067-6.278,3.749-10.003,4.321
		c-1.496,0.229-2.774,1.102-4.046,1.9c-1.848,1.162-3.837,1.945-5.935,2.566c-4.63,1.373-9.208,2.919-13.822,4.346
		c-5.676,1.754-11.42,2.978-17.437,2.607c-4.675-0.287-9.279,0.662-13.897,1.211c-4.787,0.569-9.561,1.265-14.383,1.472
		c-0.741,0.032-1.489-0.131-2.236-0.181c-4.423-0.296-8.801,0.372-13.192,0.693c-1.407,0.104-2.815,0.201-4.224,0.295
		c-3.729,0.245-7.449,0.644-11.18,0.831c-6.894,0.347-13.105,2.821-19.154,5.886c-1.349,0.684-2.834,1.012-4.319,1.19
		c-5.858,0.705-11.713,1.456-17.588,1.977c-3.223,0.285-6.472,0.346-9.708,0.531c-5.126,0.294-10.133,1.155-14.825,3.109
		c-5.51,2.295-11.142,3.844-17.048,4.577c-2.557,0.318-5.087,0.923-7.5,1.875c-5.392,2.129-11.074,3.036-16.748,3.898
		c-3.376,0.514-6.734,1.104-10.08,1.767c-1.153,0.228-2.298,0.369-3.469,0.343c0-22.333,0-44.667,0-67
		c0.806-1.018,1.848-1.519,3.122-1.863c9.52-2.578,19.257-3.733,29.031-4.792c13.742-1.488,27.355-3.94,41.06-5.719
		c11.887-1.543,23.792-2.976,35.627-4.878c8.798-1.414,17.67-2.26,26.46-3.656c6.083-0.967,11.86-3.318,17.828-4.847
		c6.125-1.569,12.314-2.745,18.708-2.507c5.902,0.219,11.822,0.338,17.715,0.374c6.444,0.039,12.946-0.339,19.347-1.788
		c4.771-1.08,9.702-1.641,14.623-1.507c8.94,0.242,17.788-0.521,26.621-1.828c5.563-0.823,11.129,0.581,16.701,0.342
		c6.832-0.293,13.666,0.787,20.452,0.344c9.454-0.617,18.747,1.012,28.127,1.296c4.166,0.127,8.323,1.271,12.568,1.062
		c8.307,1.851,16.737,2.785,25.216,3.351c5.417,1.664,10.896,0.2,16.336,0.201c3.055,0,6.146-0.326,9.224-0.29
		c8.516,0.098,16.946-1.039,25.395-1.808c10.718-0.977,21.385-1.776,32.104,0.073c5.656,0.976,11.414,1.269,17.142,1.67
		c4.596,0.321,9.147-0.474,13.679-1.048c4.031-0.512,7.988,0.046,11.953,0.284c9.25,0.555,18.457,0.319,27.688-0.402
		c11.277-0.881,22.564-2.007,33.9-0.862c1.823,0.184,3.659,0.164,5.488,0.26c5.983,0.312,11.628,1.942,17.173,4.062
		c6.029,2.304,12.266,3.721,18.705,4.174c2.264,0.159,4.447,0.698,6.631,1.208c7.423,1.732,14.944,2.469,22.551,2.363
		c2.698-0.037,5.318,0.297,7.877,1.12C620.147,289.229,621.362,289.501,621.502,290.99z"/>
	<path fill-rule="evenodd" fill="#3B6B4E" d="M388.413,96.555c2.028,0.903,4.163,1.014,6.345,0.943
		c6.342-0.207,12.626,0.448,18.889,1.367c0.33,0.048,0.663,0.103,0.994,0.097c6.324-0.118,12.62,0.592,18.948,0.581
		c4.98-0.009,9.951,0.6,14.903,1.195c0.496,0.06,0.992,0.232,1.481,0.208c4.92-0.243,9.795,0.772,14.711,0.537
		c5.585-0.267,11.155,0.329,16.704,0.662c5.208,0.312,10.452,0.583,15.646,1.264c0.821,0.108,1.665,0.1,2.496,0.072
		c8.33-0.284,16.634,0.537,24.96,0.621c5.882,0.06,11.775,0.711,17.668,1.034c3.049,0.167,6.148,0.476,9.194,0.601
		c3.19,0.131,6.469-0.106,9.647,0.069c5.645,0.312,11.314-0.292,16.936,0.586c2.055,0.321,4.167,0.227,6.231,0.227
		c2.009,0,3.997,0.15,5.947,0.424c5.233,0.735,10.502,0.05,15.712,0.503c8.232,0.715,16.475,0.327,24.708,0.529
		c2.952,0.072,5.967,0.054,8.925,0.105c6.859,0.121,13.758-0.392,20.587,0.729c0.733,0.12,1.507,0.143,2.244,0.058
		c3.33-0.381,6.631-0.011,9.938,0.286c0.41,0.036,0.838,0.038,1.24-0.037c1.915-0.36,3.804-0.261,5.706,0.135
		c0.721,0.15,1.521,0.204,2.232,0.052c2.9-0.618,5.779-0.173,8.665,0.028c0.249,0.018,0.499,0.045,0.749,0.042
		c8.475-0.11,16.941,0.201,25.409,0.509c1.166,0.042,2.327-0.014,3.478-0.281c1.396-0.323,2.847-0.387,4.225-0.116
		c2.402,0.472,4.809,0.398,7.221,0.399c16.833,0.006,33.666-0.054,50.498,0.044c4.148,0.023,8.305-0.307,12.465,0.328
		c1.933,0.295,3.947-0.349,5.951-0.414c4.15-0.134,8.328,0.438,12.456-0.417c0.48-0.1,1.011-0.108,1.495-0.026
		c6.727,1.147,13.449-0.435,20.176-0.025c1.411,0.086,2.831,0.045,4.223-0.318c0.396-0.104,0.865-0.212,1.233-0.1
		c2.614,0.797,5.29-0.059,7.932,0.366c1.891,0.305,3.765-0.515,5.706-0.466c3.997,0.101,7.998,0.054,11.998,0.022
		c2.992-0.022,5.978,0.084,8.973-0.389c1.863-0.295,3.831-0.149,5.729,0.032c3.338,0.32,6.619,0.087,9.892-0.55
		c0.324-0.063,0.666-0.086,0.996-0.065c8.476,0.562,16.904-0.706,25.381-0.65c4.212,0.028,8.473-0.479,12.709-0.332
		c4.489,0.154,8.979-0.51,13.419-0.232c5.937,0.371,11.704-1.633,17.616-0.806c0,13,0,26,0,39c-1.021,1.301-2.498,1.188-3.898,1.19
		c-5.664,0.01-11.328,0.096-16.991,0.015c-4.917-0.071-9.813,0.233-14.719,0.467c-3.473,0.166-6.95-0.189-10.444-0.157
		c-9.238,0.085-18.451,0.871-27.705,0.648c-5.891-0.142-11.83,0.266-17.72,0.193c-9.075-0.111-18.122,0.567-27.194,0.387
		c-9.148-0.181-18.305-0.141-27.458-0.075c-8.659,0.062-17.323,0.202-25.975-0.036c-5.647-0.155-11.295,0.117-16.909-0.088
		c-5.979-0.218-11.975-0.181-17.957-0.568c-3.367-0.218-6.81-0.411-10.193,0.02c-2.772,0.353-5.466-0.393-8.22-0.298
		c-11.491,0.396-22.978-0.272-34.452-0.625c-10.158-0.313-20.313-0.038-30.456-0.409c-11.304-0.413-22.607-0.848-33.91-1.319
		c-4.654-0.194-9.292-0.662-13.963-0.66c-9.645,0.004-19.283-0.651-28.92-0.73c-10.077-0.083-20.084-1.225-30.157-1.355
		c-5.553-0.072-11.146-0.536-16.7-0.566c-4.926-0.026-9.778-0.798-14.673-0.78c-9.915,0.036-19.77-1.106-29.673-1.337
		c-12.222-0.284-24.427-1.036-36.609-2.116c-2.736-0.242-5.507-0.228-8.241-0.039c-3.778,0.262-7.411-0.581-11.091-1.034
		c-1.161-0.04-1.988-0.638-2.733-1.51c-3.854-4.518-8.37-8.321-12.952-12.068c-1.806-1.477-3.521-1.603-5.501-0.57
		c-1.184,0.618-2.35,1.234-3.39,2.096c-0.878,0.727-1.716,1.631-3.047,1.458c-1.793-0.543-3.608-0.032-5.379,0.049
		c-3.132,0.144-6.236-0.905-9.364-0.11c-0.381,0.097-0.792-0.185-1.153-0.388c-1.105-0.674-1.369-1.859-1.688-2.959
		c-2.344-8.102-6.156-15.441-11.351-22.073C388.498,98.725,387.569,97.871,388.413,96.555z"/>
	<path fill-rule="evenodd" fill="#C23838" d="M960,247.988c0,0.5,0,1,0,1.5c-1.157,0.834-2.379,0.6-3.58,0.164
		c-14.629-5.315-29.436-10.205-43.26-17.493c-6.993-3.687-13.865-7.551-21.413-10.117c-5.755-1.957-11.722-2.495-17.631-3.27
		c-8.233-1.078-16.553-1.483-24.784-2.667c-2.236-0.322-4.396-1.075-6.456-1.874c-4.843-1.877-10.054-2.486-14.841-4.311
		c-6.605-2.518-13.322-2.406-20.135-2.25c-7.745,0.179-15.433-1.173-23.174-0.963c-7.645,0.207-15.232,0.807-22.798,2.212
		c-5.928,1.101-11.775,2.454-17.624,3.862c-3.005,0.724-5.697,2.269-8.689,3.095c-4.062,1.12-8.204,1.336-12.325,1.767
		c-5.589,0.584-10.917,2.248-16.252,3.79c-6.122,1.77-11.769,4.907-18.147,6.109c-5.072,0.956-9.665,3.579-14.468,5.458
		c-9.445,3.696-19.266,5.845-29.21,7.516c-4.553,0.765-8.506-1.301-12.29-3.402c-8.55-4.747-17.284-9.133-25.946-13.661
		c-2.163-1.131-4.621-1.31-6.886-2.113c-8.498-3.534-17.196-6.146-26.522-6.195c-3.834-0.021-7.53-1.253-11.372-1.533
		c-4.67-0.342-9.292-0.517-13.947,0.06c-3.896,0.482-7.81-0.068-11.717,0.011c-5.584,0.113-11.137,0.445-16.648,1.424
		c-1.916,0.341-3.726,0.861-5.394,1.86c-0.502,0.301-1.008,0.637-1.583,0.727c-5.162,0.806-10.115,2.681-15.369,3.01
		c-0.917,0.058-1.872,0.009-2.703,0.406c-4.426,2.112-9.27,3.317-13.356,6.16c-5.708,2.225-11.368,4.598-17.213,6.438
		c-10.108,3.183-20.015,2.467-29.656-1.934c-1.599-0.729-3.336-1.027-4.999-1.562c-5.549-1.79-10.841-4.167-16.12-6.609
		c-6.558-3.034-13.238-5.808-20.071-8.142c-6.356-2.172-12.623-4.704-19.197-6.136c-6.42-1.398-12.986-1.724-19.556-1.825
		c-3.073-0.047-6.159-0.144-9.184-0.756c-1.494-0.303-2.979-0.219-4.473-0.27c-6.21-0.214-12.412-0.627-18.622-0.841
		c-0.416-0.015-0.915-0.202-1.234-0.006c-3.296,2.023-7.008,0.69-10.472,1.346c-6.535,1.238-13.147,2.051-19.649,3.458
		c-4.514,0.978-9.165,0.323-13.654,1.284c-5.404,1.157-11.001,0.7-16.343,1.677c-9.257,1.694-18.652,2.171-27.9,3.952
		c-8.231,1.585-16.61,2.547-25.072,2.403c-4.809-0.082-9.672,0.542-14.319,1.507c-4.5,0.934-9.083,2.037-13.393,3.901
		c-4.779,2.066-10.057,2.213-15.011,3.692c-5.256,1.57-10.654,2.63-15.96,4.058c-6.979,1.878-14.104,3.161-21.271,4.268
		c-7.555,1.166-15.039,2.854-22.626,3.807c-7.594,0.954-15.098,2.449-22.699,3.382c-5.261,0.646-10.498,1.735-15.76,2.515
		c-6.75,1.001-13.37,2.721-20.124,3.628c-10.986,1.476-21.701,4.431-32.675,5.884c-3.805,0.503-7.531,1.342-11.31,1.931
		c-1.16,0.181-2.147,0.159-2.919-0.83c0-2.333,0-4.667,0-7c0.98-1.21,2.399-1.444,3.8-1.618c14.604-1.819,28.73-5.465,42.451-10.795
		c6.356-2.47,13.101-3.934,19.322-6.725c15.147-6.796,31.128-10.567,47.302-13.801c7.178-1.435,14.086-3.964,21.163-5.833
		c1.915-0.505,3.948-0.691,5.692-1.769c10.335-1.666,19.305-6.948,28.868-10.69c6.473-2.532,12.312-6.139,18.562-8.96
		c4.015-1.812,8.462-3.083,13.09-2.187c2.272,0.439,4.477-0.17,6.687-0.461c6.744-0.889,13.369-2.545,20.259-2.511
		c3.134,0.016,6.131-1.438,9.101-2.504c1.773-0.637,3.865-0.369,5.332-1.865c4.792-1.757,9.795-2.14,14.836-2.604
		c4.099-0.377,7.866-2.354,11.745-3.727c3.767-1.156,7.682-0.923,11.542-1.158c1.204-0.073,2.235-0.431,3.265-0.945
		c0.474-0.224,0.943-0.46,1.416-0.689c1.783-0.869,3.68-1.419,5.565-2.01c3.537,1.565,7.57,0.842,11.161,2.588
		c1.806,0.879,4.198,0.181,6.301-0.101c1.084-0.146,2.167-0.401,3.212-0.076c4.256,1.326,8.762,0.985,13.031,1.913
		c4.61,1.001,9.393,1.27,13.833,3.054c1.64,0.659,3.563,0.366,5.116,0.997c3.604,1.464,7.524,1.599,11.127,3.206
		c3.462,1.545,7.397,1.824,11.147,2.58c7.573,1.528,15.316,1.734,22.893,3.496c5.03,1.17,10.303,1.718,15.485,2.427
		c9.17,1.255,17.628,4.857,25.792,9.066c7.171,3.697,14.232,7.598,21.559,11.003c3.993,1.855,7.579,4.502,11.333,6.81
		c4.047,2.488,8.22,4.735,12.326,7.108c1.143,0.66,2.283,0.799,3.591,0.467c3.68-0.931,7.128-2.281,10.045-4.803
		c3.349-2.896,7.666-4.368,10.924-7.422c1.455-1.364,2.995-2.659,4.628-3.806c3.102-2.179,6.368-3.143,10.054-1.276
		c2.792,1.415,5.656,1.243,8.395-0.241c1.762-0.955,3.444-1.169,5.476-0.663c4.687,1.17,9.089-0.387,13.306-2.217
		c7.09-3.075,7.073-3.188,13.403,1.026c7.069,4.708,14.832,6.868,23.314,7.064c8.562,0.199,16.729,2.444,24.686,5.576
		c4.435,1.746,8.592,4.018,12.809,6.184c7.409,3.808,15.096,7.053,22.441,10.981c4.448,2.38,8.966,2.367,13.753,1.313
		c6.502-1.431,12.911-3.132,19.229-5.225c1.009-0.334,1.662-1.068,2.523-1.539c0.217-0.14,0.451-0.25,0.684-0.359
		c0.789-0.279,1.57-0.593,2.351-0.906c0.452-0.17,0.849-0.457,1.297-0.633c2.976-0.378,5.418-1.83,7.605-3.794
		c2.12-1.327,4.328-2.622,6.699-3.269c15.987-4.365,29.47-13.292,42.45-23.123c1.857-1.406,4.187-2.037,5.773-3.811
		c3.98-2.696,8.576-3.894,13.065-5.339c0.944-0.304,1.919-0.521,2.87-0.813c0.751-0.188,1.523-0.215,2.288-0.298
		c0.519-0.049,1.02-0.185,1.529-0.284c0.935-0.146,1.876-0.147,2.818-0.193c2.125-0.101,4.263,0.126,6.374-0.273
		c0.982-0.172,1.975-0.202,2.969-0.232c1.439-0.032,2.884,0.018,4.304-0.294c1.273-0.117,2.548-0.097,3.821-0.021
		c0.664,0.083,1.312,0.273,1.982,0.302c1.211,0.108,2.424,0.143,3.638,0.005c0.489-0.045,0.967-0.15,1.442-0.27
		c0.744-0.135,1.497-0.17,2.249-0.223c0.646-0.024,1.275-0.158,1.903-0.294c1.173-0.131,2.354-0.096,3.527-0.197
		c0.814-0.025,1.619-0.116,2.412-0.301c1.229-0.158,2.468-0.121,3.702-0.199c1.423-0.048,2.852,0.02,4.254-0.293
		c1.119-0.12,2.24-0.101,3.362-0.029c0.543,0.054,1.064,0.229,1.607,0.283c0.662,0.062,1.321,0.148,1.973,0.287
		c0.388,0.092,0.777,0.168,1.173,0.22c1.858,0.318,3.739,0.11,5.606,0.243c1.529,0.33,3.084,0.23,4.627,0.294
		c0.949,0.045,1.9,0.056,2.839,0.229c7.55,2.003,13.954,6.574,21.088,9.459c8.069,3.264,16.018,6.913,24.473,9.172
		c1.001,1.328,2.608,1.342,3.994,1.826c12.854,4.484,24.879,10.728,36.787,17.238c3.353,1.833,6.97,3.156,10.416,4.816
		c6.599,3.179,12.972,6.793,19.459,10.188c4.864,2.546,9.742,5.087,14.838,7.155C958.457,245.933,959.41,246.724,960,247.988z"/>
	<path fill-rule="evenodd" fill="#4A7351" d="M0,82.988c2.141,0.282,4.292,0.5,6.42,0.859c3.697,0.625,7.434,0.611,11.154,0.875
		c5.787,0.41,11.607,0.312,17.354,1.522c3.139,0.661,6.442,0.624,9.677,0.719c5.318,0.157,10.618,0.297,15.871,1.332
		c2.35,0.463,4.786,0.532,7.189,0.669c2.403,0.137,4.808,0.145,7.217,0.328c1.944,0.148,3.936-0.104,5.925,0.161
		c3.783,0.504,7.553,1.138,11.374,1.327c0.996,0.049,1.989,0.202,2.983,0.196c5.832-0.033,11.608,0.593,17.379,1.354
		c2.467,0.326,4.961,0.603,7.445,0.623c6.328,0.053,12.597,0.681,18.878,1.378c3.039,0.337,6.118,0.551,9.189,0.72
		c6.129,0.338,12.289,0.5,18.352,1.658c0.732,0.14,1.48,0.228,2.226,0.265c8.129,0.411,16.246,0.922,24.338,1.882
		c3.201,0.379,6.47,0.248,9.695,0.624c6.022,0.701,12.105,0.47,18.135,1.324c2.768,0.393,5.607,0.722,8.438,0.676
		c4.583-0.074,9.114,0.545,13.669,0.871c2.98,0.213,5.942,0.637,8.946,0.69c3.229,0.057,6.45,0.519,9.674,0.806
		c0.414,0.037,0.829,0.126,1.241,0.118c6.588-0.13,13.098,0.749,19.615,1.522c1.271,1.219,0.274,2.356-0.247,3.38
		c-3.203,6.29-5.258,12.939-6.127,19.92c-0.459,3.688-1.25,7.393-0.531,11.149c0.148,1.369,0.086,2.747,0.196,4.12
		c-0.013,0.758,0.188,1.508,0.058,2.27c-0.176,0.638-0.553,1.15-1.002,1.617c-2.836,1.285-5.779,0.338-8.587,0.095
		c-5.732-0.496-11.475-0.291-17.207-0.73c-5.304-0.406-10.636-0.615-15.917-1.226c-5.143-0.595-10.306-0.497-15.448-0.754
		c-11.295-0.563-22.548-1.774-33.857-2.059c-9.73-0.244-19.4-1.459-29.144-1.667c-7.305-0.155-14.597-0.993-21.886-1.665
		c-4.215-0.388-8.461-0.768-12.701-0.698c-6.097,0.101-12.137-0.595-18.172-1.185c-5.312-0.52-10.637-0.463-15.948-0.733
		c-10.63-0.542-21.214-1.773-31.857-2.013c-8.904-0.2-17.756-1.19-26.644-1.644c-7.881-0.402-15.784-0.49-23.634-1.459
		c-1.474-0.182-2.765-0.536-3.728-1.719C0,114.655,0,98.821,0,82.988z"/>
	<path fill-rule="evenodd" fill="#BA3637" d="M0,257.488c1.152-0.165,2.317-0.268,3.454-0.506
		c9.442-1.974,19.072-2.887,28.466-5.174c6.865-1.671,13.936-2.306,20.88-3.63c2.524-0.481,5.088-0.806,7.545-1.562
		c2.106-0.647,4.294-0.492,6.415-0.928c4.882-1.003,9.902-1.183,14.735-2.525c1.511-0.419,3.156-0.466,4.7-0.493
		c4.053-0.068,7.816-1.698,11.809-1.916c3.333-0.182,6.595-0.846,9.883-1.317c2.542-0.364,5.065-0.86,7.609-1.25
		c4.186-0.64,8.311-1.685,12.5-2.297c3.787-0.554,7.548-1.225,11.312-1.891c1.31-0.232,2.636-0.453,3.896-0.861
		c3.4-1.104,6.907-1.799,10.354-2.709c4.819-1.273,9.707-2.295,14.507-3.667c1.354-0.387,2.775-0.547,4.172-0.767
		c3.635-0.571,7.106-1.676,10.501-3.079c0.992-0.41,2.078-0.595,3.116-0.897c2.39-0.697,4.92-0.906,7.17-2.093
		c0.288-0.152,0.636-0.272,0.956-0.272c3.991,0.008,7.926-1.013,11.854-1.054c8.017-0.085,15.945-0.723,23.844-1.996
		c4.761-0.767,9.533-1.47,14.288-2.273c1.324-0.224,2.636-0.388,3.971-0.338c1.681,0.062,3.298-0.289,4.945-0.559
		c4.084-0.67,8.168-1.937,12.281-1.701c4.921,0.282,9.536-1.157,14.308-1.617c1.989-0.192,4.008-0.33,5.97-0.33
		c2.542,0.001,4.957-0.541,7.397-0.948c4.013-0.669,7.956-1.74,12.053-1.933c1.483-0.07,2.84-0.824,4.356-1.01
		c2.409-0.295,4.789-0.597,7.204-0.207c0.901,0.145,1.619-0.244,2.323-0.714c0.771-0.516,1.594-1.062,2.544-0.84
		c4.034,0.946,8.121,0.197,12.174,0.458c0.249,0.016,0.538-0.076,0.743,0.021c2.798,1.325,5.718,0.292,8.573,0.465
		c0.497,0.03,1.032-0.031,1.48,0.135c2.881,1.067,5.95,0.928,8.895,1.018c2.973,0.091,5.954,0.502,8.944,0.27
		c1.503-0.117,2.989,0.047,4.431,0.569c0.54,0.195,1.184,0.439,1.697,0.315c2.949-0.708,5.525,0.699,8.261,1.261
		c2.553,0.524,4.882,1.625,7.329,2.373c2.118,0.647,4.25,1.229,6.341,1.995c1.716,0.628,3.427,1.346,5.168,1.828
		c4.022,1.113,7.59,3.358,11.621,4.402c2.274,0.589,3.993,2.378,6.31,2.9c3.037,0.685,5.43,2.824,8.343,3.789
		c4.013,1.329,7.854,3.163,12.008,4.072c0.404,0.088,0.864,0.112,1.193,0.326c3.881,2.525,8.422,2.989,12.768,3.953
		c2.053,0.455,4.292,0.258,6.429,0.101c3.822-0.281,7.613-0.914,11.257-2.122c4.651-1.542,9.492-2.629,13.643-5.452
		c0.602-0.409,1.382-0.554,2.079-0.822c0.61,1.808-0.908,2.337-1.942,3.014c-5.398,3.53-11.192,6.387-17.337,8.209
		c-9.535,2.827-18.603,6.79-27.771,10.531c-4.246,1.732-8.552,3.312-12.997,4.437c-4.623,1.169-9.289,0.498-13.893-0.192
		c-6.433-0.965-12.915-1.3-19.386-1.735c-3.745-0.252-7.414-1.137-11.172-1.158c-4.99-0.029-9.951-0.509-14.922-0.871
		c-7.538-0.548-15.062-1.295-22.603-1.768c-12.807-0.804-25.433-3.112-38.188-4.35c-9.59-0.932-19.15-2.186-28.43-4.983
		c-2.949-0.889-5.812-2.028-8.738-2.983c-4.275-1.396-8.181-0.173-12.192,0.782c-3.416,0.813-6.917,1.228-10.328,1.946
		c-4.839,1.02-9.561,0.271-14.335,0.21c-0.587-0.007-1.172,0.053-1.722,0.261c-6.245,2.358-12.606,1.54-18.97,0.714
		c-2.491-0.368-4.852,0.199-7.011,1.331c-5.631,2.951-11.585,5.016-17.565,7.126c-4.767,1.683-9.551,3.313-14.304,5.006
		c-8.901,3.171-18.226,3.794-27.329,5.695c-6.889,1.439-13.912,1.249-20.856,1.977c-3.148,0.331-6.312,0.393-9.464,0.6
		c-5.101,0.336-9.594,2.413-13.571,5.614c-13.663,1.337-27.097,4.515-40.885,4.887c-7.237,0.195-14.422,1.04-21.546,2.473
		c-3.577,0.719-7.263,1.062-10.93,0.917c-6.256-0.247-12.472,0.64-18.718,0.507c-1.402-0.03-2.876,0.104-3.898-1.198
		C0,267.821,0,262.655,0,257.488z"/>
	<path fill-rule="evenodd" fill="#49704E" d="M445.03,134.479c6.243,1.453,12.593,0.855,18.905,1.041
		c3.15,0.093,6.29,0.52,9.435,0.799c0.414,0.036,0.83,0.16,1.239,0.136c4.589-0.268,9.125,0.629,13.712,0.581
		c2.814-0.029,5.62,0.51,8.46,0.521c3.479,0.015,6.961,0.245,10.437,0.36c5.323,0.176,10.624,0.487,15.925,0.983
		c2.148,0.202,4.331,0.134,6.494,0.072c3.596-0.103,7.137,0.383,10.685,0.833c0.494,0.062,1.027,0.218,1.483,0.101
		c2.325-0.595,4.632,0.029,6.93-0.01c6.254-0.106,12.465,0.704,18.713,0.608c4.659-0.071,9.286,0.541,13.928,0.866
		c3.146,0.22,6.312,0.143,9.47,0.19c1.825,0.027,3.697-0.218,5.466,0.108c3.719,0.686,7.509,0.55,11.195,0.561
		c5.644,0.017,11.277,0.427,16.927,0.335c4.636-0.075,9.299,0.282,13.926,0.827c0.742,0.087,1.497,0.098,2.245,0.09
		c8.324-0.078,16.631,0.247,24.924,0.972c0.662,0.058,1.333,0.004,1.998,0.036c3.902,0.188,7.809-0.036,11.705-0.084
		c11.413-0.14,22.812,0.413,34.206,0.726c7.907,0.217,15.831-0.108,23.705,0.478c3.739,0.278,7.468-0.724,11.155,0.25
		c4.734-0.818,9.443,0.54,14.184,0.16c2.148-0.173,4.316-0.081,6.469,0.355c1.037,0.21,2.183,0.178,3.23-0.013
		c2.076-0.378,4.123-0.542,6.195-0.059c0.666,0.156,1.322-0.012,1.979-0.141c1.32-0.259,2.665-0.275,3.984-0.107
		c5.395,0.686,10.784,0.572,16.189,0.125c1.305-0.107,2.644,0.296,3.965,0.286c5.648-0.042,11.301,0.184,16.941-0.365
		c1.488-0.145,2.947,0.416,4.463,0.407c7.73-0.047,15.461,0.038,23.19-0.043c4.973-0.052,9.942-0.385,14.917-0.458
		c5.656-0.084,11.318,0.111,16.971-0.069c3.322-0.106,6.629,0.031,9.942,0.032c7.405,0.001,14.798-0.555,22.209-0.602
		c3.312-0.021,6.604-0.389,9.928,0.086c2.995,0.428,5.951-0.51,8.958-0.49c9.329,0.063,18.658,0.023,27.988,0.023c0,7.5,0,15,0,22.5
		c-1.223,1.495-3.088,1.543-4.613,1.377c-4.611-0.502-9.146,0.376-13.721,0.353c-7.499-0.039-15.003-0.17-22.498,0.021
		c-21.07,0.533-42.143,0.489-63.217,0.462c-9.244-0.012-18.505,0.343-27.73-0.105c-17.156-0.834-34.319,0.054-51.471-0.57
		c-12.064-0.439-24.142-0.568-36.203-0.982c-10.332-0.354-20.666,0.089-30.976-0.402c-13.888-0.662-27.798-0.707-41.669-1.557
		c-6.584-0.403-13.158-0.11-19.725-0.432c-9.807-0.481-19.631-0.592-29.425-1.325c-3.234-0.242-6.586,0.352-9.688-0.649
		c-3.966-1.279-7.824-0.452-11.75-0.202c-3.706,0.236-7.4-0.348-11.104-0.467c-11.613-0.374-23.213-1.049-34.829-1.375
		c-13.226-0.37-26.429-1.264-39.619-2.334c-3.239-0.263-6.498-0.124-9.746-0.077c-4.775,0.069-9.427-0.581-13.958-2.07
		c-1.963-1.911-4.328-2.908-7.027-3.429c-4.85-0.937-9.375-2.586-13.312-5.821c-3.843-3.156-8.688-4.43-13.3-6.02
		c-3.141-1.083-5.792-2.857-8.269-4.963C445.446,136.321,444.394,135.751,445.03,134.479z"/>
	<path fill-rule="evenodd" fill="#C03737" d="M600.492,219.992c2.631,0.53,5.037,1.705,7.459,2.771
		c3.416,1.503,6.639,3.417,9.771,5.435c1.987,1.279,4.184,2.061,6.278,3.058c4.133,1.968,8.038,4.357,12.241,6.21
		c4.074,1.796,8.01,2.146,12.371,1.311c12-2.299,23.605-5.755,34.773-10.716c2.819-1.252,5.78-2.13,8.836-2.654
		c3.314-0.568,6.39-1.819,9.321-3.424c1.991-1.09,4.22-1.708,6.334-2.182c4.3-0.965,8.456-2.542,12.844-3.097
		c3.462-0.438,6.933-0.828,10.407-1.146c2.348-0.216,4.652-0.805,6.738-1.707c3.468-1.5,7.072-2.403,10.679-3.382
		c0.639-0.173,1.271-0.408,1.865-0.699c1.072-0.523,2.144-0.889,3.366-0.622c0.392,0.085,0.922,0.157,1.217-0.032
		c3.115-1.997,6.797-0.797,10.103-1.854c3.257-1.041,6.699-1.092,10.11-1.347c4.623-0.346,9.249-0.677,13.858-0.365
		c4.226,0.286,8.478,0.204,12.683,0.823c0.818,0.121,1.661,0.111,2.492,0.113c4.394,0.012,8.782-0.258,13.182-0.028
		c3.088,0.162,6.076,0.336,8.961,1.745c1.838,0.897,3.954,1.351,5.997,1.673c3.243,0.51,6.251,1.701,9.349,2.665
		c3.387,1.053,6.68,2.42,10.359,2.56c2.625,0.1,5.234,0.812,7.887,1.097c2.56,0.276,5.136,0.418,7.695,0.692
		c2.303,0.247,4.646,0.282,6.949,0.616c4.278,0.621,8.626,0.993,12.801,2.043c6.379,1.605,12.492,3.993,18.281,7.244
		c10.25,5.756,20.89,10.687,31.961,14.703c7.435,2.697,14.824,5.519,22.338,7.994c0,2.5,0,5,0,7.5
		c-0.583,1.396-1.783,1.906-3.146,2.139c-9.915,1.695-19.751,3.85-29.878,4.173c-4.637,0.148-9.303,0.466-13.915,1.161
		c-1.644,0.208-3.161-0.111-4.46-1.172c-0.475-0.388-1-0.646-1.574-0.689c-6.32-0.48-11.901-3.72-18.064-4.8
		c-4.511-0.791-8.885-2.14-13.262-3.469c-5.097-1.548-10.08-3.396-15.035-5.343c-5.349-2.102-10.796-3.867-16.587-4.376
		c-2.896-0.254-5.78-0.793-8.626-1.325c-5.598-1.045-11.12-0.26-16.68-0.053c-10.447,0.388-20.626,2.693-30.856,4.481
		c-7.935,1.387-15.697,3.732-23.481,5.868c-1.047,0.288-2.089,0.61-3.184,0.578c-6.834-0.202-13.664,0.147-20.465,0.607
		c-11.392,0.77-22.846,0.274-34.175,1.182c-12.524,1.003-25.081,1.462-37.59,2.608c-2.179,0.2-4.503-0.65-6.476,0.949
		c-2.666,0.226-5.335,0.449-7.971-0.245c-6.149-3.586-10.933-8.564-15.197-14.236c-2.451-3.258-6.269-5.106-9.773-7.181
		c-7.348-4.35-14.58-8.896-22.06-13.026c-1.753-0.968-3.69-1.508-5.437-2.467C601.207,221.857,600.002,221.479,600.492,219.992z"/>
	<path fill-rule="evenodd" fill="#5A734D" d="M487.877,155.544c0.781,0.061,1.409,0.48,2.047,0.874
		c1.239,0.765,2.598,0.948,4.035,1.106c5.812,0.641,11.658,0.139,17.455,0.549c5.878,0.415,11.771,0.672,17.646,1.251
		c3.866,0.381,7.773,0.704,11.696,0.704c7.896,0.001,15.782,0.437,23.67,0.863c3.319,0.179,6.63,0.515,9.954,0.595
		c6.647,0.159,13.287,0.434,19.921,0.924c2.726,0.201,5.487,0.307,8.217-0.264c1.31-0.274,2.688-0.362,3.945,0.167
		c1.515,0.637,3.067,0.736,4.654,0.67c6.248-0.258,12.467,0.48,18.702,0.646c3.896,0.103,7.821,0.088,11.709,0.402
		c7.557,0.611,15.131,0.143,22.678,0.52c8.221,0.41,16.436,0.854,24.667,0.973c4.808,0.069,9.628,0.118,14.416,0.502
		c10.813,0.868,21.65-0.002,32.449,0.557c7.075,0.366,14.166-0.084,21.194,0.507c7.312,0.615,14.632,0.015,21.932,0.735
		c2.194,0.217,4.472,0.185,6.715,0.179c11.996-0.035,23.992-0.016,35.988-0.018c1.5,0,2.994-0.014,4.471,0.347
		c0.559,0.136,1.174,0.21,1.736,0.128c3.984-0.581,7.959,0.091,11.939,0.066c15.979-0.1,31.959-0.043,47.939-0.04
		c3.817,0.001,7.65,0.099,11.449-0.067c14.982-0.654,29.973-0.123,44.946-0.555c5.314-0.154,10.637-0.148,15.95-0.379
		c0,4.5,0,9,0,13.5c-0.794,1.061-1.94,1.22-3.134,1.165c-5.835-0.269-11.704-0.184-17.37,1.145c-9.68,2.271-19.794,3.02-28.92,7.28
		c-6.545,3.055-12.955,6.468-18.998,10.459c-1.949,1.288-4.045,2.141-6.201,2.457c-4.615,0.678-9.101,2.777-13.928,1.532
		c-2.96-0.093-5.624-1.328-8.316-2.323c-5.109-1.89-10.065-4.166-15.216-5.994c-2.653-0.941-5.29-2.28-7.787-3.735
		c-4.428-2.581-8.98-4.871-14.021-6.023c-0.806-0.483-1.767,0.046-2.578-0.399c-1.628-0.151-3.256-0.248-4.89-0.104
		c-2.007-0.573-4.096,0.129-6.107-0.391c-0.324-0.03-0.65-0.059-0.976-0.089c-0.438-0.388-1.043-0.096-1.509-0.372
		c-0.49-0.044-0.98-0.089-1.471-0.134c-1.237-0.364-2.477-0.332-3.717-0.015c-1.47-0.14-2.934-0.063-4.395,0.111
		c-1.154,0.48-2.43-0.145-3.577,0.395c-0.808,0.035-1.615,0.069-2.423,0.104c-1.169,0.474-2.452-0.125-3.616,0.387
		c-0.628,0.039-1.256,0.078-1.884,0.116c-0.639,0.392-1.436-0.048-2.064,0.396c-0.479,0.035-0.959,0.07-1.438,0.105
		c-1.146,0.273-2.289,0.289-3.434-0.01c-0.63-0.035-1.26-0.07-1.891-0.105c-1.424-0.333-2.849-0.342-4.272,0.003
		c-1.473-0.164-2.938-0.078-4.403,0.111c-0.829,0.414-1.789-0.066-2.614,0.382c-2.292,0.032-4.584,0.063-6.876,0.095
		c-0.814,0.469-1.788-0.067-2.602,0.41c-0.468,0.033-0.935,0.066-1.402,0.1c-0.661,0.398-1.469-0.002-2.132,0.389
		c-4.562,0.888-8.876,2.521-13.118,4.369c-0.91,0.396-1.816,0.8-2.725,1.2c-2.798,0.931-5.535,1.685-8.623,1.139
		c-2.238-0.395-4.402,1.151-6.709,1.309c-0.518,0.092-1.039,0.136-1.565,0.11c-6.865,0.299-13.616,1.173-19.993,3.947
		c-0.745,0.104-1.497,0.114-2.248,0.137c-3.148-0.288-5.965,0.291-8.417,2.549c-0.938,0.864-2.202,1.809-3.78,1.28
		c-1.379-0.677-2.52-1.696-3.408-2.888c-2.039-2.731-4.93-3.61-8.068-3.856c-7.527-0.591-14.979-1.691-21.691-5.288
		c-5.134-2.751-10.885-4.263-15.574-7.864c-3.638-2.793-6.863-6.058-10.293-9.087c-2.795-2.467-5.783-4.185-9.643-3.908
		c-1.314,0.094-2.421-0.455-3.494-1.144c-2.033-1.305-4.086-2.589-6.073-3.952c-2.603-1.785-5.467-2.29-8.351-1.603
		c-6.469,1.542-12.865,1.226-19.302-0.009c-2.6-0.498-5.147,0.02-7.663,0.638c-3.785,0.93-7.601,0.947-11.406,0.3
		c-4.768-0.811-9.63-1.204-14.393-1.334c-4.688-0.129-9.511,0.774-13.787,3.544c-4.412,2.858-9.33,4.428-14.729,3.316
		c-1.447-0.298-2.811,0.382-4.215,0.267c-7.506-0.615-14.901-1.347-20.725-7.141c-2.219-2.208-4.952-3.924-7.056-6.313
		C488.137,157.415,487.311,156.719,487.877,155.544z"/>
	<path fill-rule="evenodd" fill="#4D2828" d="M0,272.988c3.91,0.097,7.817,0.237,11.71-0.36c1.062-0.163,2.162-0.171,3.239-0.125
		c9.538,0.409,18.929-0.715,28.241-2.669c1.15-0.242,2.299-0.343,3.466-0.375c11.318-0.32,22.58-1.186,33.729-3.282
		c5.152-0.969,10.367-1.512,15.613-1.694c3.016-1.613,6.348-1.874,9.649-2.162c7.372-0.644,14.775-0.947,22.1-2.081
		c3.782-0.585,7.562-1.226,11.349-1.734c7.001-0.94,14.032-1.189,21.132-1.058c10.523,0.195,21.034,1.633,31.613,0.039
		c4.549-0.685,9.293-0.415,13.937-0.734c11.664-0.804,23.208,1.279,34.814,1.296c4.554,0.006,9.056,0.785,13.638,0.381
		c3.815-0.336,7.539,1.212,11.368,1.402c7.253,0.358,14.383,1.422,21.385,3.398c2.399,0.677,4.89,1.061,7.186,2.073
		c5.554,2.448,11.614,2.865,17.399,4.384c4.754,1.247,9.483,2.561,14.148,4.1c1.081,0.356,2.348,0.569,2.345,2.14
		c-0.836,0.093-1.653-0.011-2.481-0.15c-4.598-0.771-9.237-1.05-13.891-1.324c-5.552-0.327-11.13-0.437-16.648-1.28
		c-0.978-0.149-2.008-0.199-2.984-0.072c-4.401,0.574-8.791,0.6-13.188-0.019c-0.737-0.104-1.497-0.045-2.246-0.068
		c-4.236-0.129-8.466,0.214-12.709,0.053c-2.501-0.094-4.969-0.427-7.458-0.563c-4.609-0.25-9.116,0.629-13.653,1.179
		c-3.135,0.379-6.257,0.822-9.433,0.834c-5.654,0.021-11.325-0.338-16.955,0.498c-2.793,0.415-5.619,0.52-8.39,1.184
		c-3.645,0.874-7.35,1.433-11.126,1.303c-1.499-0.052-2.985,0.053-4.474,0.33c-1.643,0.306-3.349,0.334-4.978,0.041
		c-2.157-0.389-4.308-0.342-6.47-0.386c-3.911-0.081-7.82,0.048-11.737-0.152c-2.207-0.112-4.446,0.542-6.679,0.773
		c-5.585,0.579-10.929,2.199-16.231,3.896c-6.613,2.118-13.373,3.29-20.258,4.062c-5.114,0.573-10.228,1.213-15.303,2.177
		c-5.06,0.961-10.196,1.526-15.305,2.225c-4.366,0.598-8.743,1.115-13.109,1.707c-6.756,0.915-13.51,1.848-20.261,2.804
		c-6.341,0.897-12.664,1.934-19.017,2.726c-6.76,0.844-13.472,2.069-20.306,2.354c-4.165,0.172-8.197,1.367-12.277,2.175
		C6.982,302.924,3.56,304.023,0,304.488C0,293.988,0,283.488,0,272.988z"/>
	<path fill-rule="evenodd" fill="#797D4F" d="M241.981,181.952c-4.253,1.696-8.613,3.071-13.042,4.219
		c-0.869,0.225-1.819,0.238-2.725,0.197c-3.186-0.143-6.288,0.365-9.409,0.928c-4.416,0.795-8.859,1.45-13.304,2.073
		c-1.136,0.159-2.332,0.063-3.481-0.074c-4.882-0.582-9.374,0.79-13.717,2.761c-1.888,0.856-3.683,1.938-5.452,3.029
		c-3.196,1.971-6.452,3.687-10.201,4.474c-1.743,0.366-3.329,1.476-4.993,2.232c-4.543,2.067-9.098,4.108-13.631,6.197
		c-1.603,0.738-3.266,1.182-4.996,1.5c-2.366,0.436-4.706,1.015-7.056,1.533c-0.946,0.019-1.861-0.131-2.462-0.933
		c-2.958-3.953-7.402-5.098-11.835-5.745c-7.104-1.038-13.735-3.274-19.999-6.668c-2.629-1.425-5.14-1.866-8.117-0.932
		c-2.832,0.888-5.862,0.735-8.88,0.747c-5.212,0.021-10.483-0.351-15.661,0.716c-2.609,0.537-5.202,1.022-7.912,0.892
		c-2.785-0.134-5.274,1.49-8.035,1.697c-4.153,0.311-8.237,1.029-12.29,1.992c-2.542,0.604-4.938-0.501-7.331-1.087
		c-3.558-0.87-7.137-1.656-10.686-2.543c-3.556-0.889-6.736,0.188-10.021,1.101c-4.967,1.38-9.994,2.492-15.107,3.189
		c-0.63,0.086-1.139-0.14-1.638-0.458c0-11.667,0-23.333,0-35c0.599-0.668,1.318-0.866,2.231-0.823
		c13.463,0.628,26.952,0.513,40.394,1.919c5.684,0.595,11.471,0.595,17.213,0.653c7.419,0.076,14.778,0.953,22.169,1.38
		c4.07,0.234,8.155,0.524,12.215,0.563c11.667,0.111,23.253,1.39,34.883,1.985c5.733,0.293,11.493-0.066,17.216,0.604
		c13.157,1.54,26.426,1.177,39.612,2.339c6.623,0.584,13.258,1.146,19.932,1.23c8.653,0.109,17.277,0.981,25.896,1.763
		c2.581,0.234,5.167,0.024,7.739,0.271C240.768,179.994,242.084,180.151,241.981,181.952z"/>
	<path fill-rule="evenodd" fill="#EF4949" d="M0,202.988c1.154-0.722,2.379-1.072,3.771-1.08c2.606-0.016,4.959-1.4,7.543-1.569
		c3.204-0.208,6.062-1.678,9.113-2.445c1.924-0.484,3.761-0.606,5.654-0.168c4.857,1.125,9.729,2.192,14.553,3.448
		c2.183,0.568,4.292,0.666,6.36-0.118c3.189-1.208,6.576-0.903,9.847-1.46c1.239-0.21,2.436-0.482,3.625-0.877
		c2.136-0.71,4.267-1.182,6.598-0.866c2.069,0.28,4.088-0.622,6.129-0.988c2.639-0.473,5.261-0.808,7.936-0.428
		c0.082,0.012,0.168,0.028,0.249,0.017c4.862-0.716,9.786,0.292,14.641-0.533c0.736-0.125,1.542-0.201,2.166-0.559
		c2.248-1.292,4.372-0.729,6.392,0.39c3.729,2.066,7.695,3.584,11.601,5.248c1.316,0.561,2.64,0.841,4.066,1.029
		c4.538,0.599,9.013,1.578,13.307,3.205c1.998,0.758,3.415,2.316,4.735,3.952c0.521,0.646,1.124,1.226,1.689,1.836
		c-2.201,1.27-4.708,1.638-7.091,2.35c-5.425,1.621-10.886,3.12-16.327,4.685c-1.927,0.555-3.914,0.779-5.875,1.151
		c-8.183,1.553-16.217,3.708-24.25,5.892c-6.368,1.73-12.545,3.923-18.537,6.675c-1.586,0.729-3.213,1.394-4.87,1.942
		c-9.093,3.011-18.14,6.153-27.166,9.358c-8.82,3.131-17.999,4.833-27.2,6.379c-2.866,0.482-5.739,0.98-8.661,1.034
		C0,234.655,0,218.821,0,202.988z"/>
	<path fill-rule="evenodd" fill="#3B2525" d="M913.035,263.012c13.07-0.725,26.132-1.538,38.981-4.258
		c2.666-0.564,5.419-0.744,7.983-1.766c0,14,0,28,0,42c-3.756,0.321-7.451-0.602-11.2-0.555c-1.698,0.021-3.173-0.907-4.676-1.628
		c-2.54-1.219-4.931-2.851-7.84-3.103c-4.985-0.431-9.842-1.566-14.741-2.499c-2.095-0.399-4.324-0.024-6.471-0.23
		c-4.799-0.46-9.549-1.171-13.861-3.587c-1.741-0.976-3.558-1.818-5.354-2.69c-0.52-0.252-1.088-0.562-1.636-0.567
		c-3.721-0.035-7.54-0.812-11.097,0.79c-5.007,2.255-10.364,2.101-15.639,2.568c-0.826,0.073-1.665,0.041-2.496,0.011
		c-4.673-0.172-9.268,0.381-13.895,1.051c-7.387,1.07-14.733,2.416-22.262,2.588c-4.31,0.099-8.634,0.356-12.954,0.348
		c-5.426-0.01-10.808-0.469-15.889-2.593c-1.795-0.751-3.445-0.698-5.295-0.073c-10.601,3.59-11.463,3.696-22.725,3.14
		c-2.066-0.102-4.149-0.367-6.026-1.397c0.794-1.635,2.421-1.502,3.83-1.745c4.9-0.846,9.495-2.63,14.069-4.485
		c5.531-1.213,11.102-2.234,16.711-2.951c3.098-0.395,6.019-1.305,8.951-2.209c7.977-2.46,16.143-4.02,24.35-5.437
		c5.283-0.912,10.178-3.103,15.189-4.898c6.072-2.175,12.287-3.743,18.781-3.533c10.953,0.355,21.775-0.659,32.522-2.699
		c2.786-0.529,5.551-0.31,8.283,0.366C910.104,263.334,911.564,263.401,913.035,263.012z"/>
	<path fill-rule="evenodd" fill="#F65050" d="M871.449,205.027c0.228-0.104,0.449-0.288,0.682-0.301
		c3.785-0.211,7.33-1.679,11.142-1.976c2.629-0.205,5.354-1.025,7.633-2.76c1.382-1.052,2.933-1.898,4.462-2.738
		c4.662-2.562,9.346-5.09,14.034-7.604c3.03-1.625,6.276-2.589,9.659-3.211c2.529-0.465,4.982-1.367,7.519-1.765
		c3.773-0.593,7.432-1.819,11.156-2.352c4.315-0.618,8.608-1.608,13.094-1.422c3.027,0.126,6.113,0.285,9.171,0.091
		c0,22.333,0,44.667,0,67c-6.625-2.726-13.031-5.914-19.379-9.219c-5.387-2.805-10.703-5.746-16.119-8.49
		c-3.56-1.803-7.279-3.285-10.857-5.053c-3.877-1.914-7.705-3.934-11.496-6.013c-6.426-3.524-12.93-6.852-19.879-9.26
		c-2.906-1.007-5.73-2.25-8.582-3.41C872.842,206.2,871.984,205.843,871.449,205.027z"/>
	<path fill-rule="evenodd" fill="#5B7851" d="M0,130.488c6.35,0.799,12.717,1.531,19.117,1.504c3.917-0.017,7.782,0.56,11.695,0.558
		c2.892-0.002,5.784,0.508,8.675,0.791c0.414,0.041,0.831,0.143,1.241,0.121c4.252-0.228,8.473,0.407,12.697,0.645
		c4.24,0.239,8.513-0.026,12.698,0.484c4.708,0.574,9.443,0.691,14.139,1.293c0.247,0.032,0.498,0.085,0.745,0.072
		c4.833-0.262,9.62,0.699,14.452,0.541c3.917-0.127,7.789,0.447,11.672,0.855c2.56,0.27,5.14,0.664,7.697,0.583
		c5.587-0.178,11.134,0.438,16.699,0.623c4.305,0.143,8.592,0.825,12.887,1.27c0.331,0.034,0.663,0.137,0.99,0.121
		c4.667-0.231,9.286,0.57,13.951,0.611c4.304,0.038,8.624,0.337,12.922,0.801c3.135,0.338,6.312,0.298,9.445,0.653
		c7.354,0.833,14.799-0.019,22.134,1.336c2.678,0.495,5.482,0.459,8.196,0.507c5.242,0.092,10.451,0.826,15.699,0.641
		c3.169-0.112,6.296,0.437,9.429,0.802c2.561,0.298,5.15,0.448,7.698,0.552c4.402,0.18,8.794,0.664,13.203,0.627
		c5.496-0.045,10.947,0.573,16.411,1.006c0.237-0.183,0.495-0.217,0.773-0.106c0.541,0.258,0.808,0.746,1.053,1.252
		c0.273,0.653,0.308,1.353,0.396,2.043c0.192,1.548,0.61,3.046,1.035,4.539c0.314,1.103,0.329,2.095-0.614,2.914
		c-1.879,1.055-3.805,0.092-5.683,0.028c-5.336-0.181-10.662-0.585-16.008-0.734c-6.72-0.187-13.431-0.854-20.143-1.284
		c-5.275-0.338-10.582-0.494-15.877-0.64c-6.839-0.188-13.64-0.966-20.464-1.392c-4.863-0.303-9.731-0.145-14.605-0.494
		c-5.359-0.384-10.751-0.617-16.087-1.167c-5.794-0.598-11.583-0.253-17.363-0.633c-11.162-0.735-22.293-1.847-33.507-1.91
		c-7.261-0.041-14.519-0.845-21.762-1.545c-2.014-0.194-4.047-0.385-6.077-0.345c-9.561,0.185-19.048-0.895-28.557-1.607
		c-3.069-0.23-6.15-0.391-9.22-0.383c-10.728,0.027-21.393-1.057-32.085-1.63c-4.071-0.219-8.146-0.43-12.222-0.374
		c-2.054,0.028-4.005-0.655-6.042-0.631c-0.67,0.008-0.997-0.53-1.431-0.898C0,138.488,0,134.488,0,130.488z"/>
	<path fill-rule="evenodd" fill="#6E7A4F" d="M241.981,181.952c-0.852-0.801-1.904-0.97-3.015-0.959
		c-7.25,0.071-14.428-0.911-21.641-1.382c-4.058-0.265-8.127-0.653-12.204-0.611c-5.084,0.052-10.122-0.508-15.18-0.881
		c-2.98-0.22-5.985-0.37-8.948-0.693c-5.157-0.562-10.334-0.085-15.461-0.532c-5.794-0.504-11.608-0.646-17.402-1.272
		c-5.189-0.561-10.453-0.608-15.698-0.713c-6.554-0.131-13.137-0.245-19.642-1.307c-0.246-0.04-0.498-0.091-0.744-0.079
		c-5.169,0.25-10.293-0.571-15.461-0.595c-5.561-0.025-11.122-0.452-16.679-0.812c-3.315-0.214-6.657-0.301-9.949-0.68
		c-6.381-0.734-12.809-0.086-19.179-0.881c-1.396-0.174-2.831-0.102-4.245-0.058c-3.512,0.11-6.971-0.378-10.433-0.844
		c-0.413-0.056-0.827-0.137-1.24-0.139c-5.659-0.019-11.288-0.732-16.962-0.564c-4.981,0.148-9.949-0.604-14.942-0.514
		c-0.982,0.018-1.971-0.291-2.957-0.449c0-2.5,0-5,0-7.5c0.688-0.868,1.602-1.097,2.667-1.021
		c12.356,0.886,24.766,0.866,37.096,2.217c2.068,0.227,4.161,0.085,6.242,0.082c8.826-0.016,17.606,0.782,26.397,1.407
		c7.967,0.567,15.955,0.717,23.933,1.058c6.485,0.278,12.941,0.86,19.408,1.337c5.474,0.404,10.971,0.411,16.455,0.61
		c7.322,0.267,14.595,1.076,21.9,1.466c1.248,0.066,2.495,0.148,3.743,0.117c9.069-0.231,18.063,0.956,27.097,1.362
		c4.072,0.184,8.128,0.652,12.209,0.645c7.497-0.013,14.933,0.983,22.407,1.343c4.735,0.228,9.472,0.43,14.208,0.614
		c10.808,0.422,21.574,1.412,32.359,2.14c1.104,0.075,2.202,0.255,2.431,1.658c-3.235,0.793-6.234,2.217-9.284,3.5
		c-0.7,0.294-1.407,0.499-2.169,0.463c-2.666-0.123-5.288,0.458-7.944,0.496c-1.447,0.021-2.721,0.694-4.075,1.068
		C244.042,181.337,243.014,181.651,241.981,181.952z"/>
	<path fill-rule="evenodd" fill="#657950" d="M0,154.488c0-1.833,0-3.667,0-5.5c0.842-0.969,1.997-0.817,3.034-0.682
		c6.861,0.899,13.781,0.823,20.665,1.324c5.395,0.392,10.808,0.04,16.214,0.602c13.083,1.359,26.254,1.308,39.364,2.188
		c9.301,0.625,18.593,1.131,27.908,1.451c7.808,0.268,15.596,1.082,23.387,1.741c4.975,0.421,9.973,0.225,14.965,0.558
		c6.556,0.438,13.114,0.769,19.658,1.436c4.88,0.498,9.807,0.327,14.712,0.557c10.39,0.487,20.73,1.688,31.124,2.003
		c9.151,0.276,18.261,1.189,27.399,1.674c9.631,0.511,19.283,0.701,28.89,1.758c4.116,0.453,8.307,0.213,12.432,0.817
		c2.427,0.751,4.229,3.979,3.681,6.586c-0.795,1.02-1.936,0.775-2.954,0.692c-8.628-0.711-17.261-1.29-25.921-1.472
		c-7.628-0.161-15.211-1.024-22.812-1.609c-0.746-0.058-1.491-0.142-2.235-0.121c-10.328,0.295-20.574-0.962-30.855-1.567
		c-4.979-0.293-9.96-0.614-14.951-0.722c-6.49-0.14-12.954-0.68-19.415-1.292c-4.804-0.456-9.645-0.471-14.454-0.583
		c-8.914-0.209-17.755-1.201-26.632-1.772c-0.581-0.038-1.162-0.187-1.741-0.128c-7.586,0.769-15.053-0.867-22.589-1.126
		c-6.731-0.231-13.43-0.972-20.173-1.179c-8.223-0.253-16.436-0.926-24.652-1.423c-8.462-0.513-16.956-0.636-25.418-1.101
		c-8.464-0.465-16.899-1.474-25.396-1.473C1.894,156.125,0.851,155.483,0,154.488z"/>
	<path fill-rule="evenodd" fill="#607951" d="M280.069,164.848c-1.014,0.817-2.208,0.751-3.344,0.51
		c-1.649-0.35-3.302-0.403-4.968-0.366c-4.003,0.087-7.957-0.453-11.922-0.878c-2.974-0.319-5.985-0.397-8.952-0.485
		c-5.153-0.153-10.295-0.517-15.446-0.675c-3.48-0.106-6.951-0.533-10.425-0.82c-0.332-0.027-0.665-0.129-0.991-0.109
		c-4.087,0.247-8.148-0.34-12.196-0.633c-6.625-0.48-13.275-0.438-19.891-1.251c-3.52-0.432-7.129-0.495-10.685-0.741
		c-7.54-0.521-15.132-0.006-22.635-1.284c-2.688-0.458-5.482-0.439-8.198-0.5c-5.488-0.122-10.948-0.704-16.448-0.691
		c-5.64,0.013-11.275-0.575-16.884-1.266c-0.988-0.122-1.991-0.149-2.987-0.164c-1.996-0.028-3.974-0.073-5.967-0.379
		c-2.458-0.377-4.963,0.05-7.46-0.089c-7.046-0.393-14.111-0.461-21.115-1.463c-0.165-0.023-0.333-0.051-0.498-0.042
		c-4.916,0.262-9.786-0.608-14.701-0.57c-5.305,0.042-10.598-0.356-15.891-0.826c-3.052-0.271-6.146-0.33-9.192-0.681
		c-4.983-0.575-9.99-0.132-14.949-0.551c-3.828-0.323-7.653-0.162-11.457-0.458c-4.298-0.334-8.619-0.606-12.866-1.447
		c0-1.5,0-3,0-4.5c0.875-1.204,2.191-1.123,3.392-0.977c8.272,1.007,16.618,0.688,24.907,1.448c4.418,0.405,8.865,0.577,13.3,0.821
		c10.382,1.472,20.866,1.333,31.289,2.079c4.534,0.325,9.101,0.487,13.614,0.993c4.895,0.549,9.8,0.229,14.693,0.795
		c8.493,0.984,17.038,1.479,25.57,2.036c4.389,0.286,8.803-0.062,13.195,0.52c5.828,0.771,11.712,1.01,17.571,1.414
		c3.958,0.273,7.939,0.543,11.911,0.589c6.556,0.077,13.063,0.62,19.553,1.481c0.908,0.121,1.832,0.075,2.746,0.045
		c8.811-0.285,17.547,0.708,26.275,1.653c4.047,0.438,8.099,0.386,12.141,0.542c14.641,0.566,29.223,2.096,43.868,2.483
		c1.839,0.048,3.357,0.784,4.981,1.365C280.518,162.399,280.937,163.401,280.069,164.848z"/>
	<path fill-rule="evenodd" fill="#6B7A50" d="M138.859,167.613c-0.328-0.052-0.664-0.114-0.993-0.097
		c-5.665,0.302-11.29-0.66-16.95-0.533c-4.248,0.096-8.454-0.455-12.67-0.875c-2.644-0.263-5.326-0.489-7.951-0.504
		c-5.829-0.035-11.625-0.642-17.453-0.658c-4.229-0.012-8.454-0.423-12.67-0.843c-2.808-0.28-5.644-0.399-8.453-0.516
		c-6.476-0.269-12.946-0.751-19.445-0.663c-3.969,0.054-7.946-0.524-11.92-0.814c-2.899-0.211-5.807-0.657-8.697-0.57
		c-5.671,0.17-11.293-0.617-16.951-0.587c-1.574,0.008-3.106-0.617-4.707-0.465c0-0.833,0-1.667,0-2.5
		c1.021-1.303,2.504-1.232,3.899-1.185c7.235,0.25,14.473,0.523,21.682,1.203c3.401,0.321,6.813,0.632,10.211,0.651
		c5.252,0.03,10.474,0.687,15.721,0.6c7.179-0.119,14.269,1.089,21.42,1.371c1.498,0.059,2.995,0.145,4.494,0.137
		c8.668-0.048,17.29,0.653,25.927,1.302c5.037,0.378,10.11,0.711,15.177,0.694c7.588-0.025,15.122,0.759,22.67,1.351
		c3.899,0.306,7.83,0.54,11.717,0.541c7.762,0.003,15.467,0.764,23.191,1.21c7.979,0.461,15.984,0.496,23.937,1.188
		c12.597,1.096,25.238,1.148,37.833,2.038c6.735,0.476,13.472,1.2,20.213,1.332c7.786,0.151,15.525,0.787,23.277,1.343
		c0.908,0.065,2.099-0.259,2.165,1.274c-2.768,1.127-5.6,1.952-8.632,1.6c-1.189-0.138-2.295,0.214-3.427,0.408
		c-0.974,0.167-1.916,0.519-2.924,0.479c-1.082-0.55-2.252-0.492-3.418-0.545c-3.394-0.154-6.806-0.09-10.152-0.841
		c-0.482-0.108-0.992-0.14-1.489-0.135c-7.405,0.076-14.75-0.97-22.154-1.134c-6.381-0.141-12.79-0.408-19.158-0.952
		c-6.133-0.523-12.264-0.789-18.412-1.023c-5.553-0.211-11.11-0.613-16.659-0.993c-2.737-0.188-5.519-0.085-8.199-0.498
		c-4.483-0.691-8.967-0.052-13.417-0.457"/>
	<path fill-rule="evenodd" fill="#697B51" d="M151.054,163.083c3.911,0.308,7.83,0.102,11.706,0.474
		c5.127,0.493,10.272,0.741,15.39,1.308c0.496,0.055,0.999,0.136,1.492,0.108c5.75-0.324,11.462,0.496,17.203,0.586
		c3.973,0.062,7.943,0.672,11.9,1.155c1.329,0.162,2.645,0.248,3.977,0.278c5.895,0.133,11.796,0.322,17.677,0.621
		c5.209,0.265,10.434,0.731,15.643,1.218c3.624,0.339,7.27,0.82,10.946,0.676c5.163-0.203,10.291,0.359,15.42,0.884
		c3.14,0.321,6.325-0.144,9.46,0.484c0.342,0.069,0.764-0.26,1.149-0.404c1.614-0.048,1.647,0.957,1.424,2.135
		c-0.303,0.144-0.605,0.287-0.907,0.431c-2.369-0.911-4.903-0.884-7.35-0.98c-4.983-0.195-9.951-0.788-14.918-0.839
		c-2.895-0.03-5.779-0.326-8.678-0.249c-4.494,0.12-8.948-0.546-13.421-0.84c-3.067-0.202-6.13-0.605-9.199-0.61
		c-7.321-0.013-14.613-0.283-21.919-0.895c-4.7-0.393-9.44-0.718-14.194-0.694c-5.476,0.028-10.951-0.398-16.418-0.838
		c-3.06-0.246-6.135-0.302-9.204-0.56c-5.384-0.453-10.81-0.332-16.191-0.654c-6.376-0.383-12.771-0.567-19.142-1.228
		c-3.53-0.367-7.114-0.774-10.692-0.649c-6.164,0.214-12.316-0.324-18.442-0.676c-5.619-0.323-11.267-0.703-16.89-1.221
		c-3.552-0.328-7.165,0.059-10.734-0.151c-5.883-0.347-11.792-0.384-17.637-1.3c-1.143-0.179-2.323-0.159-3.486-0.158
		c-8.48,0.01-16.939-0.516-25.403-0.959c-6.139-0.322-12.248-1.001-18.408-1.157C7.48,158.285,3.741,158.004,0,157.988
		c0-1.167,0-2.333,0-3.5c3.544,0.677,7.145,0.276,10.7,0.548c5.215,0.398,10.475,0.288,15.642,1.271
		c0.408,0.077,0.828,0.167,1.237,0.147c5.999-0.289,11.963,0.487,17.952,0.596c4.793,0.086,9.596,0.291,14.39,0.775
		c3.209,0.324,6.441,0.653,9.695,0.704c6.228,0.097,12.449,0.47,18.669,0.852c4.063,0.25,8.129,0.543,12.191,0.812
		c4.877,0.322,9.776,0.477,14.624,1.248c1.352,0.215,2.84,0.038,4.141-0.178c2.721-0.452,5.331,0.126,7.933,0.404
		c3.308,0.353,6.638,0.238,9.937,0.777"/>
	<path fill-rule="evenodd" fill="#5D7750" d="M163.784,151.092c4.463,0.339,8.943,0.696,13.393,1.279
		c0.248,0.032,0.499,0.095,0.744,0.081c4.587-0.269,9.126,0.617,13.707,0.544c5.327-0.084,10.617,0.562,15.924,0.857
		c3.567,0.198,7.116,0.808,10.701,0.629c5.418-0.27,10.823,0.279,16.199,0.637c9.29,0.618,18.56,1.356,27.882,1.43
		c4.308,0.034,8.612,0.648,12.917,1.012c0.584,0.05,1.16,0.118,1.73-0.076c0.693,0.236,0.992,0.741,0.993,1.451
		c-0.355,1.71-1.71,1.628-2.95,1.538c-4.98-0.365-9.972-0.497-14.956-0.767c-12.881-0.698-25.742-1.693-38.642-2.161
		c-6.328-0.229-12.73-0.582-19.017-1.749c-1.02-0.189-2.087-0.082-3.133-0.046c-8.518,0.286-16.958-0.842-25.433-1.342
		c-6.962-0.41-13.936-0.678-20.904-0.994c-5.545-0.252-11.094-0.673-16.614-1.351c-4.599-0.565-9.232-0.432-13.844-0.52
		c-6.65-0.127-13.25-0.774-19.855-1.393c-5.712-0.535-11.446-0.854-17.166-0.85c-8.334,0.006-16.553-1.417-24.853-1.61
		c-5.473-0.128-10.937-0.519-16.415-0.47c-0.896,0.008-1.833,0.24-2.694-0.235c-5.702-0.562-11.439-0.675-17.139-1.124
		c-4.639-0.364-9.287-0.213-13.928-0.705C6.99,144.795,3.499,144.362,0,144.488c0-0.667,0-1.333,0-2
		c6.056,0.604,12.151,0.206,18.199,0.602c5.462,0.357,10.956,0.52,16.388,1.335c0.164,0.025,0.333,0.045,0.498,0.037
		c5.167-0.268,10.29,0.56,15.456,0.589c6.392,0.037,12.792,0.37,19.135,1.319c0.247,0.037,0.498,0.096,0.744,0.082
		c4.919-0.276,9.793,0.67,14.707,0.535c4.42-0.122,8.795,0.376,13.175,0.889c2.309,0.27,4.654,0.402,6.957,0.476
		c4.241,0.136,8.445,0.794,12.704,0.664c5.907-0.182,11.783,0.497,17.672,0.848c3.564,0.212,7.138,0.47,10.696,0.715"/>
	<path fill-rule="evenodd" fill="#ABAFAF" d="M0,541.988c162.75,0.003,325.5,0.008,488.25,0.008
		c155.75,0.001,311.5-0.002,467.25-0.003c1.5,0,3-0.003,4.5-0.005c-0.109,0.154,0.253,0.521-0.25,0.505
		c-0.666-0.021-1.333-0.005-2-0.005c-318.5,0-637,0-955.5-0.031C1.519,542.457,0.555,543.034,0,541.988z"/>
	<path fill-rule="evenodd" fill="#6F2C2C" d="M784.012,285.506c-5.807,2.454-11.676,4.688-18.066,5.055
		c-0.726-0.176-1.465-0.544-2.172-0.491c-2.162,0.16-4.093-0.588-6.048-1.284c-6.418-2.284-12.897-4.389-19.29-6.756
		c-3.744-1.385-7.779-1.71-11.759-2.004c-7.721-0.571-15.474-0.189-23.188-0.58c-4.432-0.225-8.762-0.247-13.123,0.498
		c-1.215,0.207-2.491,0.091-3.738,0.072c-6.659-0.102-13.299,0.2-19.924,0.883c-1.9,0.195-3.824,0.163-5.724,0.366
		c-7.146,0.764-13.933,3.119-20.875,4.787c-1.935,0.465-3.772,1.067-5.845,0.488c-1.812-0.505-3.379,0.616-4.887,1.474
		c-2.475,1.406-5,2.636-7.871,2.977c-3.368-1.278-6.799-2.131-10.457-2.045c-8.446,0.198-16.774-0.769-24.96-2.875
		c-1.786-0.461-3.603-0.704-5.425-0.794c-8.115-0.399-15.577-3.335-23.118-5.932c-2.14-0.737-4.26-1.273-6.515-1.558
		c-8.941-1.13-17.912-1.59-26.903-1.213c-7.14,0.299-14.284,0.769-21.394,1.48c-6.743,0.675-13.48,0.368-20.217,0.377
		c-3.566,0.005-7.136-0.446-10.699-0.748c-1.007-0.086-1.981-0.008-2.98,0.075c-4.638,0.387-9.239,1.339-13.908,1.174
		c-4.984-0.176-9.953-0.609-14.917-1.159c-7.019-0.777-14.005-2.156-21.112-1.75c-4.73,0.271-9.447,0.777-14.17,1.184
		c-4.971,0.427-9.953,0.759-14.909,1.32c-5.732,0.649-11.498,0.122-17.212,0.597c-5.498,0.458-10.982,0.344-16.475,0.371
		c-1.076,0.006-2.176,0.076-3.182-0.457c0.578-1.614,2.089-1.848,3.43-2.114c11.205-2.215,22.155-5.474,33.266-8.062
		c6.931-1.614,14.028-2.503,21.031-3.824c14.129-2.665,28.557-3.709,42.397-7.955c5.215-1.6,10.632-1.526,16.043-1.529
		c4.069-0.002,8.133-0.599,12.176-1.035c9.836-1.06,19.524-3.172,29.333-4.467c4.087-0.54,8.127,0.377,12.198,0.438
		c1.646,0.025,3.311,0.28,4.978,0.281c10.331,0.002,20.663,0.028,30.994-0.014c3.882-0.016,7.76-0.232,11.618-0.724
		c0.682-0.087,1.235-0.485,1.88-0.646c12.203-0.746,24.507-0.759,36.554-2.798c6.762-1.145,12.658,0.758,18.816,2.292
		c9.194,2.29,17.93,5.958,26.835,9.114c2.618,0.88,5.334,0.305,7.995,0.542c5.99-0.09,11.979,0.428,17.799,1.609
		c8.438,1.712,16.948,2.383,25.479,3.191c8.612,0.815,17.305,0.373,25.868,1.835c1.502,0.257,2.898,0.694,4.244,1.385
		c5.705,2.932,11.559,5.552,17.416,8.157c6.807,3.028,14.115,4.474,21.243,6.479c2.404,0.677,4.831,1.275,7.21,2.04
		C782.869,283.594,784.024,283.99,784.012,285.506z"/>
	<path fill-rule="evenodd" fill="#FFFFFF" d="M277.556,158.341c-0.191-0.285-0.383-0.57-0.575-0.855
		c0.374-1.612-0.823-2.887-0.987-4.425c-0.085-0.801-0.128-1.772-0.545-2.577c-0.333-0.54-0.131-1.202-0.404-1.755
		c0.125-0.429,0.048-0.838-0.119-1.239c-0.3-0.548-0.107-1.202-0.381-1.755c0.165-0.593,0.055-1.168-0.109-1.74
		c-0.493-1.368,0.128-2.839-0.388-4.205c0.166-3.88,0.204-7.764,0.762-11.622c1.099-7.605,3.436-14.792,7.102-21.548
		c0.194-0.357,0.317-0.753,0.474-1.131c3.438-5.406,7.033-10.682,11.776-15.08c9.662-8.957,20.953-14.64,34.001-16.457
		c23.079-3.214,42.545,4.088,58.655,20.732c0.569,0.588,1.066,1.246,1.597,1.872c3.49,4.604,6.855,9.286,9.323,14.547
		c1.71,3.646,3.191,7.375,4.251,11.266c0.15,0.554,0.388,1.084,0.585,1.625c2.419,2.269,2.254,5.329,2.466,8.249
		c0.059,0.804-0.225,1.633,0.077,2.441c0.026,2.199-1.153,3.627-3.104,4.334c-2.6,0.942-4.93,2.365-7.326,3.691
		c-1.972,1.091-4.098,1.752-6.386,1.955c-3.323,0.294-6.222,1.771-8.857,3.714c-1.518,1.118-3.1,2.025-4.98,1.996
		c-4.52-0.07-8.024,2.454-11.707,4.47c-3.218,1.763-6.331,3.396-10.209,3.53c-2.834,0.098-5.587,1.428-8.457,1.865
		c-1.887,0.181-3.438-0.85-4.791-1.809c-3.901-2.766-7.899-2.417-11.775-0.459c-8.017,4.049-16.373,7.344-24.552,11.012
		c-2.938,1.317-6.521,2.344-10.091,1.848c-0.971-0.135-1.972-0.305-2.927,0.144c-1.939,0.2-3.539,1.547-5.513,1.632
		c-0.475-0.712-0.949-1.424-1.424-2.135c-0.982-1.875-1.965-3.749-2.948-5.624c-0.152-0.879-0.476-1.684-1.039-2.384
		C277.006,161.638,277.744,159.824,277.556,158.341z"/>
	<path fill-rule="evenodd" fill="#9F3232" d="M572.52,250.504c-1.526,0.936-3.265,0.396-4.893,0.681
		c-3.027,0.53-6.08,0.864-9.178,0.844c-9.081-0.058-18.163-0.045-27.244-0.008c-5.746,0.023-11.462-0.42-17.178-0.927
		c-0.822-0.073-1.699-0.129-2.484,0.07c-5.267,1.341-10.714,1.41-16.036,2.341c-1.229,0.215-2.498,0.314-3.679,0.688
		c-4.826,1.531-9.815,1.619-14.797,1.821c-0.581,0.023-1.162,0.088-1.737,0.172c-2.871,0.416-5.685,0.778-8.658,0.456
		c-3.799-0.412-7.629,0.312-11.364,1.195c-3.971,0.938-7.951,1.863-11.878,2.965c-6.282,1.763-12.722,2.499-19.175,3.167
		c-1.165,0.121-2.312,0.291-3.448,0.538c-6.267,1.363-12.684,1.732-18.979,2.956c-11.048,2.148-21.85,5.28-32.771,7.933
		c-3.72,0.904-7.473,1.668-11.209,2.507c-1.623,0.364-3.241,0.755-4.861,1.134c-8.387-0.31-16.648-1.636-24.889-3.113
		c-5.962-2.127-12.036-3.879-18.188-5.364c-1.941-0.469-3.874-0.979-5.868-1.197c-3.765-0.413-7.231-1.872-10.784-3.052
		c-6.409-2.129-13.02-3.482-19.646-4.706c-2.523-0.466-5.145-0.116-7.725-0.417c-2.981-0.347-5.903-1.113-8.887-1.308
		c-4.439-0.29-8.893-0.384-13.342-0.48c-1.66-0.036-3.324,0.229-4.971-0.205c-0.479-0.125-0.993-0.213-1.482-0.181
		c-4.589,0.302-9.125-0.719-13.708-0.524c-0.332,0.014-0.687,0.052-0.997-0.039c-6.172-1.814-12.44-0.444-18.626-0.304
		c-6.463,0.146-12.962,0.406-19.423,1.171c-3.947,0.467-7.965,0.232-11.97-0.092c-3.541-0.286-7.088-0.836-10.695-0.388
		c-2.212,0.274-4.46-0.48-6.72-0.334c-6.053,0.39-12.116,0.466-18.127,1.569c-6.213,1.141-12.482,1.963-18.793,2.512
		c-6.376,0.554-12.799,0.676-19.122,1.839c-0.967,0.178-1.992,0.045-2.99,0.056c0.233-0.336,0.396-0.77,0.709-0.996
		c4.35-3.146,9.094-5.156,14.585-5.004c3.422,0.094,6.795-0.462,10.181-0.844c0.496-0.057,0.996-0.148,1.491-0.132
		c7.722,0.268,15.228-1.325,22.776-2.588c3.361-0.562,6.745-0.999,10.127-1.43c1.003-0.128,1.964-0.354,2.91-0.679
		c4.965-1.707,9.95-3.349,15.119-4.347c0.672-0.13,1.247-0.443,1.825-0.78c2.313-1.351,4.747-2.459,7.342-3.114
		c5.213-1.314,10.059-3.5,14.779-6.006c2.555-1.356,5.291-1.962,8.157-2.071c4.48,1.721,9.07,2.553,13.874,1.762
		c0.487-0.08,1.02-0.007,1.474-0.212c4.795-2.174,9.694-0.945,14.615-0.67c2.763,0.155,5.638-0.393,8.383-0.915
		c4.329-0.822,8.636-1.828,12.92-2.897c0.575-0.144,1.148-0.055,1.722,0.114c5.582,1.644,11.275,2.861,16.886,4.382
		c7.081,1.919,14.338,2.656,21.558,3.72c10.113,1.49,20.235,2.91,30.337,4.469c3.706,0.572,7.407,1.25,11.17,1.018
		c6.56-0.404,12.335,2.1,18.275,4.387c12.118,4.665,23.953,10.072,36.36,13.983c1.892,0.597,3.712,0.566,5.644,0.086
		c8.161-2.026,16.366-3.888,24.52-5.924c9.192-2.294,18.455-4.235,27.715-6.165c3.541-0.738,7.172-1.365,10.747-1.983
		c5.766-0.997,11.514-2.425,17.163-4.173c7.224-2.236,14.191-5.218,21.523-7.132c2.784-0.727,5.621-0.769,8.41-0.932
		c6.31-0.369,12.629-0.724,18.945-0.896c2.865-0.078,5.715,0.983,8.557,1.542c4.001,0.787,8.081,1.055,12.045,2.1
		c2.498,0.659,4.836,1.647,7.235,2.484c4.667,1.627,9.122,4.151,14.238,4.329C571.404,249.004,572.309,249.24,572.52,250.504z"/>
	<path fill-rule="evenodd" fill="#E74444" d="M343.991,159.495c3.473-1.046,6.808-2.691,10.593-2.367
		c1.129,0.097,2.093-0.472,3.047-0.973c2.427-1.274,4.946-2.413,7.231-3.906c3.091-2.02,6.422-3.037,10.053-3.146
		c1.154-0.035,2.068-0.423,2.947-1.105c2.311-1.792,4.8-3.246,7.64-4.073c1.113-0.324,2.161-0.587,3.368-0.591
		c1.907-0.007,3.696-0.818,5.368-1.754c1.086-0.608,2.118-1.315,3.192-1.947c0.918-0.539,1.81-1.031,2.927-1.254
		c1.873-0.373,3.249-1.595,3.939-3.457c0.3-1.742,1.225-2.988,2.742-3.941c2.461-1.546,4.875-3.173,7.264-4.831
		c1.265-0.878,2.641-1.36,4.106-1.684c2.245-2.223,4.921-3.724,7.829-4.92c1.159-0.477,1.927-0.368,2.908,0.373
		c5.575,4.208,10.745,8.839,15.268,14.176c0.149,0.176,0.409,0.259,0.617,0.385c3.111,2.765,6.38,5.22,10.463,6.479
		c2.123,0.654,4.116,1.726,6.342,2.11c0.396,0.068,0.808,0.249,1.131,0.487c2.601,1.916,5.676,3.089,8.132,5.236
		c1.27,1.11,2.796,1.764,4.417,2.195c2.242,0.598,4.465,1.292,6.735,1.744c2.166,0.431,4.137,1.102,5.627,2.812
		c1.99,2.361,4.184,4.504,6.685,6.329c1.142,0.832,2.363,1.607,3.326,2.62c2.859,3.005,6.569,4.224,10.438,4.854
		c2.352,0.384,4.678,1.121,7.109,1.009c0.578-0.026,1.269,0.248,1.723,0.019c1.809-0.912,3.491-0.405,5.27,0.081
		c1.37,0.375,2.85,0.149,4.206-0.2c3.137-0.808,6.276-1.625,8.937-3.671c1.561-1.199,3.124-2.215,5.395-2.112
		c1.924,0.087,3.911-0.682,5.829-1.218c1.34-0.374,2.632-0.332,3.946-0.061c2.371,0.489,4.76,0.826,7.185,0.713
		c2.024-0.094,3.992,0.306,5.933,0.729c3.502,0.766,7.014,0.7,10.388-0.244c4.152-1.162,8.25-0.979,12.357-0.229
		c4.915,0.896,9.718,0.685,14.6-0.379c3.249-0.708,6.555-0.689,9.56,1.452c2.025,1.443,4.217,2.671,6.233,4.145
		c0.983,0.718,2.013,1.127,3.255,0.95c3.697-0.529,6.635,1.216,9.274,3.416c3.067,2.555,5.925,5.359,8.895,8.033
		c2.115,1.904,4.428,3.531,7.063,4.639c3.608,1.517,7.111,3.25,10.626,4.967c6.528,3.19,13.493,4.7,20.72,4.995
		c2.403,0.098,4.508,1.093,6.71,1.812c0.72,0.235,1.175,0.909,1.676,1.466c1.278,1.425,2.554,2.853,3.829,4.279
		c0.533,1.163-0.074,1.857-0.963,2.496c-5.058,3.636-10.051,7.369-15.685,10.111c-0.521,0.254-0.992,0.653-1.544,0.812
		c-8.203,2.359-15.6,6.647-23.463,9.821c-1.924,0.777-3.734,0.915-5.484-0.172c-8.033-4.992-17.085-7.847-25.432-12.131
		c-8.543-4.383-17.296-8.213-26.244-11.596c-7.705-2.913-15.238-6.345-23.075-8.796c-4.916-1.538-9.727-3.132-14.413-5.26
		c-2.64-1.198-5.545-1.756-8.526-1.543c-2.087,0.149-4.16-0.111-6.21-0.48c-6.676-1.2-13.266,0.074-19.868,0.72
		c-2.082,0.204-4.15,0.272-6.228,0.262c-6.324-0.034-12.68,0.023-18.904,1.018c-6.47,1.033-12.383,3.783-17.607,7.842
		c-4.669,3.626-9.381,7.186-14.505,10.164c-2.338,1.359-4.562,1.53-7.039,0.123c-3.539-2.01-7.241-3.732-11.265-4.613
		c-7.07-4.367-14.026-8.938-21.7-12.238c-2.066-0.889-4.064-1.914-5.925-3.189c-2.568-1.76-5.249-3.165-8.475-3.298
		c-8.313-0.345-15.803-3.716-23.356-6.685c-3.781-1.486-7.732-2.027-11.612-2.776c-7.632-1.474-14.224-5.022-20.603-9.152
		c-1.888-1.223-3.935-2.172-5.76-3.489C344.339,161.296,343.427,160.757,343.991,159.495z"/>
	<path fill-rule="evenodd" fill="#3E6D50" d="M418.408,124.466c-0.494,1.045-1.525,1.48-2.403,2.072
		c-3.03,2.042-6.081,4.053-9.123,6.077c-0.971,0.646-1.901,1.34-2.587,2.307c-0.415-3.668-1.043-7.303-1.725-10.929
		c4.561-0.876,9.12,0.139,13.681,0.006C417.005,123.978,417.726,124.144,418.408,124.466z"/>
	<path fill-rule="evenodd" fill="#A93334" d="M572.52,250.504c-0.536-0.234-1.1-0.539-1.678-0.39
		c-2.538,0.652-4.715-0.455-6.959-1.316c-1.938-0.743-3.824-1.633-5.909-1.962c-1.321-0.208-2.587-0.598-3.57-1.628
		c-0.593-0.62-1.426-0.867-2.239-1.043c-3.897-0.844-7.802-1.624-11.748-2.25c-3.512-0.557-7.102-0.822-10.509-1.97
		c-0.558-0.188-1.104-0.377-1.701-0.327c-6.13,0.511-12.278,0.66-18.421,0.941c-4.881,0.223-9.687,0.979-14.352,2.773
		c-3.936,1.513-7.902,3.077-11.939,4.219c-4.304,1.218-8.497,2.913-12.981,3.537c-1.708,0.238-3.319,1.035-5.115,0.976
		c-0.898-0.029-1.326,0.574-1.257,1.491c0.038,0.496,0.117,1.059-0.543,1.207c-0.457,0.103-0.797-0.18-0.995-0.58
		c-0.794-1.601-2.261-1.374-3.493-1.03c-5.692,1.586-11.601,2.181-17.28,3.663c-3.703,0.966-7.383,1.782-11.155,2.288
		c-0.328,0.044-0.65,0.147-0.968,0.246c-10.335,3.224-21.06,4.899-31.447,7.919c-1.303,0.379-2.629,0.248-3.948-0.1
		c-4.522-1.189-8.874-2.864-13.185-4.643c-6.925-2.857-13.887-5.614-20.906-8.232c-3.039-1.134-5.997-2.482-9.003-3.705
		c-3.429-1.394-6.988-2.268-10.706-2.081c-5.878,0.295-11.584-0.95-17.352-1.705c-3.378-0.442-6.808-0.763-10.109-1.457
		c-3.499-0.735-7.065-0.7-10.555-1.598c-3.761-0.968-7.718-1.162-11.587-1.716c-3.623-0.519-7.321-0.762-10.842-1.681
		c-4.02-1.049-8.172-1.598-12.079-3.08c-0.467-0.177-0.935-0.426-1.418-0.472c-2.836-0.269-5.544-1.011-8.201-2.006
		c-0.433-0.162-0.994-0.097-1.471-0.007c-4.003,0.753-7.979,1.679-12.005,2.268c-3.426,0.502-6.858,1.207-10.385,0.61
		c-2.454-0.415-4.987-0.066-7.454-0.597c-0.529-0.114-1.188,0.04-1.705,0.261c-2.418,1.036-5.015,1.157-7.557,1.539
		c-4.204,0.63-8.074-0.524-11.792-2.375c0.842-0.017,1.678,0.074,2.449,0.408c3.755,1.627,7.702,1.074,11.592,0.979
		c1.399-0.034,2.783-0.51,4.049-1.188c1.231-0.659,2.499-0.766,3.871-0.48c2.779,0.578,5.66,0.018,8.438,0.694
		c2.894-1.203,6.054-0.77,9.058-1.49c2.731-0.655,5.491-1.218,8.199-1.992c1.119-0.319,2.336-0.456,3.335-0.996
		c1.484-0.803,2.801-0.522,4.306-0.122c8.274,2.196,16.242,5.468,24.748,6.878c3.703,0.614,7.432,0.828,11.141,1.29
		c4.864,0.606,9.759,0.89,14.611,1.676c4.917,0.797,9.909,1.129,14.834,1.881c6.172,0.942,12.429,0.92,18.601,1.829
		c1.308,0.192,2.659,0.127,3.989,0.124c2.168-0.005,4.317-0.024,6.413,0.736c0.756,0.274,1.644,0.278,2.468,0.254
		c4.338-0.121,8.631,0.383,12.927,0.87c0.33,0.038,0.674,0.102,0.993,0.047c4.104-0.701,8.09,0.431,12.125,0.774
		c3.062,0.26,6.118,0.742,9.181,0.779c4.596,0.055,9.103,0.821,13.646,1.294c2.231,0.232,4.459,0.494,6.688,0.751
		c4.712,0.543,9.088-0.894,13.38-2.471c6.481-2.382,12.95-4.816,19.166-7.863c3.003-1.472,6.26-2.251,9.45-3.2
		c8.257-2.457,16.144-5.754,23.444-10.374c0.699-0.443,1.441-0.852,1.9-1.589c4.065-2.691,8.869-3.778,13.136-6.036
		c0.992-0.525,2.102-0.509,3.182-0.451c2.035,0.108,3.973-0.251,5.863-0.986c1.718-0.667,3.487-0.999,5.35-1.096
		c1.994-0.104,3.933-0.634,5.68-1.721c1.574-0.979,3.311-1.455,5.149-1.781c8.157-1.446,16.374-1.566,24.619-1.36
		c2.237,0.056,4.489,0.061,6.719-0.344c0.895-0.163,1.819-0.204,2.731-0.212c5.922-0.053,11.796,0.45,17.599,1.646
		c1.236,0.255,2.485,0.508,3.714,0.309c2.117-0.344,4.144-0.007,6.17,0.49c4.659,1.143,9.498,1.47,13.951,3.596
		c1.743,0.832,3.732,1.343,5.627,1.948c0.605,0.596,1.347,1.003,2.121,1.287c5.588,2.04,10.525,5.278,15.568,8.333
		c4.976,3.016,10.02,5.918,14.977,8.963c3.551,2.181,6.825,4.674,9.249,8.203c1.926,2.805,4.444,5.144,6.768,7.629
		c0.755,0.809,1.731,1.276,2.694,1.772c0.953,0.491,2.017,0.832,2.63,1.817c-4.489-0.141-8.703-1.545-12.753-3.243
		c-5.25-2.201-10.73-3.56-16.164-5.11c-2.953-0.842-5.945-1.545-8.91-2.349c-0.989-0.268-1.955-0.333-2.957-0.12
		c-5.875,1.249-11.824,1.762-17.825,1.858c-1.82,0.029-3.659,0.227-5.447,0.572c-2.151,0.415-4.308,0.488-6.463,0.378
		C580.137,249.785,576.352,250.606,572.52,250.504z"/>
	<path fill-rule="evenodd" fill="#CA3A3A" d="M343.991,159.495c0.624,0.965,1.681,1.352,2.609,1.875
		c5.288,2.978,10.202,6.603,15.782,9.079c1.45,0.644,2.886,1.281,4.445,1.614c3.98,0.851,7.861,2.141,11.941,2.562
		c1.136,0.117,2.263,0.568,3.336,1.009c3.61,1.483,7.418,2.426,10.918,4.234c3.54,1.829,7.556,1.872,11.388,2.579
		c1.55,0.286,3.134,0.384,4.694,0.621c1.244,0.188,2.41,0.622,3.48,1.309c3.573,2.294,7.281,4.308,11.174,6.048
		c5.549,2.481,10.661,5.801,15.847,8.961c1.134,0.69,2.264,1.388,3.396,2.083c5.018,2.519,9.749,5.583,15.156,7.37
		c2.905,0.959,5.337,3.042,8.049,4.504c0.952,0.513,1.916,1.01,2.847,1.558c2.771,1.634,5.362,1.462,8.245-0.04
		c3.46-1.802,6.866-3.715,10.364-5.457c2.619-1.304,5.198-2.881,7.492-4.775c2.127-1.757,4.798-2.279,7.218-3.349
		c4.628-2.047,8.882-4.939,13.839-6.236c3.218-0.842,6.527-1.222,9.787-1.83c4.428-0.826,8.898-0.882,13.341-1.191
		c6.713-0.467,13.409-0.375,20.055,1.396c5.493,1.464,10.34,3.959,15.007,7.082c6.05,4.048,12.705,6.949,19.51,9.455
		c5.16,1.901,10.154,4.185,15.248,6.233c4.471,1.799,9.14,3.054,13.497,5.193c6.5,3.191,12.993,6.4,19.21,10.103
		c3.829,2.281,7.633,3.275,12.115,2.395c5.645-1.109,11.291-2.09,16.664-4.245c1.1-0.441,2.382-1.1,3.354,0.354
		c-0.74,0.711-1.653,1.122-2.604,1.439c-3.476,1.16-6.915,2.439-10.511,3.208c-4.723,1.009-9.447,2.006-14.16,3.058
		c-2.282,0.509-4.46,0.335-6.583-0.641c-1.74-0.799-3.512-1.531-5.231-2.368c-7.788-3.79-15.634-7.47-23.313-11.469
		c-3.927-2.044-7.945-3.825-12.036-5.458c-3.558-1.42-7.23-2.759-10.992-3.256c-4.257-0.562-8.425-1.667-12.819-1.599
		c-7.49,0.116-14.431-2.196-20.797-6.136c-1.911-1.183-3.799-2.396-5.748-3.521c-1.393-0.804-2.607-0.755-4.012-0.123
		c-2.496,1.125-4.967,2.301-7.595,3.144c-3.788,1.216-7.565,1.946-11.462,0.675c-1.272-0.415-2.301,0.049-3.307,0.645
		c-1.853,1.099-3.82,1.536-5.973,1.424c-1.276-0.067-2.488-0.241-3.59-0.896c-3.393-2.014-6.432-0.933-9.258,1.167
		c-2.868,2.131-5.338,4.803-8.434,6.615c-3.309,1.936-6.463,4.07-9.522,6.369c-2.74,2.061-6.146,2.48-9.269,3.587
		c-0.934,0.331-1.754-0.238-2.56-0.712c-5.378-3.158-10.76-6.308-16.161-9.426c-1.37-0.79-2.758-1.544-4.007-2.52
		c-1.994-1.558-4.35-2.414-6.595-3.506c-6.505-3.165-12.834-6.677-19.268-9.979c-6.509-3.341-13.247-6.207-20.451-7.846
		c-3.094-0.704-6.15-1.429-9.345-1.429c-0.73,0-1.467-0.273-2.188-0.465c-2.097-0.559-4.198-1.039-6.393-0.999
		c-0.741,0.013-1.531-0.014-2.22-0.252c-4.698-1.626-9.549-2.2-14.486-2.25c-1.446-0.015-2.741-0.676-4.127-0.953
		c-3.101-0.619-6.292-0.625-9.365-1.446c-2.778-0.743-5.776-0.798-8.186-2.678c-0.188-0.146-0.473-0.292-0.688-0.262
		c-3.963,0.554-7.161-2.559-11.083-2.297c-0.867,0.058-1.844-0.27-2.641-0.675c-1.674-0.853-3.442-1.193-5.274-1.366
		c-3.967-0.374-7.708-2.036-11.739-2.061c-0.411-0.002-0.822-0.19-1.231-0.186c-2.504,0.031-4.958-0.145-7.337-1.079
		c-1.426-0.56-2.926-0.6-4.358,0.179c-0.441,0.24-0.999,0.385-1.453,0.177c-1.018-0.465-1.83-0.292-2.784,0.292
		c-1.008,0.617-1.946-0.094-2.676-0.782c-0.844-0.796-1.728-1.047-2.905-1.072c-1.38-0.03-2.835-0.145-4.127-0.824
		c-1.007-0.529-2.109-0.401-3.184-0.463c3.03-0.429,5.929-1.33,8.783-2.409c0.371-0.14,0.828-0.108,1.238-0.073
		c1.294,0.109,2.43-0.087,3.438-1.054c0.512-0.491,1.302-0.71,1.987-1.002c2.445-1.042,4.886-2.1,7.355-3.083
		c3.934-1.566,7.737-3.418,11.496-5.35c2.768-1.421,5.756-2.105,8.673-3.045c0.958-0.309,1.738-0.134,2.593,0.305
		C338.325,156.706,341.164,158.089,343.991,159.495z"/>
	<path fill-rule="evenodd" fill="#CB3A3A" d="M674,229.989c-0.931,0.036-1.816,0.292-2.655,0.658
		c-6.179,2.689-12.771,3.687-19.343,4.776c-3.764,0.624-7.023-0.66-10.17-2.546c-4.784-2.868-9.764-5.373-14.739-7.89
		c-3.712-1.878-7.398-3.779-11.343-5.134c-2.357-0.811-4.735-1.58-7.045-2.515c-4.549-1.841-9.007-3.918-13.598-5.646
		c-4.441-1.672-8.838-3.433-13.116-5.477c-4.211-2.012-8.112-4.57-12.032-7.088c-2.884-1.852-5.963-3.224-9.32-4.015
		c-2.016-0.475-4.032-0.952-6.047-1.425c-3.723-0.874-7.438-0.628-11.174-0.564c-2.058,0.034-4.141-0.263-6.117,0.685
		c-0.384,0.184-0.977-0.036-1.466-0.112c-2.167-0.338-4.301-0.343-6.414,0.375c-0.698,0.237-1.462,0.358-2.201,0.391
		c-4.689,0.206-9.261,1.073-13.614,2.792c-2.135,0.844-4.196,1.922-6.24,3.018c-2.404,1.289-4.873,2.51-7.496,3.337
		c-1.855,0.585-3.599,1.316-4.752,3.012c-0.179,0.263-0.49,0.619-0.741,0.621c-1.761,0.012-2.712,1.453-4.062,2.171
		c-5.195,2.764-10.453,5.408-15.677,8.12c-0.843,0.438-1.604,0.175-2.41-0.048c-3.422-0.949-6.372-2.876-9.372-4.647
		c-5.231-3.089-10.771-5.597-16.009-8.666c-1.359-0.797-2.853-1.386-3.842-2.703c3.708,1.287,7.225,3.016,10.654,4.892
		c2.326,1.271,4.433,1.039,6.596-0.201c4.926-2.825,9.484-6.194,13.917-9.711c3.437-2.726,7.212-4.725,11.248-6.365
		c4.539-1.846,9.201-2.498,14.101-2.711c5.405-0.236,10.812-0.164,16.207-0.439c4.059-0.208,8.1-0.793,12.142-1.275
		c4.013-0.479,7.974-0.003,11.928,0.564c1.16,0.167,2.316,0.344,3.477,0.257c5.731-0.428,10.818,1.474,15.63,4.315
		c1.179,0.696,2.356,1.109,3.726,1.255c2.317,0.248,4.531,0.894,6.716,1.809c5.37,2.247,10.794,4.376,16.255,6.394
		c10.549,3.897,20.973,8.04,30.943,13.312c4.844,2.561,9.998,4.547,15.07,6.654c3.17,1.317,6.205,2.866,9.053,4.749
		c2.337,1.546,4.508,1.96,7.229,0.733c3.34-1.505,6.687-2.988,9.957-4.64c2.159-1.09,4.364-2.043,6.696-2.723
		c4.912-1.432,9.346-3.839,13.665-6.558c2.402-1.512,4.833-2.919,6.845-4.956c1.162-1.177,3.123-1.275,3.986-2.884
		c1.562-1.081,3.111-2.176,4.636-3.309c1.396-1.037,3.195-1.623,5.092-1.341c0.735,0.109,1.485,0.124,2.229,0.182
		c0.549-0.354,1.112-0.259,1.681-0.06c2.862-1.696,6.083-2.289,9.272-2.926c0.974-0.194,1.919-0.394,2.867-0.707
		c1.468-0.485,3.034-0.053,4.577-0.306c1.184-0.194,2.435-0.232,3.65-0.404c0.471,0.24,0.941,0.243,1.412-0.004
		c2.312-0.014,4.363-1.231,6.64-1.439c0.483-0.044,1.028-0.316,1.438-0.081c1.721,0.99,3.436,0.489,5.135,0.047
		c0.883-0.229,1.607-0.046,2.324,0.415c-0.721,1.349-2.216,1.705-3.311,2.574c-5.418,4.3-11.194,8.088-16.941,11.922
		c-7.033,4.692-14.486,8.503-22.579,11.016c-4.056,1.26-8.052,2.663-11.663,4.97c-2.576,1.516-5.266,2.804-8.002,3.999
		c-0.332,0.167-0.665,0.334-0.998,0.501C675.712,229.431,674.789,229.544,674,229.989z"/>
	<path fill-rule="evenodd" fill="#CA3A3A" d="M677.5,228.488c2.505-1.658,5.179-2.979,8.002-3.999
		C683.16,226.475,680.473,227.768,677.5,228.488z"/>
	<path fill-rule="evenodd" fill="#C03737" d="M812.533,186.058c2.044,0.001,4.103-0.247,6.106,0.391
		C816.603,186.36,814.525,186.873,812.533,186.058z"/>
	<path fill-rule="evenodd" fill="#C03737" d="M775.868,186.95c1.423-0.462,2.847-0.543,4.271-0.003
		C778.717,186.948,777.293,186.949,775.868,186.95z"/>
	<path fill-rule="evenodd" fill="#C03737" d="M804.861,185.448c1.24-0.455,2.479-0.572,3.717,0.015
		C807.339,185.458,806.1,185.453,804.861,185.448z"/>
	<path fill-rule="evenodd" fill="#C03737" d="M796.89,185.954c1.15-0.511,2.363-0.459,3.577-0.395
		C799.33,186.197,798.095,185.939,796.89,185.954z"/>
	<path fill-rule="evenodd" fill="#C03737" d="M790.851,186.445c1.163-0.526,2.391-0.449,3.616-0.387
		C793.316,186.702,792.068,186.439,790.851,186.445z"/>
	<path fill-rule="evenodd" fill="#C03737" d="M782.031,187.053c1.145,0.003,2.289,0.006,3.434,0.01
		C784.318,187.644,783.174,187.646,782.031,187.053z"/>
	<path fill-rule="evenodd" fill="#CA3A3A" d="M674,229.989c0.689-0.697,1.546-0.973,2.502-1
		C675.812,229.683,674.956,229.961,674,229.989z"/>
	<path fill-rule="evenodd" fill="#C03737" d="M823.53,186.553c0.893-0.086,1.786-0.173,2.577,0.399
		C825.225,186.979,824.332,187.06,823.53,186.553z"/>
	<path fill-rule="evenodd" fill="#C03737" d="M759.373,187.948c0.813-0.476,1.7-0.491,2.602-0.41
		C761.169,188.064,760.267,187.98,759.373,187.948z"/>
	<path fill-rule="evenodd" fill="#C03737" d="M768.851,187.443c0.823-0.454,1.716-0.445,2.614-0.382
		C770.648,187.567,769.746,187.479,768.851,187.443z"/>
	<path fill-rule="evenodd" fill="#C03737" d="M786.902,186.957c0.641-0.379,1.338-0.467,2.064-0.396
		C788.332,186.976,787.622,186.99,786.902,186.957z"/>
	<path fill-rule="evenodd" fill="#C03737" d="M755.839,188.438c0.651-0.456,1.388-0.446,2.132-0.39
		C757.315,188.481,756.582,188.484,755.839,188.438z"/>
	<path fill-rule="evenodd" fill="#C03737" d="M810.049,185.597c0.547-0.051,1.053,0.056,1.509,0.372
		C811.022,185.977,810.51,185.893,810.049,185.597z"/>
	<path fill-rule="evenodd" fill="#5E7750" d="M270.752,143.699c-0.694,0.042-1.07-0.342-1.133-0.993
		c-0.051-0.536,0.164-1.003,0.789-1c0.648,0.004,1.089,0.419,1.208,1.023C271.735,143.327,271.307,143.599,270.752,143.699z"/>
	<path fill-rule="evenodd" fill="#5E7750" d="M274.047,139.789c0.413,1.375,0.481,2.783,0.388,4.205
		C273.735,142.645,273.986,141.208,274.047,139.789z"/>
	<path fill-rule="evenodd" fill="#5E7750" d="M274.544,145.734c0.433,0.519,0.447,1.128,0.381,1.755
		c-0.145-0.001-0.29-0.003-0.434-0.005C274.509,146.901,274.527,146.317,274.544,145.734z"/>
	<path fill-rule="evenodd" fill="#5A734D" d="M725.961,148.959c0.023,0.056,0.046,0.112,0.069,0.168
		c-0.056,0.018-0.146,0.067-0.163,0.049C725.732,149.035,725.77,148.957,725.961,148.959z"/>
	<path fill-rule="evenodd" fill="#A13232" d="M784.012,285.506c-2.197-1.273-4.688-1.703-7.081-2.38
		c-5.766-1.63-11.559-3.162-17.345-4.716c-3.964-1.065-7.62-2.902-11.334-4.568c-4.251-1.907-8.425-3.987-12.606-6.044
		c-1.433-0.705-2.878-1.199-4.476-1.442c-3.293-0.502-6.584-0.775-9.918-0.901c-6.303-0.238-12.622-0.399-18.883-1.314
		c-0.574-0.084-1.162-0.123-1.742-0.112c-6.369,0.122-12.578-1.066-18.771-2.335c-3.103-0.636-6.209-1.047-9.379-1.229
		c-3.387-0.195-6.789-0.593-9.982-1.927c0.877-0.726,1.926-1.04,3.021-1.011c2.923,0.076,5.817-0.373,8.7-0.635
		c7.453-0.681,14.96-0.194,22.39-1.349c9.663-1.502,19.425-0.948,29.153-1.09c3.396-0.049,6.786-0.524,10.18-0.807
		c0.497-0.042,0.995-0.154,1.489-0.136c6.829,0.262,13.626-0.882,20.452-0.501c3.059,0.171,5.926-0.528,8.83-1.322
		c4.334-1.185,8.794-1.953,13.053-3.346c6.463-2.113,13.211-2.509,19.797-3.846c3.426-0.695,6.852-1.378,10.318-1.816
		c1.396-0.177,2.822-0.167,4.234-0.182c1.42-0.014,2.804-0.123,4.197-0.488c2.008-0.525,4.111-0.228,6.172-0.399
		c3.46-0.289,6.951-0.047,10.451,0.295c4.055,0.396,7.956,1.823,12.076,1.617c1.286-0.064,2.398,0.647,3.6,0.968
		c4.253,1.138,8.416,2.481,12.52,4.163c3.894,1.595,7.91,3.013,11.965,4.259c9.21,2.832,18.788,4.329,27.832,7.765
		c2.239,0.851,4.705,0.944,6.909,2.071c0.882,0.451,2.124,0.196,3.202,0.263c-0.756,0.432-1.594,0.46-2.426,0.44
		c-5.846-0.138-11.608,0.53-17.356,1.555c-6.233,1.113-12.532,1.603-18.871,1.498c-1.247-0.021-2.497,0.043-3.743,0
		c-7.931-0.273-15.562,1.146-22.888,4.145c-6.501,2.661-13.225,4.374-20.16,5.483c-5.904,0.945-11.774,2.218-17.436,4.206
		c-4.909,1.724-10.036,2.267-15.108,3.138C791.361,284.109,787.689,284.826,784.012,285.506z"/>
	<path fill-rule="evenodd" fill="#C03737" d="M702.68,199.412c-0.561,0.02-1.121,0.04-1.681,0.06
		C701.545,199.03,702.102,198.933,702.68,199.412z"/>
	<path fill-rule="evenodd" fill="#C03737" d="M724.459,195.064c-0.471,0.355-0.941,0.36-1.412,0.004
		C723.518,195.067,723.988,195.065,724.459,195.064z"/>
	<path fill-rule="evenodd" fill="#607951" d="M78.852,140.443c-0.1,0.643-0.468,0.904-1.032,0.789
		c-0.587-0.12-1.086-0.428-1.061-1.119c0.021-0.563,0.41-0.898,0.952-0.892C78.506,139.229,78.83,139.745,78.852,140.443z"/>
	<path fill-rule="evenodd" fill="#797D4F" d="M61.438,142.336c0.064,0.031,0.166,0.048,0.183,0.096
		c0.017,0.048-0.05,0.126-0.08,0.191c-0.064-0.03-0.168-0.047-0.184-0.094C61.341,142.479,61.408,142.401,61.438,142.336z"/>
	<path fill-rule="evenodd" fill="#5E7750" d="M275.045,148.728c0.425,0.518,0.467,1.125,0.404,1.755
		C275.102,149.947,275.034,149.347,275.045,148.728z"/>
	<path fill-rule="evenodd" fill="#5E7750" d="M127.225,152.367c-5.387-0.309-10.797-0.276-16.171-0.89
		c-4.619-0.527-9.251-0.936-13.878-1.396c-0.249-0.025-0.499-0.078-0.746-0.064c-5.25,0.29-10.459-0.639-15.701-0.523
		c-3.59,0.08-7.124-0.481-10.676-0.842c-2.644-0.269-5.325-0.582-7.946-0.564c-6,0.042-11.961-0.65-17.951-0.603
		c-0.915,0.007-1.842,0.052-2.655-0.497c4.403,0.16,8.804-0.037,13.22,0.235c2.524,0.156,5.102,0.042,7.671,0.209
		c5.72,0.371,11.409,1.085,17.124,1.446c3.816,0.241,7.658,0.059,11.487,0.118c4.072,0.062,8.115,0.593,12.173,0.832
		c2.987,0.176,5.966,0.479,8.941,0.724c6.817,0.563,13.634,0.362,20.452,0.454c0.578,0.008,1.166,0.076,1.732,0.199
		c4.66,1.01,9.43,0.787,14.136,1.272c5.546,0.572,11.138,0.237,16.679,0.626c5.294,0.372,10.597,0.798,15.889,1.262
		c5.283,0.463,10.607,0.905,15.942,0.634c2.997-0.152,6.001-0.046,8.946,0.564c2.146,0.445,4.303,0.501,6.461,0.403
		c2.353-0.106,4.633,0.442,6.952,0.618c2.899,0.221,5.794,0.402,8.696,0.394c6.073-0.018,12.112,0.529,18.166,0.903
		c4.308,0.267,8.61,0.666,12.948,0.669c5.227,0.004,10.464,0.29,15.675,0.842c1.088,0.115,2.211,0.262,2.766-1.052
		c0.771,1.274,1.1,2.707,1.474,4.123c-3.964-1.282-8.062-0.879-12.124-1.002c-2.405-0.073-4.799-0.442-7.204-0.565"/>
	<path fill-rule="evenodd" fill="#5E7750" d="M244.087,159.749c-5.458-0.309-10.949-0.5-16.395-1.149
		c-1.151-0.137-2.327-0.097-3.491-0.107c-2.495-0.023-4.97-0.088-7.464-0.415c-4.112-0.54-8.291-0.584-12.399-1.146
		c-4.57-0.625-9.141-0.3-13.708-0.462c-1.74-0.062-3.473-0.311-5.209-0.483c-6.288-0.625-12.603-0.775-18.904-1.128"/>
	<path fill-rule="evenodd" fill="#C03737" d="M808.672,268.615c0.256,0.05,0.464,0.205,0.413,0.489
		c-0.067,0.376-0.377,0.531-0.729,0.519c-0.276-0.009-0.472-0.208-0.422-0.49C808,268.758,808.286,268.606,808.672,268.615z"/>
</g>
</svg>
