<svg xmlns="http://www.w3.org/2000/svg" viewBox="0 0 1440 900"><defs><style>.a{fill:#1e1e1e;}.b{fill:#fefced;}.c{fill:#cacaca;}.d{fill:#fefcec;}.e{fill:#fdfbeb;}.f{fill:#01f2c9;}.g{fill:#fbfaee;}.h{fill:#fdfbec;}.i{fill:#fbfaed;}.j{fill:#fcfbed;}.k{fill:#f8f8ed;}.l{fill:#f8f8ee;}.m{fill:#f0f0ea;}.n{fill:#f3f3ea;}.o{fill:#f2f2ee;}.p{fill:#babab6;}.q{fill:#f2f2eb;}.r{fill:#bebebd;}.s{fill:#e6e6e3;}.t{fill:#6e6c63;}.u{fill:#e5e5e1;}.v{fill:#717071;}.w{fill:#bfbfbd;}.x{fill:#cacbc7;}.y{fill:#a3a3a2;}.z{fill:#1f1f1f;}.aa{fill:#292721;}</style></defs><title>wallhaven-8481</title><path class="a" d="M1202.77,901.94h-24.06c0.26-2.59,2.61-2.75,4.3-3.45,2.37-1,3.11-2.39,2.65-4.94-1.89-10.45-3.65-20.92-6.31-31.21-1.38-5.35-1.95-5.8-7.42-5.61-3.12.11-6.21,0.63-9.31,1-4.46.47-4.76,1-3.36,5.18q5.6,16.9,12.29,33.41c0.72,1.78,2.08,3.52,1.15,5.67h-4.51c-1.76-.84-2.34-2.46-2.86-4.18-3.41-11.24-7.47-22.26-10.93-33.48a25.15,25.15,0,0,0-1.55-3.81,3.12,3.12,0,0,0-3.64-1.91c-4.19.67-8.42,1.11-12.62,1.7-2.37.33-3.17,1.42-2.75,3.81,1,5.53,1.87,11.08,2.75,16.63,0.25,1.59.68,3.2-.06,4.79a1.44,1.44,0,0,1-1.49.81c-2-1.51-2.12-3.86-2.58-6-1.15-5.34-2.32-10.68-3.48-16-0.57-2.62-1.93-3.6-4.48-3-3,.74-6.23,0-9.17,1.29-1,.26-1.94.45-2.92,0.65-6,1.21-6.37,1.54-6.6,7.8-0.26,7.09-.69,14.16-1.54,21.21-0.18,1.47-.23,3-1.82,3.84-2-.78-1.77-2.58-1.77-4.12,0-5.63-.37-11.26.48-16.88,1-6.4-.17-11.91-5.56-16.49s-10.28-10.25-15.52-15.28c-3.16-3-4.14-6.21-2.56-10.45,2.45-6.57,4.45-13.3,6.71-19.94a17,17,0,0,1,.77-2.12c0.59-1.18,1-3.19,2.55-2.71s1.33,2.46.9,3.92a31.13,31.13,0,0,0-.5,4.09c-0.87,2.4-.52,5-1.18,7.44s-1.19,5.1-2,7.58-0.23,4,2.15,5.09c2.72,1.24,5.41,2.58,8,4,2.44,1.36,3.9.66,5-1.74,1.38-2.93,2.83-5.85,4.41-8.68,0.59-1.05,1.19-2.61,2.62-2.25,1.63,0.4,1.48,2.15,1.43,3.48a72,72,0,0,1-1,8.17c-0.37,2.43.22,4.13,2.56,5.14,3.1,1.34,5.78,3.46,8.88,4.79,5.4,2.83,5.07,2.68,7.69-3.05,2.87-6.27,1.91-10.56-3.18-15.74-10.71-10.9-21.36-21.84-32.83-31.93-12-10.52-24.26-20.59-39-27.12-18.08-8-35.72-8.07-52.66,3-7.81,5.09-12.64,12.82-16.74,20.89s-6.66,16.47-8.92,25.08a7.55,7.55,0,0,0-.1,2.25c-2.18,15.18-2.34,11,5,22.15,4.07,6.16,8.22,12.29,12.36,18.41a13.73,13.73,0,0,0,2.05,2.68,1.38,1.38,0,0,0,1.71.24,1.34,1.34,0,0,0,.6-1.61,14.51,14.51,0,0,0-1.17-3.17q-5.75-13.48-11.57-26.93a13.34,13.34,0,0,1-.83-2.1c-0.27-1.1-.68-2.48.58-3s2,0.81,2.5,1.74c2.71,4.8,5,9.8,7.49,14.74,1.78,3.59,3.73,7.1,5.73,10.57,1.58,2.75,3.3,3.2,6.26,2,2.57-1,1.77-3,1.38-4.75-3.08-14.33-6.36-28.61-9.55-42.92-0.47-2.12-1.93-5.31.47-6.1,2.57-.84,3,2.73,3.84,4.64,5.56,12.2,11.14,24.38,16.48,36.68a9,9,0,0,0,5.89,5.3c4.41,1.43,8.89,2.66,13.2,4.36,2.47,1,3.07.36,2.64-2.23q-2.56-15.38-5.24-30.75c-0.34-2-.91-3.92-0.43-6,0.33-1,.5-2.15,2-1.81,1.9,2.2,2.16,5,2.73,7.68q2.6,12.12,5.16,24.24a8.22,8.22,0,0,0,4.18,5.86c2.82,1.62,5.57,3.37,8.38,5,3,1.77,3.36,1.56,3.44-1.74,0.48-18.14,1-36.28.77-54.44a18.7,18.7,0,0,1,.43-6c0.22-.69.47-1.53,1.37-1.58s1.22,0.8,1.44,1.47a23.28,23.28,0,0,1,1,5.91c0.65,11.36,1.75,22.69,2.41,34.05,0.18,3.16,1,5.3,4.3,6.05,3,0.7,4.49,2.67,4.93,5.82,1.05,7.62.55,15.25,0.45,22.88,0,2.79-1.83,4.55-4.08,5.92-4,2.41-7.84,4.94-11.79,7.36a9.46,9.46,0,0,0-4.56,6.5c-0.77,3.54-1.24,7.17-2.75,10.51a7.19,7.19,0,0,1-1.45,1.71h-7.52c-1-3.5,1-6.09,2.09-8.85-3.89,1.16-8.25,2.43-12.61,3.73-3,.88-3.93,4.2-6.77,5.12H944.84c-0.63-1.61.55-2.6,1.36-3.64a19.43,19.43,0,0,0,4.1-12.61c-0.12-12.78-.05-25.54,1.48-38.27,3.71-30.78,15.27-57.75,38.19-79.2,8.08-7.56,17.72-12.32,28.87-13.23,8-.65,15.66,1.29,23,4.51,10.51,4.62,19.9,11.07,29.27,17.59,22.83,15.89,45.12,32.55,68.42,47.77,0.63,0.41,1.25.83,1.9,1.21,3.13,1.83,3.54,1.65,3.6-1.94,0.08-5,.83-10,0.85-15,0-1.44,0-3.47,1.86-3.61s2,1.9,2.13,3.33c0.66,7.1,1.57,14.19,1.32,21.34-0.1,2.83,1.8,3.58,3.76,4.45a121.86,121.86,0,0,0,40.91,10.66c15.91,1.12,31.26-1.12,45.37-9.17,4.64-2.65,4.81-3.29,1.89-7.78a105.85,105.85,0,0,0-7.15-9.19c-0.84-1-2.1-2.41-.68-3.56,1.1-.9,2.38.31,3.24,1.18a104.45,104.45,0,0,1,8.91,10.66c0.61,0.81,1.22,2.37,2.49,1.52,1-.68-0.1-1.78-0.44-2.66-0.44-1.11-1.69-2.28-.54-3.38,0.94-.9,2.17-0.07,3.08.57,1.5,1,2.54.55,3.46-.77a3.65,3.65,0,0,0,.21-0.31c6.49-9.79,6.35-7.49-.2-15.35-6.23-7.47-12.93-14.55-18.22-22.83-1.14-1.78-3.7-3-5.28-4.93-2.92-3.48-6.71-6.08-9.84-9.28-24.43-25-52.36-45.46-82.43-63.11a13.7,13.7,0,0,0-5.51-2.21c-1.72-.19-2.83-0.2-3.27,1.79a1.86,1.86,0,0,1-2.13,1.69,2.34,2.34,0,0,1-1.64-1.89,11.11,11.11,0,0,1-.75-4c-0.34,3.14-1.74,6.37-3.07,9.62a1.53,1.53,0,0,1-1.64,1.25,1.77,1.77,0,0,1-1.12-1.41,33.18,33.18,0,0,1-1.12-7.79,40.66,40.66,0,0,0-2-11.44c-2.17-6.72-8.41-9.62-15-6.93-2.33,1-4.35,2.49-6.58,3.62-1.18.6-2.68,1.75-3.72,0.39s0.52-2.43,1.41-3.43a2.36,2.36,0,0,0,.65-1.18c-1.12-1.13-2.59-.86-4-0.75-3.67.28-7.06,1.61-10.5,2.78-3.08,1-6.17,2.18-9.53,1.69-0.87-.13-1.84-0.39-2.06-1.36s0.49-1.63,1.2-2.17c1.62-1.24,3.7-1.46,6-2.66-4.18.27-7.81,0.7-11.44,1.22-1.39.2-3.51,0.88-3.83-1-0.28-1.7,1.85-2,3.25-2.49a46.74,46.74,0,0,1,7.15-1.57,31.06,31.06,0,0,0-7.15.07c-1.46.17-3.68,0.63-3.94-1-0.32-2,2.11-1.91,3.55-2.4,1.27-.43,2.75-0.12,3.91-1.06-0.15-1.49-2.63-2.34-1.5-3.89s3.24-.9,4.89-0.39a54.65,54.65,0,0,1,9.59,4.3c2.08,1.11,3.62,1,5.21-.94,13.1-16.12,29.43-28.62,46.12-40.63,18.66-13.43,38.36-25.15,59.71-33.85a131.92,131.92,0,0,1,41.23-9.43A19,19,0,0,1,1242,591a6.91,6.91,0,0,1,3.54,9.17c-0.36.81-.74,1.74-1.73,1.78s-1.21-.82-1.45-1.51c-0.9-2.73-2.64-1.79-4.13-.82-4.83,3.13-8.24,7.43-9.13,13.2-1.19,7.78-4,15-7.2,22.08a19.3,19.3,0,0,1-9.29,9.45c-27.26,14-55.66,24.63-86,29.56-6.18,1-12.33,2.25-18.72,3,9,3.9,18.14,3.62,27.34,2.36a380.72,380.72,0,0,0,91.57-24.74c2.21-.9,4.26-2.15,6.45-3.07a16.13,16.13,0,0,0,8.68-8.92A172.57,172.57,0,0,0,1256.51,586a65.37,65.37,0,0,0-1.44-19.73c-1-4.31-1.79-4.93-6.09-5.13-21.59-1-42,3.55-61.71,12.3-23.92,10.64-45.3,25.31-65.15,42.09-13.94,11.78-27.8,23.67-40.73,36.68-11.26,11.34-25.73,14.27-41.39,10.44-8.31-2-15.38-6.73-22.59-10.92Q982,631.15,945.23,613c-29.3-14.54-58.88-28.5-89.56-40a254,254,0,0,0-36.33-10.89c-7.6-1.6-13.94-.28-20,4.52-5.6,4.44-11.18,8.91-16.4,13.78a194.6,194.6,0,0,0-34.57,42.39,9.22,9.22,0,0,0-.53,9.48c7.34,16.35,14.77,32.65,23.53,48.31a195.75,195.75,0,0,0,29.38,39.7c-2.69-6.7-1-12,3.9-16.6,1.74-1.62,3.39-3.34,5.09-5,2.42-2.38,5.53-2.73,8.63-3.16,3.36-.17,6.69-0.84,10.17-0.92-4-2.9-7.72-6.1-11.82-8.73-5.7-3.66-8.92-9-11.05-15.12s-3.73-12.45-5.69-18.64c-3.73-11.77.34-21.28,8-29.9,1.9-2.13,4.22-3.89,5.88-6.58-2.67-.12-5,2.28-7.53.62a2.73,2.73,0,0,1,.21-2.52c2.52-5.3,10.16-9.39,16-8.25,9,1.75,17.76,4.36,26.62,6.65,30.84,8,61.14,17.7,91.23,28.09,25.82,8.91,51.73,17.56,77.51,26.6a18.8,18.8,0,0,1,3.14,1.26c2.85,1.62,2.85,2.93.23,4.9,4.44,0.08,9,1,13.57,1.56,5.56,0.74,5.54.77,8.41-3.93,0.7-1.14,1.35-3,2.86-2.51,1.69,0.49,1.44,2.43,1.36,3.92-0.54,10.32-2.78,12-12.85,9.84-8.21-1.77-16.33-3.87-24.59-5.44a8.9,8.9,0,0,0-7.95,2.07c-8.14,6.68-16.49,13.09-24.68,19.7A26,26,0,0,1,964.16,704c-17,2.27-34.12,3.79-51.14,6-17.89,2.34-35.86,4-53.74,6.34a13.76,13.76,0,0,1-7.39-.59,3.6,3.6,0,0,0-4.64,1.24,112.23,112.23,0,0,0-14.67,23.11c-1.29,2.79-.81,3.45,2.63,3.32C845.6,743,856,742.26,866.3,741c32.61-4.11,64.74-10.76,96.65-18.54a28.33,28.33,0,0,0,16.17-10c5.13-6.32,10.36-12.57,15.55-18.84a21,21,0,0,1,1.5-1.69c1-.93,1.87-2.57,3.34-1.89s0.35,2.48.54,4.05c4.71-1.81,9.27-3.8,14.26-4.74a21.56,21.56,0,0,1-3.05.26c-1.23-.09-2.92,0-3.11-1.42s1.53-1.66,2.64-2.11a0.73,0.73,0,0,0-.57-0.17c-1.78-.33-4.58-0.26-4.26-2.53,0.27-1.92,2.92-1.08,4.62-1,5.76,0.2,11.51.51,17.24,1,4.24,0.38,5.15,2.12,2.74,5.57a75.8,75.8,0,0,0-5,7.47c-0.59,1.11-1.33,2.46-.1,3.41,1,0.78,1.7-.62,2.53-1.07,0.22-.12.39-0.31,0.61-0.44,1.27-.71,2.79-2.2,4-0.82s-0.5,2.67-1.39,3.79a30.71,30.71,0,0,1-2.35,2.43c-7.36,7.38-8.15,13.92-2.82,23,0.55,0.94,1.52,2,.63,3s-2.1.66-3.19,0.41c-2.29-.54-5-0.72-4.51-4.07a5.48,5.48,0,0,0,.27,2.35c0.49,1.06,1,2.34-.33,3s-2.35-.37-3-1.53a2.4,2.4,0,0,1-.3-1.18c-0.27,2.55,1.95,3.48,3.76,4.75,1,0.7,2.51,1.42,2.18,2.76-0.39,1.57-2.15,1.51-3.5,1.56-4,.15-8,0.13-12,0a19.7,19.7,0,0,0-12,3.59c-6.51,4.47-12.84,9.18-19.25,13.8-4.87,3.51-7.31,8.8-10.61,13.48a3.82,3.82,0,0,1-1.39,1.48c9.89-11.9,21.1-22,36.61-26.07a24.3,24.3,0,0,1,4.43-.82c1-.07,2.3-0.17,2.65.89,0.45,1.36-1,1.82-1.87,2.42a6.18,6.18,0,0,1-1,.48,60.49,60.49,0,0,0-20.43,14.41c-2.34,2.43-5,4.55-7.32,6.93,5.62-5.37,12.51-8.65,19.49-11.76,0.89-.4,2.19-0.8,2.76.2,0.8,1.42-.52,2.29-1.51,3a130.82,130.82,0,0,0-14.37,11.48c-14.15,12.81-23.25,28.7-29,46.7-1.37,4.3-2.41,8.69-3.43,13.09-0.56,2.42-1.06,5-4.21,5.59-0.12,0-.84-0.21-0.39.3,0.82,0.94,2.19,1.79.64,3-1.38,1.1-3.07.8-4.68,0.34a1.35,1.35,0,0,0-.35-0.14c1.11,0.56,2.46.41,3.51,1.2s2.17,1.62,1.62,2.69c-2.26,4.37.51,8.81-.52,13.26s-1.07,9.19-1.49,13.81c-0.81,8.87-.3,17.76-0.7,26.63-0.07,1.51-.06,3-1.32,4.16q-469.8,0-939.6.07c-2.82,0-3.45-.63-3.45-3.45q0.11-447.8,0-895.61c0-2.82.63-3.45,3.45-3.45q718.52,0.11,1437,0c2.82,0,3.46.63,3.45,3.45q-0.11,447.8,0,895.61c0,2.82-.63,3.46-3.45,3.46q-60.35-.16-120.69-0.07a6.79,6.79,0,0,1-1.85-2.32c-1.11-2.92,0-4.72,3.16-4.68,2.5,0,5,.58,7.88.91-4-5.45-7.75-10.7-11.5-16a50.16,50.16,0,0,1-4.28-6.63c-0.56-1.12-1.17-2.36-.36-3.56s2.39-1.2,3.77-1c2.33,0.36,4.57,1.14,7.53,1.8-4.2-6.34-8.77-11.63-13.1-17.08-7.41-9.32-15.4-18.15-23.05-27.26-1.76-2.1-3.48-2.6-5.85-1.23-1.07.62-2.34,1.31-3.52,0.43-1.36-1-.84-2.54-0.46-3.83,1-3.36,2.26-6.64,3.4-10a4.94,4.94,0,0,0-1.38-5.77,18.88,18.88,0,0,1-2.37-2.41c-3.69-4.91-8.08-6.05-13.74-3.27-3.12,1.53-3.38,1.43-1.4,4.39a3.27,3.27,0,0,0,1.33,1.36c1.32-.71.27-3.36,2.31-3.27s2.73,2,3.52,3.54c3,6,3.32,11.75-.69,17.69-8.33,12.36-16.18,25.06-26,36.35q-4.36,4.81-8.42,9.88c-8.26,9.48-16.38,19.09-25.39,27.89A19.23,19.23,0,0,1,1202.77,901.94Z"/><path class="b" d="M941.83,901.94c0.05-16.29.06-32.59,2.65-48.75,0.13-.8,1.22-2.35-0.92-2.51a2,2,0,0,1-.71-0.4c6.1-3.92-1.47-3.09-1.71-4.92-0.08-.23.05-0.28,0.41-0.33,1.37-.17,3.52,1,3.88-0.94s-1.91-1.83-3.22-2.4c-1.7-.73-3.34-1.58-5.78-2.74l9.47,0.56,0.21-.55L940,835.24c7.45-.11,7.44-0.12,9.24-7.88,4-17.35,11-33.31,22.41-47.14A115.59,115.59,0,0,1,998,757a93.45,93.45,0,0,0-26,15.35c9-12.08,19.45-22.25,34.64-28.15-21.19,2.3-33.71,16.18-46.41,30.06,0.77-3.72,8.77-16.38,12-18.79C978,751.1,984,747,989.69,742.51c6.34-5.06,13.44-6.73,21.36-6.12,3.21,0.25,6.46,0,10.8,0-2.8-1.68-5.28-2.45-6.56-4.13-1.41-1.85-.23-4.59-0.61-7.35a6.22,6.22,0,0,1,1.7,3.61c0.22,1.13.47,2.25,2.12,2.37,0-2.66-.54-5.33.39-8.29-1.35,7,4.38,5.58,7.72,7-2.27-2.76-4.62-5.4-5.07-9.13-0.8-6.62-1.07-13,5.62-17.22a21.62,21.62,0,0,0,5.46-5.39c-3.41.94-5.7,3.42-8.27,5.22-1.44-.56,2.66-3.93-1.75-3-0.41.09,0.21-1.27,0.46-1.89,2-4.77,5.37-8.62,8.64-13.15-8.55-1.32-16.77-1.21-25.13-1.84,2.5,1.68,5.39,1.19,8,2.33-1.72,1.47-3.92,1.52-6.33,2.52,2.83,0.45,5.05-.25,7.29-0.34,1,0,2.49-1,2.72.71,0.17,1.27-1.31,1.15-2.24,1.42-6.08,1.76-12.22,3.35-17.8,6.72-0.55-2.3,1-4.06,1.24-6.56-6.89,8.22-13.65,16-20.07,24a25.19,25.19,0,0,1-14.42,9.08c-36.14,9-72.54,16.55-109.66,20.16-7.57.74-15.2,0.91-22.8,1.42-2.48.17-3.1-.5-2.08-2.94,4.23-10.11,10.29-19,17.14-27.5,1-1.23,2.12-1.8,3.51-.63,2.26,1.91,4.93,1.55,7.51,1.25q47.24-5.47,94.46-11a28.61,28.61,0,0,1,4.1-.34c11.74,0.34,20-6.5,28.3-13.46,5.54-4.66,11.44-8.9,16.88-13.68,2.46-2.15,4.79-2.11,7.55-1.49,9.65,2.15,19.29,4.3,29,6.34,5.12,1.08,5.39.87,6.54-4.14a48.54,48.54,0,0,0,.88-5.94c0.08-.78.44-1.66-0.2-2.43a1.46,1.46,0,0,0-.56.42c-1.86,6.94-6.37,8.07-12.79,6.48-4.59-1.13-9.42-1.27-14.14-1.86-0.72-.09-1.55,0-1.89-1,2.08-.63,4.59.1,6.5-2.1-2.74-2.66-6.45-3-9.68-4.1-36.21-12.41-72.41-24.82-108.73-36.91-26.16-8.71-52.89-15.44-79.55-22.43-6.44-1.69-11.21-.14-15.45,4.5-1.26,1.37-2.69,2.6-3.45,4.37-0.13,2.17-1.63,3.59-2.82,5.18A113.28,113.28,0,0,0,790,644.69c-1.71,4-1.91,7.66.73,11.32a19.34,19.34,0,0,1,2.85,6.9c2.76,11.46,8.79,20.61,18.89,26.92a30.37,30.37,0,0,1,4.5,3.38c1,0.9,2.22,1.77,1.59,3.45-8.76.64-12.72,7.55-17.1,13.59-1.88,2.59-.53,6.07.13,9.12,0.31,1.42.78,2.8,1.44,5.15a189.27,189.27,0,0,1-22.1-26.16C766,676.84,755.7,652.92,745,629.2c-0.73-1.63,0-2.87.73-4.2,8.23-15.2,19-28.41,31.18-40.6a234.21,234.21,0,0,1,23-19.8c5.89-4.56,12.05-5.15,19-3.8,15.25,3,29.82,8.07,44.22,13.72,41.06,16.1,80.46,35.73,119.38,56.35,16.11,8.54,31.77,17.92,47.8,26.63,11.58,6.3,23.7,7.45,36.22,2.54,5.79-2.27,11-5.17,15.37-9.74,10.18-10.74,21.51-20.19,32.67-29.88A387.49,387.49,0,0,1,1147,595c16.51-11.52,34-21.43,53.07-27.94,16.69-5.69,33.83-8.8,51.62-6.89,2.25,0.24,3.19.83,3.89,3,3.13,9.66,2.91,19.47,1.68,29.33a177.62,177.62,0,0,1-13.7,49.55,21.48,21.48,0,0,1-12.08,11.91c-32.77,13.63-66.58,23.27-101.91,27.24-8.74,1-19.43-.94-25.88-4.83,6.18-1,11.82-2,17.47-2.89,28-4.52,54.91-12.26,80.25-25.19,4.64-2.36,9.53-4.2,13.87-7.16a11.3,11.3,0,0,0,3.91-3.93,79.63,79.63,0,0,0,8.52-24.22c1.12-6.83,5-11.89,11-15.28,3.65-2.08,4.27-1.65,4.62,2.44,0,0.49.14,1,.24,1.58,3.26-6.06.89-10.22-6.08-10.71-10.37-.73-20.43,1.24-30.37,3.85-19.62,5.15-37.29,14.6-54.38,25.2-22.68,14.07-44.11,29.78-62.54,49.25a52.82,52.82,0,0,0-5.22,6.38c-1.11,1.62-2,1.68-3.64.81-4-2.09-7.84-4.42-12.27-5.47a7.81,7.81,0,0,0-3.52-.3l4.73,4.32c-3.44,1.45-7,1-10.35,2.65,5-.36,9.67-0.77,14.35.89-4.28,2.16-9.3,1.72-13.7,4.14,6.11,0.12,12-2.79,18.85-.45-4.08,2.37-8,2.64-11.91,5.42,5.56,0.4,9.78-1,13.95-2.61,3.76-1.44,7.56-2.62,11.62-2.23,1.58,0.15,3.74.25,4.16,1.91,0.34,1.35-1.94,1.52-2.86,2.46-0.67.68-1.8,0.88-2.27,2.37,3.44-1,6-3,8.75-4.62,7.36-4.3,16.53-.75,18.45,8.31,1.35,6.38,1.66,12.84,2.75,19.44l4.54-14.44,2.37,9.49c1.72-2,1.62-4.18,1.82-7.24,1.41,3.91,4.59,2,6.64,3.4,2.47,1.67,5.09,3.14,7.66,4.67,29.13,17.32,56,37.54,79.44,62.12,2,2.14,3.86,2.06,6.23,1,0.15,1.9-2.61,3.13-.27,5.12,1.55,1.32,2.76,2.1,4.81.71-1.52,4.68-.88,5.2,4.59,4.32,0.12,1.45-2.52,1.57-1.68,3.2s2.24,0.15,3.53.41c-0.06,1.3-2.27,3.23,1,3.76,1.46,0.23,1,2.26,2,3.38,5.62,6.2,10.87,12.74,16.4,19,1.41,1.6,1.64,2.72.35,4.46a99.2,99.2,0,0,0-5.8,8.73c-1.29,2.2-2.32,2.15-3.79.28a5.06,5.06,0,0,0-3.39-2.08c1.2,1.49,2,2.67,3,3.73,1.26,1.38,1.14,2.43-.16,3.83s-2.19,1.94-3.53-.15a107.31,107.31,0,0,0-10.51-13.22,3.61,3.61,0,0,0-2.53-1.34c1.32,1.57,2.65,3.13,4,4.71a104.53,104.53,0,0,1,7.25,9.57c1.54,2.36,1.31,3.85-1.16,5.46-9.53,6.18-20,9.42-31.21,10.65-21.2,2.34-41.13-2.42-60.43-10.85-2.86-1.25-3.57-2.78-3.46-6a93.41,93.41,0,0,0-2.11-23.27c-0.31,3.57-.68,7.14-0.92,10.72s-0.42,7-.47,10.49c0,2.43-.39,3.16-2.88,1.6-12.6-7.87-24.64-16.54-36.79-25-18-12.62-35.47-26-54.25-37.55-7.63-4.67-15.67-8.35-24.64-9.62-15.6-2.2-28.21,3.92-39,14.47C970,789.51,959.25,812,954.58,837.55c-2.8,15.36-3.22,30.88-2.84,46.43,0.17,7-1.7,13.09-6.9,18h-3Z"/><path class="b" d="M1033.47,817.08q3.28,19.4,6.55,38.79c0.1,0.6.16,1.21,0.33,2.42-7.62-2.52-14.88-4.92-22.15-7.3-1.44-.47-1.58-1.83-2.07-2.93q-9-20-18-40a8.2,8.2,0,0,0-2.39-3.29q3.26,14.62,6.53,29.24c1.62,7.2,3.18,14.42,5,21.59,0.61,2.49,0,3.5-2.53,4-6.35,1.24-6.35,1.37-9.24-4.25-4.45-8.66-8.88-17.34-13.91-25.75q3.27,7.65,6.55,15.31c2.62,6.09,5.21,12.19,7.9,18.24,0.89,2,1.27,3.31-1.2,4.75-2.65,1.54-3-.49-3.83-1.74-6.46-9.53-12.83-19.11-19.31-28.62a6.76,6.76,0,0,1-1.3-4.89A66.89,66.89,0,0,1,972,822.24c6-16.58,16.5-29.6,31-39.52a45.75,45.75,0,0,1,7.21-4c4.12-1.84,5.92-1.36,8,2.6,3.67,7,6.64,14.3,9.43,20.3-1.23-6.89-1.67-15.15-2.57-23.34-0.32-2.95,1.82-3.8,4.36-4a56.69,56.69,0,0,1,14.94,1.3c16.4,3.37,30.81,11,44.07,21a6,6,0,0,1,2.64,5.84c-0.47,4.11-.94,8.22-1.63,12.29a7.69,7.69,0,0,1-.61,2.16c-0.37.73-.67,1.93-1.74,1.45s-0.45-1.52-.27-2.35l0.84-7.39-0.53-.14c-3.14,9.48-6.25,19-9.45,28.43-0.61,1.8.7,2.49,1.59,3.4,7,7.13,14,14.26,21.1,21.29a6.75,6.75,0,0,1,2.19,5.28c-0.19,9.61-.32,19.22-0.47,28.83,0.2,2.45-1,4.36-2.35,6.24h-48.88a20.39,20.39,0,0,0,.68-3.3c0.46-10.83,6-18,15.87-22,5.81-2.3,7.79-6.22,6.95-12.44-0.75-5.55-.57-11.25-0.53-16.88,0-2.65-.64-4.35-3.48-4.58-4.62-.36-5.8-2.93-6-7.38-0.68-13.49-1.94-26.95-3-40.42l-1,0v67.58c-6.49-4-12.08-7.42-17.7-10.82-1-.62-1.06-1.65-1.27-2.58-2.42-10.46-3.91-21.12-7-31.42a12.82,12.82,0,0,1-.18-3c-2.28-4.27-2-9.15-3.18-13.68a14.54,14.54,0,0,1-.81-3.52C1031.5,803.66,1033.08,810.27,1033.47,817.08Z"/><path class="b" d="M1241,859.8c8.28-10.19,15.56-21.09,22.83-32,1.52-2.28,3-4.6,4.28-7,3.06-5.7,1.55-13.18-3.5-17.81-0.56,1.91,1.66,4.88-1,5.57-1.76.45-2.75-2.44-3.77-4.11-2.31-3.8-2-3.18,1.79-5.26,7.3-4,12-1.18,17,4.16,3,3.19,4.57,5.72,2.47,10-1.71,3.53-2.59,7.46-3.81,11.12,0.91,1,1.55.35,2.15,0,5.14-2.86,4.91-2.67,9,1.92,11.23,12.59,22.07,25.49,32.34,38.87a32.15,32.15,0,0,1,4.79,7.52c-4.75-1.26-8.87-3.19-14.32-3.22,5.61,10.18,12.84,18.5,19.33,27.83-3.44-.4-6.56-0.82-9.69-1.1-4.18-.38-4.18-0.33-3,3.5,0.22,0.71.46,1.41,0.68,2.11H1271.2a8.56,8.56,0,0,1-2.71-2.51c-8.31-11.73-16.55-23.51-25.22-35C1242.23,863.06,1241.07,861.68,1241,859.8Z"/><path class="c" d="M1115.52,861.32c4-.67,8.07-1.32,12.1-2,2.32-.4,1.92,1.63,2.17,2.68,1.88,8,3.61,16.06,5.38,24.1,1.65,3.42,1.54,7.28,2.58,10.2-0.48-3.24-2-7-1.78-11-1.21-7.15-2.32-14.33-3.68-21.45-0.6-3.14-.33-4.8,3.54-5a137.26,137.26,0,0,0,14.46-2c1.86-.3,2.88.06,3.6,2,5,13.63,9.16,27.51,13.63,41.3,0.19,0.59.44,1.17,0.66,1.75h-30.83c-1.66-.79-2.1-2.37-2.58-3.94a157.81,157.81,0,0,0-13.29-30.15A19.43,19.43,0,0,0,1115.52,861.32Z"/><path class="d" d="M1115.52,861.32c2.53-.25,4,0.94,5.35,3.09a152.8,152.8,0,0,1,16.48,37.53h-37.6c-0.29-2.48.11-4.71,2.35-6.24,1.65-7.94,1.72-16,2.27-24.08,0.58-8.5.45-8.51,8.56-10C1113.78,861.47,1114.65,861.42,1115.52,861.32Z"/><path class="c" d="M1172.69,901.94c-6.68-14.42-11.67-29.47-16.8-44.87,7.14-.85,13.86-1.77,20.69-1.82,2.27,0,2.63,1.41,3.09,3a294,294,0,0,1,6.45,30c0.24,1.36.5,2.71,0.74,4.06,1,5.74,1,5.73-4.52,7.86-1.25.48-2.7,0.56-3.64,1.71h-6Z"/><path class="b" d="M1202.77,901.94c6.65-7.09,13.33-14.15,19.92-21.28,3.39-3.67,6.63-7.47,9.94-11.21,2.09-.42,2.86,1.28,3.68,2.55,5.34,8.25,10.55,16.58,15.39,25.13,0.81,1.44,2,3,.7,4.82h-49.63Z"/><path class="c" d="M1252.4,901.94c-1.89-5.77-5.54-10.59-8.66-15.67-3.52-5.72-6.6-11.75-11.1-16.82,2.69-3.3,4.94-7,8.36-9.65,3.34,3.38,5.88,7.37,8.64,11.18q9.66,13.31,19.18,26.72a43.89,43.89,0,0,1,2.38,4.23h-18.8Z"/><path class="e" d="M1026.06,901.94c1.89-3.88,4.62-6.46,9.15-7.24,3.75-.65,7.37-2.06,11.69-3.32l-3.55,10.57h-17.3Z"/><path class="b" d="M755.46,541.27C740.93,560,726.22,578.12,713.6,598L706,590.89l-0.48.26,4.7,10.66L692.19,598l-0.25.57,14.28,9.35c-6,1.48-11.64,1.49-17.67,3.39L704.78,615l-10.44,7.34,0.15,0.58c3.1-.37,6.28-0.42,9.28-1.18,3.89-1,5.74-.15,7.44,3.89,8.53,20.29,17.53,40.38,26.36,60.55,0.14,0.33.25,0.67,0.48,1.3-3.87.61-7.5-.26-11.09-0.85-18.27-3-35.8-8.76-53.52-13.9-5.77-1.68-9-5.32-12.26-9.55-13.77-17.84-25.87-36.66-33.08-58.2-4.31-12.87-5.84-25.89-2.22-39.37,5.34-19.91,17.87-32,37.84-36.65,12.48-2.91,25-2.61,37.62-1C719.77,530.29,737.62,535.11,755.46,541.27Z"/><path class="b" d="M1256.92,546.41c11.63-4.53,23-9.52,35.86-6.23,9,2.31,13.9,8.52,16.82,16.94,4.63,13.35.95,25.8-3.7,38.2-2.63,7-5.76,13.79-10.5,19.67-8.75,10.87-20.5,14.79-34.33,14.76,5.42-12.08,8.27-24.58,9.89-37.34,1.48-11.67,2.47-23.36-1.86-34.78A17.22,17.22,0,0,0,1256.92,546.41Z"/><path class="f" d="M994,673.49a2.38,2.38,0,0,1-.85-0.07c-5.46-3.12-9.93-.76-15.13,1.53s-11.12.08-16.64-.7c-15.12-2.12-30.19-4.56-45.25-7-12.35-2-24.66-4.21-37-6.31a5.34,5.34,0,0,1-3.51-2.56,61.07,61.07,0,0,1-9.67-23.7c-0.73-3.68,1.59-2.88,3.56-2.33,11.88,3.35,23.77,6.69,35.62,10.13q32.35,9.41,64.66,18.94,12.94,3.81,25.83,7.79c1.22,0.38,3.33.31,3.26,1.86s-2.17,1.7-3.5,2.24A4.91,4.91,0,0,1,994,673.49Z"/><path class="c" d="M1086.83,816l0.51,1.83c1.53-5.67,1.67-11.17,2.58-16.55,0.3-1.77-.87-2.66-2.14-3.6-13.52-10-28.07-17.8-44.74-21a61.85,61.85,0,0,0-13.78-1.12c-2.71.1-3.32,0.95-3,3.66a230.3,230.3,0,0,1,2.16,27.15q-4.53-9.77-9.07-19.53a42.57,42.57,0,0,1-2.43-5.05c-1.22-3.89-3.38-3.4-6.29-1.93-11.3,5.71-20.11,14.08-27.61,24.21-4.27,5.76-6.74,12.49-11,18.16,2.86-16.45,8.34-32,20.26-43.94,13.45-13.48,30.38-16.77,48.62-12,15.56,4.05,28.57,12.81,40.78,23.06,11.3,9.49,22.31,19.27,32.65,29.79,5,5.08,9.81,10.33,14.75,15.46,1.35,1.4,1.86,2.72,1.08,4.68-1.48,3.71-2.73,7.52-4,11.31-0.86,2.57-1.9,4.12-4.55,1.57a17.27,17.27,0,0,0-3.09-1.94c-2.46-2.31-3.32-5.52-4.64-8.45-3.15-7-5.82-14.29-9.85-20.91-1.17-1.92-2.18-3.93-3.47-5.77-2.64-3.77-3.32-3.75-5.33.27-2.12,4.24-4.33,8.44-6.26,12.77a7.82,7.82,0,0,1-.66,1.34c-0.74,1.06-1.18,3.05-2.8,2.37-1.43-.6-0.65-2.4-0.56-3.74s1.3-2.76.58-4.32A32,32,0,0,1,1086.83,816Z"/><path class="f" d="M1108.24,661.72c5.08-5.32,10.9-9.72,16.74-14.1,12.94-9.72,26.23-18.89,40.95-25.79,2.48-1.16,5.1-2,7.58-3.17,3-1.4,4.14-.57,3.69,2.67-1.69,12-6.91,21.52-18.72,26.27a317.12,317.12,0,0,1-35,11.86c-2.27.62-4.54,1.52-6.31-1.23-1-1.52-2.26-.37-3.21.36C1112.22,659.94,1110.55,661.37,1108.24,661.72Z"/><path class="c" d="M818.51,696.67c-1.71-2.76-4.51-4.3-7.11-5.93-10.22-6.39-16.12-15.74-19.05-27.17a22.22,22.22,0,0,0-3.12-7.54,10,10,0,0,1-1.09-10.21,103.24,103.24,0,0,1,14.47-25.22c1.15-1.48,1.49-3.77,3.69-4.39,3.71-.31,6.86-2.76,11.28-3-2.71,4.11-6.18,6.8-8.89,10.12-6.16,7.54-11,15.54-8,25.93,1.61,5.64,3.17,11.29,4.85,16.91,0.75,2.5,1.76,4.93,2.62,7.4,2.95,8.45,10.85,11.94,17.11,17.06,2.08,1.7,4.34,3.17,7.06,5.14Z"/><path class="c" d="M1199.56,857.78c1.54-.21,3.15.64,4.28,2.89q4,8,8.41,15.9c0.86,1.54.69,2.35-.65,3.39-6.24,4.79-12.58,9.45-19.21,13.7-1.74,1.12-2.74,1.26-3.29-1.23-1.75-7.92-3.68-15.8-5.58-23.69-0.54-2.25.09-3.93,2.15-5C1189.92,861.6,1193.5,857.9,1199.56,857.78Z"/><path class="g" d="M1207.32,744.75l-45.06-34.85,25.74,1.65c-5-4.88-10.9-7.55-16.57-11.67,7.12-1.3,13.75-.58,20.72-0.38-6.15-7.26-16-8.27-22.82-14.7,20.9-7.47,41.45-14.67,61.74-22.62-17,8.62-34.61,16-52.88,23.63a123.12,123.12,0,0,1,23.75,17.67c-6.48-.45-12.15-1.55-18.55-0.89,5.3,4.77,10.68,8.74,15.16,14.29-7-.48-13.49-2-20.76-1.57l30.72,29.43A0.82,0.82,0,0,1,1207.32,744.75Z"/><path class="h" d="M1085.54,823.77c1.74,2.39-1.12,4.8.34,7.56,2.61-5.27,5.06-10.41,7.7-15.45,1.11-2.13,1.53-5.86,3.9-5.77,2.2,0.08,3.66,3.32,5,5.56a200.79,200.79,0,0,1,16,34.54c-3.76-1.91-7.5-3.85-11.28-5.71-1.39-.68-1.55-1.65-1.38-3,0.56-4.45,1-8.91,1.59-14.45a83.74,83.74,0,0,0-7,13.69c-1,2.27-1.92,3-4.35,1.68-3.79-2.13-7.77-3.93-11.67-5.86-1.65-.81-2.4-1.69-1.53-3.79A82.9,82.9,0,0,0,1085.54,823.77Z"/><path class="h" d="M1061.39,875.11c-4.19,3.89-8.86,6.74-11.88,11.3-0.54.82-1.61,0.53-2.46,0.55-6.88.17-13.76,0.2-20.64,0.5-2.26.1-3.36-1-4.52-2.59-0.82-1.13-.93-1.72.26-2.67q8.49-6.79,16.82-13.79c1.24-1.05,2.1-.81,3.29-0.13,2.6,1.49,5.23,2.92,7.9,4.28,1.53,0.78,2.7,2,5,.44C1057,871.76,1058.95,874.53,1061.39,875.11Z"/><path class="i" d="M833.57,653.46c1.94,10.16,7.45,17.83,15.53,23.94,2.58,2,4.73,4.46,7.15,6.63a42.12,42.12,0,0,0,19.15,10.31c-6.67.66-13.31,2.27-19.24-3.08-6.67-6-13.88-11.45-18.94-19.07A24.85,24.85,0,0,1,833.57,653.46Z"/><path class="j" d="M829,706.28c-5.22,4.54-9.5,9.91-13.74,15.33a9,9,0,0,0-1.58,8.06c0.5,2.24,1,4.5.1,6.85-3-6.05-5.13-12.55-3.95-19.15,0.66-3.67,4.54-6.42,7.35-9.25,2.07-2.08,3.79-4.81,7.28-4.77C826.88,702.89,828.92,703,829,706.28Z"/><path class="c" d="M1156,853.06q-10.6,0-21.19,0c-1.24,0-1.38-.75-1.38-1.72,0-3.83,0-7.65,0-12.27,7.33,5.81,15,9.57,22.83,12.92Z"/><path class="k" d="M970.05,851.19l25.36,31.45-0.53.49L981,869.78c-2.7-2.61-5.17-5.51-8.14-7.76C969.13,859.18,968.53,855.82,970.05,851.19Z"/><path class="l" d="M877,684.32c-8.48.55-14.3-2-19-7.65-2.69-3.27-6-6-8.9-9.12a15.34,15.34,0,0,1-4.37-10.48C852.54,669.22,863.19,677.85,877,684.32Z"/><path class="m" d="M970,840.57l21.84,31c-1.35.4-1.64-.61-2.09-1.15-6-7.36-12-14.8-18.07-22.09C969.83,846.17,969.18,844,970,840.57Z"/><path class="n" d="M988.79,883.46q-8.78-7.15-17.56-14.31c-2-1.6-1.12-3.91-2-5.31l20.65,18.51Z"/><path class="o" d="M822.28,739.87c0.88-9.17,16.11-29.06,24-30.77A58.51,58.51,0,0,0,833,723.36C829.44,728.58,825.31,733.43,822.28,739.87Z"/><path class="p" d="M959.13,842c-1.54,15.9-3.43,31.83,1.57,47.75C955,885.24,955.39,853.77,959.13,842Z"/><path class="q" d="M1182.63,640.73a66.57,66.57,0,0,0,7.15-15.85C1192.18,630.6,1189.78,635.7,1182.63,640.73Z"/><path class="r" d="M829,706.28a4.92,4.92,0,0,0-4.53-2.93c7.43-1.47,11-1.57,14.53-.23C835.77,705.19,832.11,705,829,706.28Z"/><path class="s" d="M1010.54,708.81c-2,5.85-6,10.06-11.42,13.05Z"/><path class="t" d="M1033.47,817.08c-1.8-6.88-2.47-13.93-3.52-20.94a128.73,128.73,0,0,1,4.26,18.63C1033.33,815.34,1033.81,816.35,1033.47,817.08Z"/><path class="u" d="M971.51,873.95l12,10.54-0.69.78c-3.83-3.72-9-5.9-12.35-10.2Z"/><path class="v" d="M1136,885.33c1.23,3.65,1.5,7.45,1.91,11.25a32.09,32.09,0,0,1-2.71-10.49Z"/><path class="w" d="M973.84,883.7l6.37,4.92C977.62,887.59,974.21,887.66,973.84,883.7Z"/><path class="x" d="M1196.8,633.73c0-2.27-.09-3.46,0-4.63,0.07-.67-0.74-2,0.85-1.84a1.51,1.51,0,0,1,1.09,2A40.26,40.26,0,0,1,1196.8,633.73Z"/><path class="y" d="M1207.32,744.75l1.2,0,3.89,3.2A9.19,9.19,0,0,1,1207.32,744.75Z"/><path class="z" d="M1092.89,740c-6.63-5.69-13.26-11.18-21.54-14.23-5.28-1.95-5.48-1.79-5.5,3.68,0,0.88,0,1.75,0,2.63,0,1.74-.75,1.95-2.07,1.05-7.3-5-13.11-11.3-16.45-19.53-1.84-4.54,2-9.88,6.89-9.94,4.5,0,9,.34,13.51.5a5.18,5.18,0,0,1,4.13,2.24C1079.8,717,1086.16,728.6,1092.89,740Z"/><path class="z" d="M1112.86,715.86c-2.91-1.15-5.75-2.41-8.68-3.42-4.15-1.43-4.84-.89-4,3.3,0.93,4.74,2.1,9.44,3,14.21-3.84-7.39-8.06-14.58-11-22.37-1.83-4.79-.79-8,3.25-11.18,1.38-1.07,2.73-2.2,4.21-3.12,5.65-3.54,12-1,13.84,5.4C1114.55,702.55,1114.33,709.53,1112.86,715.86Z"/><path class="aa" d="M1029.35,743.39c7.73,0,18.15,4.17,24.36,9.78Z"/></svg>