<svg xmlns="http://www.w3.org/2000/svg" viewBox="0 0 2560 1600"><defs><style>.a{fill:#78c4d5;}.b{fill:#459aa7;}.c{fill:#79c167;}.d{fill:#c4d547;}.e{fill:#f4d53d;}.f{fill:#f18b33;}.g{fill:#e768a1;}.h{fill:#be62a5;}.i{fill:#fefefe;}</style></defs><title>wallhaven-78000</title><path class="a" d="M-2-1H318.8c1.76,1.36,2.14,3.28,2.22,5.34,0.11,2.84.1,5.68,0.1,8.52q0,788.35-.07,1576.69c0,4.52,1.46,9.41-2,13.5-1.75.83-3.62,0.43-5.43,0.43q-155.11,0-310.21,0c-6.6,0-5.93.68-5.93-5.87Q-2.5,801-2.47,4.46C-2.47,2.64-2.92.75-2-1Z"/><path class="b" d="M318.87,1602.85c0-3.34-.06-6.68-0.06-10q0-796.91,0-1593.83H639.6c1.76,1.36,2.14,3.28,2.22,5.34,0.11,2.84.1,5.68,0.1,8.52q0,788.34-.07,1576.68c0,4.52,1.45,9.41-2,13.5-1.75.85-3.61,0.44-5.42,0.44q-155.15,0-310.29,0C322.42,1603.47,320.52,1604.1,318.87,1602.85Z"/><path class="c" d="M639.6,1602.84V-1H960.4c1.76,1.36,2.14,3.28,2.22,5.34,0.11,2.84.1,5.68,0.1,8.52q0,788.34-.07,1576.68c0,4.52,1.45,9.41-2,13.5-1.75.85-3.62,0.44-5.42,0.44q-155.18,0-310.36,0C643.15,1603.47,641.24,1604.11,639.6,1602.84Z"/><path class="d" d="M960.4,1602.84q0-801.92,0-1603.83h320.8c1.76,1.36,2.14,3.28,2.22,5.34,0.11,2.84.1,5.68,0.1,8.52q0,788.34-.07,1576.68c0,4.52,1.45,9.41-2,13.5-1.75.85-3.62,0.44-5.42,0.44q-155.18,0-310.36,0C963.95,1603.47,962,1604.11,960.4,1602.84Z"/><path class="e" d="M1281.21,1602.84q0-801.92,0-1603.83H1602c1.76,1.36,2.14,3.28,2.22,5.34,0.11,2.84.1,5.68,0.1,8.52q0,788.34-.07,1576.68c0,4.52,1.45,9.41-2,13.5-1.75.85-3.62,0.44-5.42,0.44q-155.18,0-310.36,0C1284.75,1603.47,1282.84,1604.11,1281.21,1602.84Z"/><path class="f" d="M1602,1602.84q0-592.92,0-1185.84,0-209,0-418h320.8c1.76,1.36,2.14,3.28,2.22,5.34,0.11,2.84.1,5.68,0.1,8.52q0,788.34-.07,1576.68c0,4.52,1.45,9.41-2,13.5-1.75.85-3.62,0.44-5.42,0.44q-155.17,0-310.34,0C1605.57,1603.47,1603.66,1604.11,1602,1602.84Z"/><path class="g" d="M1922.79,1602.84q0-801.92,0-1603.84h320.8c1.76,1.36,2.14,3.28,2.22,5.34,0.11,2.84.1,5.68,0.1,8.52q0,788.34-.07,1576.68c0,4.52,1.45,9.41-2,13.5-1.75.85-3.62,0.44-5.42,0.44q-155.18,0-310.37,0C1926.34,1603.47,1924.43,1604.11,1922.79,1602.84Z"/><path class="h" d="M2243.62,1602.84q0-801.92,0-1603.83h320.8c0.93,1.73.47,3.61,0.47,5.41q0,796.48,0,1593c0,6.91.68,6.12-6.19,6.12q-154.88,0-309.77,0C2247.17,1603.47,2245.26,1604.11,2243.62,1602.84Z"/><path class="i" d="M2243.62,1602.84c1.83,0.06,3.67.16,5.5,0.16q154.36,0,308.72,0c7.49,0,6.55.9,6.55-6.76q0-798.61,0-1597.23c0.31,0.22,1-.51,1,0.5,0,1.34,0,2.67,0,4q0,797.92.12,1595.84c0,4.3-1.17,4.74-5,4.74q-1279.33-.15-2558.66,0c-3.84,0-5-.45-5-4.75q0.2-797.92.19-1595.84C-2.94,2-4.09.11-2-1Q-2,796.6-2,1594.2c0,1.67.11,3.35,0,5-0.22,2.74.75,4.14,3.66,3.8a17.64,17.64,0,0,1,2,0H314.36c1.5,0,3-.09,4.5-0.14s3,0.14,4.5.14H635.1c1.5,0,3-.1,4.5-0.16s3,0.16,4.49.16H955.9c1.5,0,3-.1,4.49-0.16s3,0.16,4.5.16h311.82c1.5,0,3-.1,4.5-0.16s3,0.16,4.5.16h311.82c1.5,0,3-.1,4.5-0.16,1.33,0.05,2.67.16,4,.16h312.77c1.33,0,2.67-.1,4-0.16,1.5,0.05,3,.16,4.5.16h311.83C2240.62,1603,2242.12,1602.89,2243.62,1602.84Z"/></svg>