<?xml version="1.0" encoding="UTF-8"?>
<svg width="55px" height="9px" viewBox="0 0 55 9" version="1.1" xmlns="http://www.w3.org/2000/svg" xmlns:xlink="http://www.w3.org/1999/xlink">
    <!-- Generator: Sketch 41.2 (35397) - http://www.bohemiancoding.com/sketch -->
    <title>BELVILLE</title>
    <desc>Created with Sketch.</desc>
    <defs></defs>
    <g id="Page-1" stroke="none" stroke-width="1" fill="none" fill-rule="evenodd">
        <path d="M4.587,6.515 C4.96100187,6.515 5.25433227,6.44716735 5.467,6.3115 C5.67966773,6.17583266 5.786,5.96500143 5.786,5.679 L5.786,5.657 C5.786,5.40033205 5.68700099,5.19683408 5.489,5.0465 C5.29099901,4.89616591 4.9720022,4.821 4.532,4.821 L2.574,4.821 L2.574,6.515 L4.587,6.515 Z M4.136,3.413 C4.51000187,3.413 4.8069989,3.34883397 5.027,3.2205 C5.2470011,3.09216602 5.357,2.88500143 5.357,2.599 L5.357,2.577 C5.357,2.32033205 5.26166762,2.12416734 5.071,1.9885 C4.88033238,1.85283265 4.60533513,1.785 4.246,1.785 L2.574,1.785 L2.574,3.413 L4.136,3.413 Z M0.924,0.3 L4.499,0.3 C5.38633777,0.3 6.05733106,0.52733106 6.512,0.982 C6.86400176,1.33400176 7.04,1.77033073 7.04,2.291 L7.04,2.313 C7.04,2.5330011 7.01250027,2.72733249 6.9575,2.896 C6.90249972,3.06466751 6.82916713,3.21683266 6.7375,3.3525 C6.64583287,3.48816735 6.53950061,3.60733282 6.4185,3.71 C6.29749939,3.81266718 6.16733403,3.9006663 6.028,3.974 C6.47533557,4.14266751 6.82733205,4.37183189 7.084,4.6615 C7.34066795,4.95116811 7.469,5.3526641 7.469,5.866 L7.469,5.888 C7.469,6.24000176 7.40116734,6.54799868 7.2655,6.812 C7.12983265,7.07600132 6.93550126,7.29599912 6.6825,7.472 C6.42949873,7.64800088 6.12516844,7.77999956 5.7695,7.868 C5.41383156,7.95600044 5.01966883,8 4.587,8 L0.924,8 L0.924,0.3 Z M8.866,0.3 L14.674,0.3 L14.674,1.807 L10.549,1.807 L10.549,3.369 L14.179,3.369 L14.179,4.876 L10.549,4.876 L10.549,6.493 L14.729,6.493 L14.729,8 L8.866,8 L8.866,0.3 Z M16.236,0.3 L17.93,0.3 L17.93,6.46 L21.769,6.46 L21.769,8 L16.236,8 L16.236,0.3 Z M22.385,0.3 L24.255,0.3 L26.268,5.723 L28.281,0.3 L30.107,0.3 L26.994,8.055 L25.498,8.055 L22.385,0.3 Z M31.372,0.3 L33.066,0.3 L33.066,8 L31.372,8 L31.372,0.3 Z M34.991,0.3 L36.685,0.3 L36.685,6.46 L40.524,6.46 L40.524,8 L34.991,8 L34.991,0.3 Z M41.8,0.3 L43.494,0.3 L43.494,6.46 L47.333,6.46 L47.333,8 L41.8,8 L41.8,0.3 Z M48.609,0.3 L54.417,0.3 L54.417,1.807 L50.292,1.807 L50.292,3.369 L53.922,3.369 L53.922,4.876 L50.292,4.876 L50.292,6.493 L54.472,6.493 L54.472,8 L48.609,8 L48.609,0.3 Z" id="BELVILLE" fill="#FFFFFF"></path>
    </g>
</svg>