<?xml version="1.0" encoding="UTF-8"?>
<svg width="1010px" height="187px" viewBox="0 0 1010 187" version="1.1" xmlns="http://www.w3.org/2000/svg" xmlns:xlink="http://www.w3.org/1999/xlink">
    <!-- Generator: Sketch 41.2 (35397) - http://www.bohemiancoding.com/sketch -->
    <title>Group 2</title>
    <desc>Created with Sketch.</desc>
    <defs></defs>
    <g id="Page-1" stroke="none" stroke-width="1" fill="none" fill-rule="evenodd">
        <g id="Group-2">
            <g id="Group">
                <rect id="Rectangle-2" fill="#EDEDED" x="182" y="3" width="35" height="25"></rect>
                <circle id="Oval" fill="#DFDFDF" cx="92" cy="92" r="92"></circle>
                <circle id="Oval-Copy-4" stroke="#E8E8E8" fill="#DFDFDF" cx="92" cy="92" r="84"></circle>
                <circle id="Oval-Copy-5" stroke="#E8E8E8" fill="#DFDFDF" cx="92" cy="92" r="76"></circle>
                <circle id="Oval-Copy-6" stroke="#E8E8E8" fill="#DFDFDF" cx="92" cy="92" r="67"></circle>
                <circle id="Oval-Copy-7" stroke="#E8E8E8" fill="#DFDFDF" cx="92" cy="92" r="58"></circle>
                <circle id="Oval-Copy-8" stroke="#E8E8E8" fill="#DFDFDF" cx="92" cy="92" r="49.5"></circle>
                <circle id="Oval-Copy-9" stroke="#E8E8E8" fill="#DFDFDF" cx="92" cy="92" r="40.75"></circle>
                <circle id="Oval-Copy-10" stroke="#E7E7E7" fill="#DFDFDF" cx="92" cy="92" r="32.375"></circle>
                <circle id="Oval-Copy" fill="#FFFFFF" cx="92" cy="92" r="24"></circle>
                <circle id="Oval-Copy-2" fill="#CBA98A" cx="92" cy="92" r="9"></circle>
                <circle id="Oval-Copy-3" fill="#717171" cx="92" cy="92" r="4"></circle>
                <rect id="Rectangle" fill="#B6B6B6" x="201" y="0" width="10" height="23"></rect>
                <rect id="Rectangle-Copy" fill="#FFFFFF" x="206" y="23" width="5" height="108"></rect>
                <polygon id="Rectangle-Copy-2" fill="#B6B6B6" transform="translate(204.540972, 137.485670) rotate(26.000000) translate(-204.540972, -137.485670) " points="201.746023 128.295083 207.335921 128.350212 206.260713 146.676257 203.356171 146.423994"></polygon>
                <circle id="Oval-2" fill="#FFFFFF" cx="210" cy="179" r="7"></circle>
                <circle id="Oval-2-Copy" fill="#FFFFFF" cx="189" cy="179" r="7"></circle>
            </g>
            <path d="M896.055063,36.5641026 L896.055063,74.4529915 L1003.37657,74.4529915 C1004.95871,74.4529915 1006.32109,74.9829007 1007.46375,76.042735 C1008.60641,77.1025694 1009.17773,78.5156607 1009.17773,80.2820513 L1009.17773,151.555556 C1009.17773,151.908834 1009.13378,152.173788 1009.04589,152.350427 C1008.95799,152.527066 1008.91404,152.792021 1008.91404,153.145299 C1008.91404,153.498577 1008.95799,153.85185 1009.04589,154.205128 C1009.13378,154.558406 1009.17773,154.911679 1009.17773,155.264957 L1009.17773,180.17094 C1009.17773,181.937331 1008.60641,183.350422 1007.46375,184.410256 C1006.32109,185.470091 1004.95871,186 1003.37657,186 L866.258183,186 C862.390722,186 860.45702,184.056999 860.45702,180.17094 L860.45702,155.264957 C860.45702,151.378898 862.390722,149.435897 866.258183,149.435897 L970.942796,149.435897 L970.942796,112.34188 L866.258183,112.34188 C862.390722,112.34188 860.45702,110.39888 860.45702,106.512821 L860.45702,5.82905983 C860.45702,1.94300051 862.390722,0 866.258183,0 L1003.37657,0 C1004.95871,0 1006.32109,0.529909231 1007.46375,1.58974359 C1008.60641,2.64957795 1009.17773,4.06266923 1009.17773,5.82905983 L1009.17773,30.7350427 C1009.17773,32.5014333 1008.60641,33.9145246 1007.46375,34.974359 C1006.32109,36.0341933 1004.95871,36.5641026 1003.37657,36.5641026 L896.055063,36.5641026 Z" id="Path" fill="#FFFFFF"></path>
            <path d="M844.655858,0 C846.062208,0 847.38064,0.529909231 848.611196,1.58974359 C849.841752,2.64957795 850.45702,4.06266923 850.45702,5.82905983 L850.45702,30.7350427 C850.45702,32.3247943 849.841752,33.6937265 848.611196,34.8418803 C847.38064,35.9900342 846.062208,36.5641026 844.655858,36.5641026 L795.082288,36.5641026 L795.082288,180.17094 C795.082288,181.937331 794.510967,183.350422 793.368308,184.410256 C792.225649,185.470091 790.863269,186 789.281126,186 L763.175895,186 C759.308434,186 757.374732,184.056999 757.374732,180.17094 L757.374732,36.5641026 L707.801162,36.5641026 C706.394813,36.5641026 705.07638,35.9900342 703.845824,34.8418803 C702.615269,33.6937265 702,32.3247943 702,30.7350427 L702,5.82905983 C702,4.06266923 702.615269,2.64957795 703.845824,1.58974359 C705.07638,0.529909231 706.394813,0 707.801162,0 L844.655858,0 Z" id="Path" fill="#FFFFFF"></path>
            <path d="M685.919547,1 C687.50169,1 688.908019,1.57325174 690.138574,2.7197724 C691.36913,3.86629307 691.984399,5.23327798 691.984399,6.82076814 L691.984399,181.179232 C691.984399,182.766722 691.36913,184.133707 690.138574,185.280228 C688.908019,186.426748 687.50169,187 685.919547,187 L659.550627,187 C657.968484,187 656.650051,186.426748 655.595289,185.280228 C654.540527,184.133707 654.013154,182.766722 654.013154,181.179232 L654.013154,150.487909 L580.971245,150.487909 L580.971245,181.179232 C580.971245,182.766722 580.399924,184.133707 579.257265,185.280228 C578.114606,186.426748 576.840121,187 575.433772,187 L548.801162,187 C547.394813,187 546.07638,186.426748 544.845824,185.280228 C543.615269,184.133707 543,182.766722 543,181.179232 L543,6.82076814 C543,5.23327798 543.615269,3.86629307 544.845824,2.7197724 C546.07638,1.57325174 547.394813,1 548.801162,1 L685.919547,1 Z M654.013154,113.446657 L654.013154,37.512091 L580.971245,37.512091 L580.971245,113.446657 L654.013154,113.446657 Z" id="Combined-Shape" fill="#FFFFFF"></path>
            <path d="M436.652799,37.72103 L436.652799,75.5064378 L489.390639,75.5064378 C490.972782,75.5064378 492.335163,76.0829699 493.477822,77.2360515 C494.620481,78.3891331 495.191802,79.7639405 495.191802,81.360515 L495.191802,107.703863 C495.191802,109.300437 494.620481,110.719593 493.477822,111.961373 C492.335163,113.203154 490.972782,113.824034 489.390639,113.824034 L436.652799,113.824034 L436.652799,150.27897 L527.098195,150.27897 C528.680338,150.27897 530.042719,150.855502 531.185378,152.008584 C532.328037,153.161665 532.899358,154.536473 532.899358,156.133047 L532.899358,181.145923 C532.899358,182.919894 532.328037,184.33905 531.185378,185.403433 C530.042719,186.467816 528.680338,187 527.098195,187 L405.801162,187 C401.933701,187 400,185.04866 400,181.145923 L400,6.85407725 C400,2.95133957 401.933701,1 405.801162,1 L527.098195,1 C528.680338,1 530.042719,1.53218352 531.185378,2.59656652 C532.328037,3.66094953 532.899358,5.08010558 532.899358,6.85407725 L532.899358,31.8669528 C532.899358,33.4635273 532.328037,34.8383347 531.185378,35.9914163 C530.042719,37.1444979 528.680338,37.72103 527.098195,37.72103 L436.652799,37.72103 Z" id="Path" fill="#FFFFFF"></path>
            <path d="M383.919547,0.791067605 C387.787008,0.791067605 389.72071,2.72476908 389.72071,6.59223004 L389.72071,72.5145304 C389.72071,74.4482609 389.105441,75.9424848 387.874885,76.9972469 L378.118385,85.9626797 C376.887829,87.1932355 376.27256,88.5995638 376.27256,90.1817069 L376.27256,97.8286938 C376.27256,99.4108369 376.887829,100.817165 378.118385,102.047721 L387.874885,110.485775 C389.105441,111.716331 389.72071,113.210555 389.72071,114.968492 L389.72071,180.099725 C389.72071,183.967186 387.787008,185.900887 383.919547,185.900887 L246.801162,185.900887 C245.219019,185.900887 243.856639,185.373514 242.71398,184.318752 C241.571321,183.26399 241,181.857661 241,180.099725 L241,6.59223004 C241,4.83429324 241.571321,3.42796489 242.71398,2.37320281 C243.856639,1.31844073 245.219019,0.791067605 246.801162,0.791067605 L383.919547,0.791067605 Z M351.749465,43.5087183 C351.749465,41.9265751 351.178144,40.5641946 350.035485,39.4215356 C348.892826,38.2788767 347.530445,37.7075558 345.948302,37.7075558 L277.38911,37.7075558 L277.38911,74.8877333 L345.948302,74.8877333 C347.530445,74.8877333 348.892826,74.2724646 350.035485,73.0419088 C351.178144,71.8113531 351.749465,70.4929203 351.749465,69.0865708 L351.749465,43.5087183 Z M351.749465,143.710615 L351.749465,118.396452 C351.749465,116.990102 351.178144,115.671669 350.035485,114.441113 C348.892826,113.210558 347.530445,112.595289 345.948302,112.595289 L277.38911,112.595289 L277.38911,149.511777 L345.948302,149.511777 C347.530445,149.511777 348.892826,148.896509 350.035485,147.665953 C351.178144,146.435397 351.749465,145.116964 351.749465,143.710615 Z" id="Combined-Shape" fill="#FFFFFF"></path>
        </g>
    </g>
</svg>